<?xml version="1.0" encoding="UTF-8" standalone="no"?>
<!-- Created with Inkscape (http://www.inkscape.org/) -->

<svg
   width="323.35663mm"
   height="97.666473mm"
   viewBox="0 0 323.35663 97.666473"
   version="1.1"
   id="svg1"
   inkscape:version="1.4.2 (f4327f4, 2025-05-13)"
   sodipodi:docname="fraværNå-1.svg"
   xmlns:inkscape="http://www.inkscape.org/namespaces/inkscape"
   xmlns:sodipodi="http://sodipodi.sourceforge.net/DTD/sodipodi-0.dtd"
   xmlns="http://www.w3.org/2000/svg"
   xmlns:svg="http://www.w3.org/2000/svg">
  <sodipodi:namedview
     id="namedview1"
     pagecolor="#ffffff"
     bordercolor="#000000"
     borderopacity="0.25"
     inkscape:showpageshadow="2"
     inkscape:pageopacity="0.0"
     inkscape:pagecheckerboard="0"
     inkscape:deskcolor="#d1d1d1"
     inkscape:document-units="mm"
     inkscape:zoom="0.55307694"
     inkscape:cx="505.35464"
     inkscape:cy="361.61334"
     inkscape:window-width="1920"
     inkscape:window-height="1057"
     inkscape:window-x="-8"
     inkscape:window-y="131"
     inkscape:window-maximized="1"
     inkscape:current-layer="layer1" />
  <defs
     id="defs1" />
  <g
     inkscape:label="Layer 1"
     inkscape:groupmode="layer"
     id="layer1"
     transform="translate(44.449999,-52.652086)">
    <g
       id="text10-7"
       style="font-size:10.5833px;line-height:1;font-family:Ruda;-inkscape-font-specification:Ruda;text-align:center;letter-spacing:0px;text-anchor:middle;fill:#d0e46c;stroke-width:0.352777;stroke-linecap:round;stroke-dasharray:1, 2;paint-order:fill markers stroke"
       aria-label="Teller ikke &#10;mot 10%">
      <path
         style="text-align:start;text-anchor:start"
         d="m -36.935364,66.326866 0.02117,-6.603979 -2.063744,0.03175 v -0.783164 h 4.974151 v 0.783164 l -2.063743,-0.03175 0.02117,6.603979 z m 5.746732,0.148166 q -0.730248,0 -1.291163,-0.306915 -0.550331,-0.317499 -0.857247,-1.02658 -0.306916,-0.719665 -0.306916,-1.904994 0,-1.238246 0.317499,-1.936744 0.328083,-0.698498 0.878414,-0.984247 0.550332,-0.296332 1.238246,-0.296332 0.687915,0 1.164163,0.275165 0.486832,0.275166 0.740831,0.920747 0.253999,0.634998 0.253999,1.714495 v 0.666748 h -4.063987 l 0.412749,-0.15875 q -0.04233,0.698498 0.03175,1.12183 0.08467,0.412749 0.201083,0.613831 0.126999,0.201083 0.211666,0.28575 0.148166,0.126999 0.359832,0.190499 0.211666,0.0635 0.518581,0.0635 0.306916,0 0.603248,-0.04233 0.296333,-0.05292 0.550332,-0.116417 0.253999,-0.07408 0.455082,-0.137583 0.201083,-0.07408 0.328082,-0.105833 l 0.22225,0.709081 q -0.09525,0.04233 -0.370416,0.15875 -0.275166,0.105833 -0.687914,0.201083 -0.402166,0.09525 -0.910164,0.09525 z m -1.513412,-3.196156 -0.412749,-0.380999 3.566572,-0.07408 -0.402165,0.391582 q 0.01058,-0.751414 -0.03175,-1.291162 -0.03175,-0.539749 -0.211666,-0.825498 -0.07408,-0.116416 -0.253999,-0.211666 -0.179916,-0.105833 -0.698498,-0.105833 -0.539748,0 -0.814914,0.116416 -0.264583,0.116417 -0.412749,0.306916 -0.391582,0.518582 -0.328082,2.074327 z m 5.460974,3.04799 v -7.969224 h 0.878414 v 7.969224 z m 3.122074,0 v -7.969224 h 0.878414 v 7.969224 z m 5.217568,0.148166 q -0.730248,0 -1.291163,-0.306915 -0.550332,-0.317499 -0.857247,-1.02658 -0.306916,-0.719665 -0.306916,-1.904994 0,-1.238246 0.317499,-1.936744 0.328082,-0.698498 0.878414,-0.984247 0.550331,-0.296332 1.238246,-0.296332 0.687914,0 1.164163,0.275165 0.486832,0.275166 0.740831,0.920747 0.253999,0.634998 0.253999,1.714495 v 0.666748 h -4.063987 l 0.412749,-0.15875 q -0.04233,0.698498 0.03175,1.12183 0.08467,0.412749 0.201082,0.613831 0.127,0.201083 0.211666,0.28575 0.148166,0.126999 0.359832,0.190499 0.211666,0.0635 0.518582,0.0635 0.306916,0 0.603248,-0.04233 0.296333,-0.05292 0.550332,-0.116417 0.253999,-0.07408 0.455082,-0.137583 0.201082,-0.07408 0.328082,-0.105833 l 0.222249,0.709081 q -0.09525,0.04233 -0.370415,0.15875 -0.275166,0.105833 -0.687915,0.201083 -0.402165,0.09525 -0.910163,0.09525 z m -1.513412,-3.196156 -0.412749,-0.380999 3.566572,-0.07408 -0.402165,0.391582 q 0.01058,-0.751414 -0.03175,-1.291162 -0.03175,-0.539749 -0.211666,-0.825498 -0.07408,-0.116416 -0.253999,-0.211666 -0.179917,-0.105833 -0.698498,-0.105833 -0.539749,0 -0.814914,0.116416 -0.264583,0.116417 -0.412749,0.306916 -0.391582,0.518582 -0.328082,2.074327 z m 5.408056,3.04799 v -6.15948 h 0.560915 l 0.116416,0.624414 h 0.0635 q 0,0 0.15875,-0.116416 0.169333,-0.116416 0.433915,-0.264582 0.264583,-0.148167 0.560915,-0.264583 0.306916,-0.116416 0.571498,-0.116416 0.15875,0 0.296333,0.03175 0.137582,0.02117 0.137582,0.02117 l -0.07408,0.846664 q 0,0 -0.137583,-0.01058 -0.137582,-0.01058 -0.253999,-0.01058 -0.296332,0 -0.603248,0.08467 -0.296332,0.08467 -0.550331,0.211666 -0.254,0.127 -0.402166,0.243416 v 4.878901 z m 6.7733148,0 v -6.15948 h 0.8784138 v 6.15948 z m -0.09525,-7.207227 v -0.89958 h 1.0794965 v 0.89958 z m 6.5722279,7.207227 -2.6352416,-3.323156 2.4553255,-2.836324 h 1.13241304 L -3.3863192,62.94021 v 0.05292 l 2.77282453,3.333739 z m -3.5242388,0 0.052916,-3.397239 -0.052916,-4.571985 h 0.8784139 v 7.969224 z m 9.0487177,0 -2.6352416,-3.323156 2.4553255,-2.836324 h 1.132413 L 2.1381597,62.94021 v 0.05292 l 2.7728245,3.333739 z m -3.5242388,0 0.0529165,-3.397239 -0.0529165,-4.571985 H 1.122163 v 7.969224 z m 7.5776275,0.148166 q -0.7302477,0 -1.2911626,-0.306915 -0.5503315,-0.317499 -0.8572472,-1.02658 -0.3069157,-0.719665 -0.3069157,-1.904994 0,-1.238246 0.317499,-1.936744 0.3280822,-0.698498 0.8784138,-0.984247 0.5503316,-0.296332 1.2382461,-0.296332 0.6879145,0 1.1641629,0.275165 0.4868318,0.275166 0.740831,0.920747 0.2539992,0.634998 0.2539992,1.714495 v 0.666748 h -4.063987 l 0.4127486,-0.15875 q -0.042333,0.698498 0.03175,1.12183 0.084666,0.412749 0.2010827,0.613831 0.1269996,0.201083 0.211666,0.28575 0.1481662,0.126999 0.3598322,0.190499 0.211666,0.0635 0.5185817,0.0635 0.3069157,0 0.6032481,-0.04233 0.2963324,-0.05292 0.5503316,-0.116417 0.2539991,-0.07408 0.4550818,-0.137583 0.2010827,-0.07408 0.3280823,-0.105833 l 0.2222493,0.709081 q -0.09525,0.04233 -0.3704155,0.15875 -0.2751658,0.105833 -0.6879144,0.201083 -0.4021654,0.09525 -0.9101638,0.09525 z M 6.3079647,63.278876 5.8952161,62.897877 9.461788,62.823794 9.0596226,63.215376 Q 9.0702059,62.463962 9.0278727,61.924214 8.9961228,61.384465 8.8162068,61.098716 8.7421237,60.9823 8.5622076,60.88705 8.3822915,60.781217 7.8637098,60.781217 q -0.5397483,0 -0.8149141,0.116416 -0.2645825,0.116417 -0.4127487,0.306916 -0.3915821,0.518582 -0.3280823,2.074327 z"
         id="path3" />
      <path
         style="text-align:start;text-anchor:start"
         d="m -37.930194,76.910166 v -6.159481 h 0.592665 l 0.09525,0.603248 h 0.04233 q 0.09525,-0.05292 0.317499,-0.169332 0.222249,-0.127 0.518581,-0.254 0.296333,-0.137582 0.624415,-0.222249 0.328082,-0.09525 0.645581,-0.09525 0.455082,0 0.783164,0.211665 0.338666,0.211666 0.476249,0.582082 0.444498,-0.275166 0.984247,-0.529165 0.550331,-0.264582 1.164163,-0.264582 0.571498,0 0.888997,0.275165 0.317499,0.275166 0.444498,0.783164 0.127,0.497416 0.127,1.18533 v 4.053404 h -0.878414 v -3.757072 q 0,-0.497415 -0.02117,-0.888997 -0.02117,-0.391582 -0.137583,-0.571498 -0.105833,-0.169333 -0.296333,-0.201083 -0.179916,-0.04233 -0.296332,-0.04233 -0.285749,0 -0.592665,0.08467 -0.296332,0.07408 -0.560915,0.190499 -0.264582,0.105833 -0.444498,0.201083 -0.169333,0.09525 -0.22225,0.126999 0.02117,0.169333 0.03175,0.359832 0.01058,0.1905 0.01058,0.402166 v 4.095737 h -0.878414 v -3.788821 q 0,-0.603249 -0.03175,-0.931331 -0.02117,-0.328082 -0.137583,-0.507998 -0.105833,-0.148166 -0.264583,-0.1905 -0.158749,-0.04233 -0.306915,-0.04233 -0.359832,0 -0.719665,0.116416 -0.359832,0.105833 -0.645581,0.243416 -0.285749,0.127 -0.433915,0.1905 v 4.910651 z m 11.683961,0.137583 q -0.878414,0 -1.386413,-0.391582 -0.497415,-0.391582 -0.709081,-1.111247 -0.211666,-0.719664 -0.211666,-1.714494 0,-0.994831 0.211666,-1.714495 0.211666,-0.719664 0.709081,-1.111246 0.507999,-0.391582 1.386413,-0.391582 0.878413,0 1.375828,0.391582 0.507999,0.391582 0.719665,1.111246 0.211666,0.719664 0.211666,1.714495 0,0.99483 -0.211666,1.714494 -0.211666,0.719665 -0.719665,1.111247 -0.497415,0.391582 -1.375828,0.391582 z m 0,-0.761998 q 0.402165,0 0.666747,-0.09525 0.275166,-0.09525 0.433916,-0.349248 0.169332,-0.254 0.232832,-0.740831 0.07408,-0.486832 0.07408,-1.269996 0,-0.783165 -0.07408,-1.269996 -0.0635,-0.486832 -0.232832,-0.740831 -0.15875,-0.264583 -0.433916,-0.349249 -0.264582,-0.09525 -0.666747,-0.09525 -0.402166,0 -0.677332,0.09525 -0.264582,0.08467 -0.433915,0.349249 -0.158749,0.253999 -0.232833,0.740831 -0.07408,0.486831 -0.07408,1.269996 0,0.783164 0.07408,1.269996 0.07408,0.486831 0.232833,0.740831 0.169333,0.253999 0.433915,0.349248 0.275166,0.09525 0.677332,0.09525 z m 5.725568,0.772581 q -0.455082,0 -0.793748,-0.148166 -0.338666,-0.15875 -0.529165,-0.592665 -0.179916,-0.444499 -0.179916,-1.312329 v -3.20674 h -0.698498 V 71.2481 l 0.730248,-0.148166 0.232832,-1.439328 h 0.613832 v 1.449912 h 1.227663 v 0.709081 h -1.227663 v 3.249073 q 0,0.582081 0.03175,0.846664 0.03175,0.264582 0.158749,0.338665 0.137583,0.0635 0.455082,0.0635 0.169333,0 0.296333,0 0.126999,-0.01058 0.201082,-0.01058 0.07408,-0.01058 0.07408,-0.01058 v 0.709081 q 0,0 -0.158749,0.02117 -0.15875,0.03175 -0.433915,0.03175 z m 4.529652,-0.148166 v -0.761998 l 1.767411,0.02117 0.07408,-5.810232 h -0.05292 l -1.555745,1.640412 -0.592664,-0.571498 2.074326,-1.947328 0.952497,0.07408 v 6.614562 l 1.555745,-0.02117 v 0.761998 z m 7.5776435,0.137583 q -0.5079984,0 -0.9419136,-0.169333 -0.4339153,-0.169333 -0.7619979,-0.582082 -0.317499,-0.423332 -0.507998,-1.164163 -0.179916,-0.751414 -0.179916,-1.915577 0,-1.153579 0.179916,-1.89441 0.190499,-0.740831 0.507998,-1.15358 0.3280826,-0.423332 0.7619979,-0.582082 0.4339152,-0.169332 0.9419136,-0.169332 0.5079984,0 0.9419137,0.169332 0.4339153,0.15875 0.7619976,0.582082 0.3280823,0.412749 0.5079983,1.15358 0.1799161,0.740831 0.1799161,1.89441 0,1.164163 -0.1799161,1.915577 -0.179916,0.740831 -0.5079983,1.164163 -0.3280823,0.412749 -0.7619976,0.582082 -0.4339153,0.169333 -0.9419137,0.169333 z m 0.010583,-0.804331 q 0.4868318,0 0.8043308,-0.243416 0.3280823,-0.253999 0.4974151,-0.910164 0.1693328,-0.656164 0.1693328,-1.873244 0,-0.941913 -0.105833,-1.534578 -0.09525,-0.592665 -0.2857491,-0.910164 -0.1904994,-0.317499 -0.4656652,-0.433915 -0.2751658,-0.127 -0.6244147,-0.127 -0.3492489,0 -0.6244147,0.116416 -0.2751657,0.116417 -0.4656651,0.433916 -0.1904994,0.317499 -0.2857491,0.910163 -0.09525,0.582082 -0.09525,1.523996 0,1.217079 0.1587495,1.883827 0.1693328,0.656165 0.497415,0.910164 0.3386656,0.253999 0.8254974,0.253999 z m 5.0059033,0.761997 1.9684937,-4.13807 1.65099473,-3.714738 H 1.0057697 l -1.87324403,4.042821 -1.73566117,3.809987 z m 0.1587495,-4.402652 q -0.3915821,0 -0.7619976,-0.15875 -0.3598322,-0.158749 -0.5926648,-0.507998 -0.2328326,-0.349249 -0.2328326,-0.93133 0,-0.582082 0.2328326,-0.920747 0.2328326,-0.349249 0.5926648,-0.497416 0.3704155,-0.158749 0.7619976,-0.158749 0.391582,0 0.7514142,0.158749 0.3704155,0.148167 0.6032481,0.497416 0.2328326,0.338665 0.2328326,0.920747 0,0.582081 -0.2328326,0.93133 -0.2328326,0.349249 -0.6032481,0.507998 -0.3598322,0.15875 -0.7514142,0.15875 z m 0,-0.709081 q 0.3704154,0 0.603248,-0.1905 0.2434159,-0.190499 0.2434159,-0.698497 0,-0.497415 -0.2434159,-0.677332 -0.2328326,-0.190499 -0.603248,-0.190499 -0.3704155,0 -0.6138314,0.190499 -0.2328326,0.179917 -0.2328326,0.677332 0,0.507998 0.2328326,0.698497 0.2434159,0.1905 0.6138314,0.1905 z m 4.15923671,5.090567 q -0.40216539,0 -0.77258087,-0.15875 -0.35983219,-0.158749 -0.59266478,-0.507998 -0.2328326,-0.349249 -0.2328326,-0.93133 0,-0.582082 0.2328326,-0.920747 0.23283259,-0.349249 0.59266478,-0.497416 0.37041548,-0.158749 0.77258087,-0.158749 0.39158209,0 0.75141429,0.158749 0.3704155,0.148167 0.6032481,0.497416 0.2328326,0.338665 0.2328326,0.920747 0,0.582081 -0.2328326,0.93133 -0.2328326,0.349249 -0.6032481,0.507998 -0.3598322,0.15875 -0.75141429,0.15875 z m 0,-0.709081 q 0.37041549,0 0.60324809,-0.1905 0.2328326,-0.190499 0.2328326,-0.698497 0,-0.497415 -0.2328326,-0.677332 -0.2328326,-0.190499 -0.60324809,-0.190499 -0.38099879,0 -0.61383138,0.190499 -0.23283259,0.179917 -0.23283259,0.677332 0,0.507998 0.23283259,0.698497 0.23283259,0.1905 0.61383138,0.1905 z"
         id="path4" />
    </g>
    <path
       style="baseline-shift:baseline;display:inline;overflow:visible;vector-effect:none;fill:#d0e46c;stroke-linecap:round;stroke-dasharray:5.29167, 5.29167;paint-order:fill markers stroke;enable-background:accumulate;stop-color:#000000;stop-opacity:1;opacity:1"
       d="m -43.919922,52.828125 a 0.52916503,0.52916503 0 0 0 -0.529297,0.529297 v 1.773437 a 0.52916503,0.52916503 0 0 0 0.529297,0.529297 0.52916503,0.52916503 0 0 0 0.527344,-0.529297 v -1.24414 h 4.763672 a 0.52916503,0.52916503 0 0 0 0.529297,-0.529297 0.52916503,0.52916503 0 0 0 -0.529297,-0.529297 z m 10.582031,0 a 0.52916503,0.52916503 0 0 0 -0.529296,0.529297 0.52916503,0.52916503 0 0 0 0.529296,0.529297 h 5.292969 a 0.52916503,0.52916503 0 0 0 0.527344,-0.529297 0.52916503,0.52916503 0 0 0 -0.527344,-0.529297 z m 10.583985,0 a 0.52916503,0.52916503 0 0 0 -0.529297,0.529297 0.52916503,0.52916503 0 0 0 0.529297,0.529297 h 5.291015 a 0.52916503,0.52916503 0 0 0 0.529297,-0.529297 0.52916503,0.52916503 0 0 0 -0.529297,-0.529297 z m 10.583984,0 a 0.52916503,0.52916503 0 0 0 -0.529297,0.529297 0.52916503,0.52916503 0 0 0 0.529297,0.529297 h 5.2910158 a 0.52916503,0.52916503 0 0 0 0.5292968,-0.529297 0.52916503,0.52916503 0 0 0 -0.5292968,-0.529297 z m 10.5820314,0 a 0.52916503,0.52916503 0 0 0 -0.5292969,0.529297 0.52916503,0.52916503 0 0 0 0.5292969,0.529297 H 3.7050781 A 0.52916503,0.52916503 0 0 0 4.2324219,53.357422 0.52916503,0.52916503 0 0 0 3.7050781,52.828125 Z m 10.5839844,0 a 0.52916503,0.52916503 0 0 0 -0.5292969,0.529297 0.52916503,0.52916503 0 0 0 0.5292969,0.529297 h 5.2910152 a 0.52916503,0.52916503 0 0 0 0.529297,-0.529297 0.52916503,0.52916503 0 0 0 -0.529297,-0.529297 z m 10.5839842,0 a 0.52916503,0.52916503 0 0 0 -0.529297,0.529297 0.52916503,0.52916503 0 0 0 0.529297,0.529297 h 5.291016 a 0.52916503,0.52916503 0 0 0 0.529297,-0.529297 0.52916503,0.52916503 0 0 0 -0.529297,-0.529297 z m 10.582031,0 a 0.52916503,0.52916503 0 0 0 -0.529297,0.529297 0.52916503,0.52916503 0 0 0 0.529297,0.529297 h 5.292969 a 0.52916503,0.52916503 0 0 0 0.527344,-0.529297 0.52916503,0.52916503 0 0 0 -0.527344,-0.529297 z m 10.583985,0 a 0.52916503,0.52916503 0 0 0 -0.529297,0.529297 0.52916503,0.52916503 0 0 0 0.529297,0.529297 h 5.291015 a 0.52916503,0.52916503 0 0 0 0.529297,-0.529297 0.52916503,0.52916503 0 0 0 -0.529297,-0.529297 z m 10.583984,0 a 0.52916503,0.52916503 0 0 0 -0.529297,0.529297 0.52916503,0.52916503 0 0 0 0.529297,0.529297 h 4.701172 a 0.52916503,0.52916503 0 0 0 0.294922,0.294922 0.52916503,0.52916503 0 0 0 0.529297,-0.529297 v -0.824219 z m 4.996094,5.587891 a 0.52916503,0.52916503 0 0 0 -0.529297,0.529296 v 5.291016 a 0.52916503,0.52916503 0 0 0 0.529297,0.529297 0.52916503,0.52916503 0 0 0 0.529297,-0.529297 v -5.291016 a 0.52916503,0.52916503 0 0 0 -0.529297,-0.529296 z m -100.246094,1.476562 a 0.52916503,0.52916503 0 0 0 -0.529297,0.529297 v 5.291016 a 0.52916503,0.52916503 0 0 0 0.529297,0.529296 0.52916503,0.52916503 0 0 0 0.527344,-0.529296 v -5.291016 a 0.52916503,0.52916503 0 0 0 -0.527344,-0.529297 z m 100.246094,9.105469 a 0.52916503,0.52916503 0 0 0 -0.529297,0.529297 v 5.292968 a 0.52916503,0.52916503 0 0 0 0.529297,0.529297 0.52916503,0.52916503 0 0 0 0.529297,-0.529297 v -5.292968 a 0.52916503,0.52916503 0 0 0 -0.529297,-0.529297 z m -100.246094,1.478515 a 0.52916503,0.52916503 0 0 0 -0.529297,0.529297 v 5.291016 a 0.52916503,0.52916503 0 0 0 0.529297,0.529297 0.52916503,0.52916503 0 0 0 0.527344,-0.529297 v -5.291016 a 0.52916503,0.52916503 0 0 0 -0.527344,-0.529297 z m 100.246094,9.105469 a 0.52916503,0.52916503 0 0 0 -0.529297,0.529297 v 5.291016 a 0.52916503,0.52916503 0 0 0 0.529297,0.529297 0.52916503,0.52916503 0 0 0 0.529297,-0.529297 v -5.291016 a 0.52916503,0.52916503 0 0 0 -0.529297,-0.529297 z m -100.246094,1.476563 a 0.52916503,0.52916503 0 0 0 -0.529297,0.529297 v 5.292968 a 0.52916503,0.52916503 0 0 0 0.529297,0.529297 0.52916503,0.52916503 0 0 0 0.527344,-0.529297 v -5.292968 a 0.52916503,0.52916503 0 0 0 -0.527344,-0.529297 z m 100.246094,9.107422 a 0.52916503,0.52916503 0 0 0 -0.529297,0.529296 v 5.291016 a 0.52916503,0.52916503 0 0 0 0.529297,0.529297 0.52916503,0.52916503 0 0 0 0.529297,-0.529297 v -5.291016 a 0.52916503,0.52916503 0 0 0 -0.529297,-0.529296 z m -100.246094,1.476562 a 0.52916503,0.52916503 0 0 0 -0.529297,0.529297 v 5.291016 a 0.52916503,0.52916503 0 0 0 0.529297,0.529296 0.52916503,0.52916503 0 0 0 0.527344,-0.529296 v -5.291016 a 0.52916503,0.52916503 0 0 0 -0.527344,-0.529297 z m 100.246094,9.105472 a 0.52916503,0.52916503 0 0 0 -0.529297,0.52929 v 5.29297 a 0.52916503,0.52916503 0 0 0 0.529297,0.5293 0.52916503,0.52916503 0 0 0 0.529297,-0.5293 v -5.29297 a 0.52916503,0.52916503 0 0 0 -0.529297,-0.52929 z m -100.246094,1.47851 a 0.52916503,0.52916503 0 0 0 -0.529297,0.5293 v 5.29102 a 0.52916503,0.52916503 0 0 0 0.529297,0.52929 0.52916503,0.52916503 0 0 0 0.527344,-0.52929 v -5.29102 a 0.52916503,0.52916503 0 0 0 -0.527344,-0.5293 z m 100.246094,9.10547 a 0.52916503,0.52916503 0 0 0 -0.529297,0.5293 v 5.29101 a 0.52916503,0.52916503 0 0 0 0.529297,0.5293 0.52916503,0.52916503 0 0 0 0.529297,-0.5293 v -5.29101 a 0.52916503,0.52916503 0 0 0 -0.529297,-0.5293 z m -100.246094,1.47656 a 0.52916503,0.52916503 0 0 0 -0.529297,0.5293 v 5.29297 a 0.52916503,0.52916503 0 0 0 0.529297,0.5293 0.52916503,0.52916503 0 0 0 0.527344,-0.5293 v -5.29297 a 0.52916503,0.52916503 0 0 0 -0.527344,-0.5293 z m 100.246094,9.10743 a 0.52916503,0.52916503 0 0 0 -0.529297,0.52929 v 5.29102 a 0.52916503,0.52916503 0 0 0 0.529297,0.52929 0.52916503,0.52916503 0 0 0 0.529297,-0.52929 v -5.29102 a 0.52916503,0.52916503 0 0 0 -0.529297,-0.52929 z m -100.246094,1.47656 a 0.52916503,0.52916503 0 0 0 -0.529297,0.5293 v 5.29101 a 0.52916503,0.52916503 0 0 0 0.529297,0.5293 0.52916503,0.52916503 0 0 0 0.527344,-0.5293 v -5.29101 a 0.52916503,0.52916503 0 0 0 -0.527344,-0.5293 z m 100.246094,9.10547 a 0.52916503,0.52916503 0 0 0 -0.529297,0.52929 v 5.29297 a 0.52916503,0.52916503 0 0 0 0.529297,0.5293 0.52916503,0.52916503 0 0 0 0.529297,-0.5293 v -5.29297 a 0.52916503,0.52916503 0 0 0 -0.529297,-0.52929 z m -100.246094,1.47851 a 0.52916503,0.52916503 0 0 0 -0.529297,0.5293 v 5.29101 a 0.52916503,0.52916503 0 0 0 0.529297,0.5293 0.52916503,0.52916503 0 0 0 0.527344,-0.5293 v -5.29101 a 0.52916503,0.52916503 0 0 0 -0.527344,-0.5293 z m 100.246094,9.10547 a 0.52916503,0.52916503 0 0 0 -0.529297,0.5293 v 5.29101 a 0.52916503,0.52916503 0 0 0 0.529297,0.5293 0.52916503,0.52916503 0 0 0 0.529297,-0.5293 v -5.29101 a 0.52916503,0.52916503 0 0 0 -0.529297,-0.5293 z m -100.246094,1.47656 a 0.52916503,0.52916503 0 0 0 -0.529297,0.5293 v 5.23047 h 1.119141 a 0.52916503,0.52916503 0 0 0 0.529297,-0.5293 0.52916503,0.52916503 0 0 0 -0.529297,-0.52929 h -0.0625 v -4.17188 a 0.52916503,0.52916503 0 0 0 -0.527344,-0.5293 z m 5.88086,4.70118 a 0.52916503,0.52916503 0 0 0 -0.529297,0.52929 0.52916503,0.52916503 0 0 0 0.529297,0.5293 h 5.292968 a 0.52916503,0.52916503 0 0 0 0.529297,-0.5293 0.52916503,0.52916503 0 0 0 -0.529297,-0.52929 z m 10.583984,0 a 0.52916503,0.52916503 0 0 0 -0.529297,0.52929 0.52916503,0.52916503 0 0 0 0.529297,0.5293 h 5.291016 a 0.52916503,0.52916503 0 0 0 0.529296,-0.5293 0.52916503,0.52916503 0 0 0 -0.529296,-0.52929 z m 10.583984,0 a 0.52916503,0.52916503 0 0 0 -0.529297,0.52929 0.52916503,0.52916503 0 0 0 0.529297,0.5293 h 5.291016 a 0.52916503,0.52916503 0 0 0 0.529297,-0.5293 0.52916503,0.52916503 0 0 0 -0.529297,-0.52929 z m 10.5820315,0 a 0.52916503,0.52916503 0 0 0 -0.5292969,0.52929 0.52916503,0.52916503 0 0 0 0.5292969,0.5293 h 5.29296875 a 0.52916503,0.52916503 0 0 0 0.52929687,-0.5293 0.52916503,0.52916503 0 0 0 -0.52929687,-0.52929 z m 10.5839844,0 a 0.52916503,0.52916503 0 0 0 -0.5292969,0.52929 0.52916503,0.52916503 0 0 0 0.5292969,0.5293 h 5.2910156 a 0.52916503,0.52916503 0 0 0 0.5292965,-0.5293 0.52916503,0.52916503 0 0 0 -0.5292965,-0.52929 z m 10.5839841,0 a 0.52916503,0.52916503 0 0 0 -0.529297,0.52929 0.52916503,0.52916503 0 0 0 0.529297,0.5293 h 5.291016 a 0.52916503,0.52916503 0 0 0 0.529297,-0.5293 0.52916503,0.52916503 0 0 0 -0.529297,-0.52929 z m 10.582031,0 a 0.52916503,0.52916503 0 0 0 -0.529296,0.52929 0.52916503,0.52916503 0 0 0 0.529296,0.5293 h 5.292969 a 0.52916503,0.52916503 0 0 0 0.529297,-0.5293 0.52916503,0.52916503 0 0 0 -0.529297,-0.52929 z m 10.583985,0 a 0.52916503,0.52916503 0 0 0 -0.529297,0.52929 0.52916503,0.52916503 0 0 0 0.529297,0.5293 h 5.291015 a 0.52916503,0.52916503 0 0 0 0.529297,-0.5293 0.52916503,0.52916503 0 0 0 -0.529297,-0.52929 z m 10.583984,0 a 0.52916503,0.52916503 0 0 0 -0.529297,0.52929 0.52916503,0.52916503 0 0 0 0.529297,0.5293 h 5.291016 a 0.52916503,0.52916503 0 0 0 0.529297,-0.5293 0.52916503,0.52916503 0 0 0 -0.529297,-0.52929 z"
       id="rect15-8" />
    <g
       id="text11-1-9"
       style="font-size:10.5833px;line-height:1;font-family:Ruda;-inkscape-font-specification:Ruda;text-align:center;letter-spacing:0px;text-anchor:middle;fill:#ffaaaa;stroke-width:0.352777;stroke-linecap:round;stroke-dasharray:1, 2;paint-order:fill markers stroke"
       aria-label="Teller mot&#10;10%">
      <path
         style="text-align:start;text-anchor:start"
         d="m 184.5756,66.150482 0.0212,-6.603979 -2.06375,0.03175 v -0.783164 h 4.97415 v 0.783164 l -2.06374,-0.03175 0.0212,6.603979 z m 5.74673,0.148166 q -0.73025,0 -1.29116,-0.306915 -0.55033,-0.317499 -0.85725,-1.02658 -0.30691,-0.719665 -0.30691,-1.904994 0,-1.238246 0.31749,-1.936744 0.32809,-0.698498 0.87842,-0.984247 0.55033,-0.296332 1.23824,-0.296332 0.68792,0 1.16417,0.275165 0.48683,0.275166 0.74083,0.920747 0.254,0.634998 0.254,1.714495 v 0.666748 h -4.06399 l 0.41275,-0.15875 q -0.0423,0.698498 0.0317,1.12183 0.0847,0.412749 0.20108,0.613832 0.127,0.201082 0.21167,0.285749 0.14816,0.126999 0.35983,0.190499 0.21167,0.0635 0.51858,0.0635 0.30692,0 0.60325,-0.04233 0.29633,-0.05292 0.55033,-0.116417 0.254,-0.07408 0.45508,-0.137583 0.20109,-0.07408 0.32809,-0.105833 l 0.22224,0.709081 q -0.0952,0.04233 -0.37041,0.15875 -0.27517,0.105833 -0.68792,0.201083 -0.40216,0.09525 -0.91016,0.09525 z m -1.51341,-3.196156 -0.41275,-0.380999 3.56657,-0.07408 -0.40216,0.391582 q 0.0106,-0.751414 -0.0317,-1.291162 -0.0317,-0.539749 -0.21167,-0.825498 -0.0741,-0.116416 -0.254,-0.211666 -0.17991,-0.105833 -0.6985,-0.105833 -0.53974,0 -0.81491,0.116416 -0.26458,0.116417 -0.41275,0.306916 -0.39158,0.518582 -0.32808,2.074327 z m 5.46097,3.04799 v -7.969224 h 0.87842 v 7.969224 z m 3.12208,0 v -7.969224 h 0.87841 v 7.969224 z m 5.21757,0.148166 q -0.73025,0 -1.29117,-0.306915 -0.55033,-0.317499 -0.85724,-1.02658 -0.30692,-0.719665 -0.30692,-1.904994 0,-1.238246 0.3175,-1.936744 0.32808,-0.698498 0.87841,-0.984247 0.55033,-0.296332 1.23825,-0.296332 0.68791,0 1.16416,0.275165 0.48683,0.275166 0.74083,0.920747 0.254,0.634998 0.254,1.714495 v 0.666748 h -4.06399 l 0.41275,-0.15875 q -0.0423,0.698498 0.0317,1.12183 0.0847,0.412749 0.20109,0.613832 0.127,0.201082 0.21166,0.285749 0.14817,0.126999 0.35983,0.190499 0.21167,0.0635 0.51859,0.0635 0.30691,0 0.60324,-0.04233 0.29634,-0.05292 0.55034,-0.116417 0.25399,-0.07408 0.45508,-0.137583 0.20108,-0.07408 0.32808,-0.105833 l 0.22225,0.709081 q -0.0953,0.04233 -0.37042,0.15875 -0.27516,0.105833 -0.68791,0.201083 -0.40217,0.09525 -0.91016,0.09525 z m -1.51342,-3.196156 -0.41275,-0.380999 3.56658,-0.07408 -0.40217,0.391582 q 0.0106,-0.751414 -0.0317,-1.291162 -0.0318,-0.539749 -0.21166,-0.825498 -0.0741,-0.116416 -0.254,-0.211666 -0.17992,-0.105833 -0.6985,-0.105833 -0.53975,0 -0.81492,0.116416 -0.26458,0.116417 -0.41274,0.306916 -0.39159,0.518582 -0.32809,2.074327 z m 5.40806,3.04799 v -6.15948 h 0.56091 l 0.11642,0.624414 h 0.0635 q 0,0 0.15875,-0.116416 0.16933,-0.116416 0.43392,-0.264582 0.26458,-0.148167 0.56091,-0.264583 0.30692,-0.116416 0.5715,-0.116416 0.15875,0 0.29633,0.03175 0.13758,0.02117 0.13758,0.02117 l -0.0741,0.846664 q 0,0 -0.13758,-0.01058 -0.13759,-0.01058 -0.254,-0.01058 -0.29633,0 -0.60325,0.08467 -0.29633,0.08467 -0.55033,0.211666 -0.254,0.127 -0.40217,0.243416 v 4.878901 z m 6.7204,0 v -6.15948 h 0.59266 l 0.0952,0.603248 h 0.0423 q 0.0953,-0.05292 0.31749,-0.169333 0.22225,-0.127 0.51859,-0.253999 0.29633,-0.137583 0.62441,-0.222249 0.32808,-0.09525 0.64558,-0.09525 0.45508,0 0.78317,0.211666 0.33866,0.211666 0.47624,0.582081 0.4445,-0.275165 0.98425,-0.529165 0.55033,-0.264582 1.16416,-0.264582 0.5715,0 0.889,0.275166 0.3175,0.275165 0.4445,0.783164 0.127,0.497415 0.127,1.185329 v 4.053404 h -0.87841 v -3.757071 q 0,-0.497415 -0.0212,-0.888997 -0.0212,-0.391582 -0.13758,-0.571499 -0.10584,-0.169332 -0.29634,-0.201082 -0.17991,-0.04233 -0.29633,-0.04233 -0.28575,0 -0.59266,0.08467 -0.29634,0.07408 -0.56092,0.190499 -0.26458,0.105833 -0.4445,0.201083 -0.16933,0.09525 -0.22225,0.127 0.0212,0.169332 0.0317,0.359832 0.0106,0.190499 0.0106,0.402165 v 4.095737 h -0.87842 v -3.788821 q 0,-0.603248 -0.0317,-0.93133 -0.0212,-0.328083 -0.13758,-0.507999 -0.10583,-0.148166 -0.26458,-0.190499 -0.15875,-0.04233 -0.30692,-0.04233 -0.35983,0 -0.71966,0.116416 -0.35983,0.105833 -0.64558,0.243416 -0.28575,0.126999 -0.43392,0.190499 v 4.910651 z m 11.68396,0.137583 q -0.87842,0 -1.38642,-0.391582 -0.49741,-0.391582 -0.70908,-1.111246 -0.21166,-0.719665 -0.21166,-1.714495 0,-0.99483 0.21166,-1.714495 0.21167,-0.719664 0.70908,-1.111246 0.508,-0.391582 1.38642,-0.391582 0.87841,0 1.37583,0.391582 0.50799,0.391582 0.71966,1.111246 0.21167,0.719665 0.21167,1.714495 0,0.99483 -0.21167,1.714495 -0.21167,0.719664 -0.71966,1.111246 -0.49742,0.391582 -1.37583,0.391582 z m 0,-0.761998 q 0.40216,0 0.66674,-0.09525 0.27517,-0.09525 0.43392,-0.349249 0.16933,-0.253999 0.23283,-0.740831 0.0741,-0.486832 0.0741,-1.269996 0,-0.783164 -0.0741,-1.269996 -0.0635,-0.486832 -0.23283,-0.740831 -0.15875,-0.264582 -0.43392,-0.349249 -0.26458,-0.09525 -0.66674,-0.09525 -0.40217,0 -0.67733,0.09525 -0.26459,0.08467 -0.43392,0.349249 -0.15875,0.253999 -0.23283,0.740831 -0.0741,0.486832 -0.0741,1.269996 0,0.783164 0.0741,1.269996 0.0741,0.486832 0.23283,0.740831 0.16933,0.253999 0.43392,0.349249 0.27516,0.09525 0.67733,0.09525 z m 5.72557,0.772581 q -0.45509,0 -0.79375,-0.148166 -0.33867,-0.158749 -0.52917,-0.592665 -0.17991,-0.444498 -0.17991,-1.312329 v -3.20674 h -0.6985 v -0.550331 l 0.73025,-0.148166 0.23283,-1.439329 h 0.61383 v 1.449912 h 1.22766 v 0.709081 h -1.22766 v 3.249073 q 0,0.582082 0.0317,0.846664 0.0318,0.264583 0.15875,0.338666 0.13758,0.0635 0.45508,0.0635 0.16934,0 0.29634,0 0.12699,-0.01058 0.20108,-0.01058 0.0741,-0.01058 0.0741,-0.01058 v 0.709081 q 0,0 -0.15875,0.02117 -0.15875,0.03175 -0.43391,0.03175 z"
         id="path1" />
      <path
         style="text-align:start;text-anchor:start"
         d="m 183.32677,76.733782 v -0.761998 l 1.76741,0.02117 0.0741,-5.810232 h -0.0529 l -1.55575,1.640412 -0.59266,-0.571498 2.07432,-1.947328 0.9525,0.07408 v 6.614562 l 1.55575,-0.02117 v 0.761998 z m 7.57764,0.137583 q -0.508,0 -0.94191,-0.169333 -0.43392,-0.169333 -0.762,-0.582082 -0.3175,-0.423332 -0.508,-1.164163 -0.17991,-0.751414 -0.17991,-1.915577 0,-1.153579 0.17991,-1.89441 0.1905,-0.740831 0.508,-1.15358 0.32808,-0.423332 0.762,-0.582082 0.43391,-0.169332 0.94191,-0.169332 0.508,0 0.94192,0.169332 0.43391,0.15875 0.76199,0.582082 0.32809,0.412749 0.508,1.15358 0.17992,0.740831 0.17992,1.89441 0,1.164163 -0.17992,1.915577 -0.17991,0.740831 -0.508,1.164163 -0.32808,0.412749 -0.76199,0.582082 -0.43392,0.169333 -0.94192,0.169333 z m 0.0106,-0.804331 q 0.48683,0 0.80433,-0.243416 0.32808,-0.253999 0.49741,-0.910164 0.16933,-0.656164 0.16933,-1.873244 0,-0.941913 -0.10583,-1.534578 -0.0952,-0.592665 -0.28575,-0.910164 -0.1905,-0.317499 -0.46566,-0.433915 -0.27517,-0.127 -0.62442,-0.127 -0.34925,0 -0.62441,0.116416 -0.27517,0.116417 -0.46567,0.433916 -0.1905,0.317499 -0.28575,0.910163 -0.0952,0.582082 -0.0952,1.523996 0,1.217079 0.15875,1.883827 0.16934,0.656165 0.49742,0.910164 0.33866,0.253999 0.8255,0.253999 z m 5.0059,0.761998 1.9685,-4.138071 1.65099,-3.714738 h 0.78316 l -1.87324,4.042821 -1.73566,3.809988 z m 0.15875,-4.402653 q -0.39158,0 -0.762,-0.15875 -0.35983,-0.158749 -0.59266,-0.507998 -0.23283,-0.349249 -0.23283,-0.93133 0,-0.582082 0.23283,-0.920747 0.23283,-0.349249 0.59266,-0.497416 0.37042,-0.158749 0.762,-0.158749 0.39158,0 0.75142,0.158749 0.37041,0.148167 0.60324,0.497416 0.23284,0.338665 0.23284,0.920747 0,0.582081 -0.23284,0.93133 -0.23283,0.349249 -0.60324,0.507998 -0.35984,0.15875 -0.75142,0.15875 z m 0,-0.709081 q 0.37042,0 0.60325,-0.1905 0.24342,-0.190499 0.24342,-0.698497 0,-0.497415 -0.24342,-0.677332 -0.23283,-0.190499 -0.60325,-0.190499 -0.37041,0 -0.61383,0.190499 -0.23283,0.179917 -0.23283,0.677332 0,0.507998 0.23283,0.698497 0.24342,0.1905 0.61383,0.1905 z m 4.15924,5.090567 q -0.40217,0 -0.77258,-0.15875 -0.35983,-0.158749 -0.59267,-0.507998 -0.23283,-0.349249 -0.23283,-0.93133 0,-0.582082 0.23283,-0.920747 0.23284,-0.349249 0.59267,-0.497415 0.37041,-0.15875 0.77258,-0.15875 0.39158,0 0.75141,0.15875 0.37042,0.148166 0.60325,0.497415 0.23283,0.338665 0.23283,0.920747 0,0.582081 -0.23283,0.93133 -0.23283,0.349249 -0.60325,0.507998 -0.35983,0.15875 -0.75141,0.15875 z m 0,-0.709081 q 0.37041,0 0.60325,-0.1905 0.23283,-0.190499 0.23283,-0.698497 0,-0.497415 -0.23283,-0.677332 -0.23284,-0.190499 -0.60325,-0.190499 -0.381,0 -0.61383,0.190499 -0.23284,0.179917 -0.23284,0.677332 0,0.507998 0.23284,0.698497 0.23283,0.1905 0.61383,0.1905 z"
         id="path2" />
    </g>
    <path
       style="baseline-shift:baseline;display:inline;overflow:visible;vector-effect:none;fill:#ffaaaa;stroke-linecap:round;stroke-dasharray:5.29167, 5.29167;paint-order:fill markers stroke;enable-background:accumulate;stop-color:#000000;stop-opacity:1;opacity:1"
       d="m 177.5332,52.652344 a 0.52916503,0.52916503 0 0 0 -0.52929,0.529297 v 3.320312 a 0.52916503,0.52916503 0 0 0 0.52929,0.529297 0.52916503,0.52916503 0 0 0 0.5293,-0.529297 v -2.791016 h 4.76172 a 0.52916503,0.52916503 0 0 0 0.5293,-0.529296 0.52916503,0.52916503 0 0 0 -0.5293,-0.529297 z m 10.58399,0 a 0.52916503,0.52916503 0 0 0 -0.5293,0.529297 0.52916503,0.52916503 0 0 0 0.5293,0.529296 h 5.29101 a 0.52916503,0.52916503 0 0 0 0.5293,-0.529296 0.52916503,0.52916503 0 0 0 -0.5293,-0.529297 z m 10.58203,0 a 0.52916503,0.52916503 0 0 0 -0.5293,0.529297 0.52916503,0.52916503 0 0 0 0.5293,0.529296 h 5.29297 a 0.52916503,0.52916503 0 0 0 0.52929,-0.529296 0.52916503,0.52916503 0 0 0 -0.52929,-0.529297 z m 10.58398,0 a 0.52916503,0.52916503 0 0 0 -0.52929,0.529297 0.52916503,0.52916503 0 0 0 0.52929,0.529296 h 5.29102 a 0.52916503,0.52916503 0 0 0 0.5293,-0.529296 0.52916503,0.52916503 0 0 0 -0.5293,-0.529297 z m 10.58399,0 a 0.52916503,0.52916503 0 0 0 -0.5293,0.529297 0.52916503,0.52916503 0 0 0 0.5293,0.529296 h 5.29101 a 0.52916503,0.52916503 0 0 0 0.5293,-0.529296 0.52916503,0.52916503 0 0 0 -0.5293,-0.529297 z m 10.58203,0 a 0.52916503,0.52916503 0 0 0 -0.5293,0.529297 0.52916503,0.52916503 0 0 0 0.5293,0.529296 h 5.29297 a 0.52916503,0.52916503 0 0 0 0.52929,-0.529296 0.52916503,0.52916503 0 0 0 -0.52929,-0.529297 z m 10.58398,0 a 0.52916503,0.52916503 0 0 0 -0.52929,0.529297 0.52916503,0.52916503 0 0 0 0.52929,0.529296 h 5.29102 a 0.52916503,0.52916503 0 0 0 0.5293,-0.529296 0.52916503,0.52916503 0 0 0 -0.5293,-0.529297 z m 10.58399,0 a 0.52916503,0.52916503 0 0 0 -0.5293,0.529297 0.52916503,0.52916503 0 0 0 0.5293,0.529296 h 5.29101 a 0.52916503,0.52916503 0 0 0 0.5293,-0.529296 0.52916503,0.52916503 0 0 0 -0.5293,-0.529297 z m 10.58203,0 a 0.52916503,0.52916503 0 0 0 -0.5293,0.529297 0.52916503,0.52916503 0 0 0 0.5293,0.529296 h 5.29297 a 0.52916503,0.52916503 0 0 0 0.52929,-0.529296 0.52916503,0.52916503 0 0 0 -0.52929,-0.529297 z m 10.58398,0 a 0.52916503,0.52916503 0 0 0 -0.52929,0.529297 0.52916503,0.52916503 0 0 0 0.52929,0.529296 h 5.29102 a 0.52916503,0.52916503 0 0 0 0.5293,-0.529296 0.52916503,0.52916503 0 0 0 -0.5293,-0.529297 z m 5.59375,4.988281 a 0.52916503,0.52916503 0 0 0 -0.52929,0.529297 v 5.291015 a 0.52916503,0.52916503 0 0 0 0.52929,0.529297 0.52916503,0.52916503 0 0 0 0.5293,-0.529297 v -5.291015 a 0.52916503,0.52916503 0 0 0 -0.5293,-0.529297 z m -100.84375,3.625 a 0.52916503,0.52916503 0 0 0 -0.52929,0.529297 v 5.291015 a 0.52916503,0.52916503 0 0 0 0.52929,0.529297 0.52916503,0.52916503 0 0 0 0.5293,-0.529297 v -5.291015 a 0.52916503,0.52916503 0 0 0 -0.5293,-0.529297 z m 100.84375,6.958984 a 0.52916503,0.52916503 0 0 0 -0.52929,0.529297 v 5.291016 a 0.52916503,0.52916503 0 0 0 0.52929,0.529297 0.52916503,0.52916503 0 0 0 0.5293,-0.529297 v -5.291016 a 0.52916503,0.52916503 0 0 0 -0.5293,-0.529297 z m -100.84375,3.625 a 0.52916503,0.52916503 0 0 0 -0.52929,0.527344 v 5.292969 a 0.52916503,0.52916503 0 0 0 0.52929,0.529297 0.52916503,0.52916503 0 0 0 0.5293,-0.529297 v -5.292969 a 0.52916503,0.52916503 0 0 0 -0.5293,-0.527344 z m 100.84375,6.958985 a 0.52916503,0.52916503 0 0 0 -0.52929,0.527343 v 5.292969 a 0.52916503,0.52916503 0 0 0 0.52929,0.529297 0.52916503,0.52916503 0 0 0 0.5293,-0.529297 v -5.292969 a 0.52916503,0.52916503 0 0 0 -0.5293,-0.527343 z M 177.5332,82.431641 a 0.52916503,0.52916503 0 0 0 -0.52929,0.529296 v 5.291016 a 0.52916503,0.52916503 0 0 0 0.52929,0.529297 0.52916503,0.52916503 0 0 0 0.5293,-0.529297 v -5.291016 a 0.52916503,0.52916503 0 0 0 -0.5293,-0.529296 z m 100.84375,6.958984 a 0.52916503,0.52916503 0 0 0 -0.52929,0.529297 v 5.291015 a 0.52916503,0.52916503 0 0 0 0.52929,0.529297 0.52916503,0.52916503 0 0 0 0.5293,-0.529297 v -5.291015 a 0.52916503,0.52916503 0 0 0 -0.5293,-0.529297 z m -100.84375,3.625 a 0.52916503,0.52916503 0 0 0 -0.52929,0.529297 v 5.291015 a 0.52916503,0.52916503 0 0 0 0.52929,0.529297 0.52916503,0.52916503 0 0 0 0.5293,-0.529297 v -5.291015 a 0.52916503,0.52916503 0 0 0 -0.5293,-0.529297 z m 100.84375,6.958984 a 0.52916503,0.52916503 0 0 0 -0.52929,0.529301 v 5.29101 a 0.52916503,0.52916503 0 0 0 0.52929,0.5293 0.52916503,0.52916503 0 0 0 0.5293,-0.5293 v -5.29101 a 0.52916503,0.52916503 0 0 0 -0.5293,-0.529301 z M 177.5332,103.59961 a 0.52916503,0.52916503 0 0 0 -0.52929,0.52734 v 5.29297 a 0.52916503,0.52916503 0 0 0 0.52929,0.5293 0.52916503,0.52916503 0 0 0 0.5293,-0.5293 v -5.29297 a 0.52916503,0.52916503 0 0 0 -0.5293,-0.52734 z m 100.84375,6.95898 a 0.52916503,0.52916503 0 0 0 -0.52929,0.52735 v 5.29297 a 0.52916503,0.52916503 0 0 0 0.52929,0.52929 0.52916503,0.52916503 0 0 0 0.5293,-0.52929 v -5.29297 a 0.52916503,0.52916503 0 0 0 -0.5293,-0.52735 z m -100.84375,3.62305 a 0.52916503,0.52916503 0 0 0 -0.52929,0.5293 v 5.29101 a 0.52916503,0.52916503 0 0 0 0.52929,0.5293 0.52916503,0.52916503 0 0 0 0.5293,-0.5293 v -5.29101 a 0.52916503,0.52916503 0 0 0 -0.5293,-0.5293 z m 100.84375,6.95899 a 0.52916503,0.52916503 0 0 0 -0.52929,0.52929 v 5.29102 a 0.52916503,0.52916503 0 0 0 0.52929,0.52929 0.52916503,0.52916503 0 0 0 0.5293,-0.52929 v -5.29102 a 0.52916503,0.52916503 0 0 0 -0.5293,-0.52929 z m -100.84375,3.625 a 0.52916503,0.52916503 0 0 0 -0.52929,0.52929 v 5.29102 a 0.52916503,0.52916503 0 0 0 0.52929,0.52929 0.52916503,0.52916503 0 0 0 0.5293,-0.52929 v -5.29102 a 0.52916503,0.52916503 0 0 0 -0.5293,-0.52929 z m 100.84375,6.95898 a 0.52916503,0.52916503 0 0 0 -0.52929,0.5293 v 5.29101 a 0.52916503,0.52916503 0 0 0 0.52929,0.5293 0.52916503,0.52916503 0 0 0 0.5293,-0.5293 v -5.29101 a 0.52916503,0.52916503 0 0 0 -0.5293,-0.5293 z m -100.84375,3.625 a 0.52916503,0.52916503 0 0 0 -0.52929,0.52734 v 5.29297 a 0.52916503,0.52916503 0 0 0 0.52929,0.5293 0.52916503,0.52916503 0 0 0 0.5293,-0.5293 v -5.29297 a 0.52916503,0.52916503 0 0 0 -0.5293,-0.52734 z m 100.84375,6.95898 a 0.52916503,0.52916503 0 0 0 -0.52929,0.5293 v 5.29102 a 0.52916503,0.52916503 0 0 0 0.52929,0.52929 0.52916503,0.52916503 0 0 0 0.5293,-0.52929 v -5.29102 a 0.52916503,0.52916503 0 0 0 -0.5293,-0.5293 z m -100.84375,3.62305 a 0.52916503,0.52916503 0 0 0 -0.52929,0.5293 v 3.85742 h 2.49218 a 0.52916503,0.52916503 0 0 0 0.5293,-0.5293 0.52916503,0.52916503 0 0 0 -0.5293,-0.52929 h -1.43359 v -2.79883 a 0.52916503,0.52916503 0 0 0 -0.5293,-0.5293 z m 7.25586,3.32813 a 0.52916503,0.52916503 0 0 0 -0.52929,0.52929 0.52916503,0.52916503 0 0 0 0.52929,0.5293 h 5.29102 a 0.52916503,0.52916503 0 0 0 0.52929,-0.5293 0.52916503,0.52916503 0 0 0 -0.52929,-0.52929 z m 10.58203,0 a 0.52916503,0.52916503 0 0 0 -0.52929,0.52929 0.52916503,0.52916503 0 0 0 0.52929,0.5293 h 5.29297 a 0.52916503,0.52916503 0 0 0 0.5293,-0.5293 0.52916503,0.52916503 0 0 0 -0.5293,-0.52929 z m 10.58399,0 a 0.52916503,0.52916503 0 0 0 -0.5293,0.52929 0.52916503,0.52916503 0 0 0 0.5293,0.5293 h 5.29101 a 0.52916503,0.52916503 0 0 0 0.5293,-0.5293 0.52916503,0.52916503 0 0 0 -0.5293,-0.52929 z m 10.58398,0 a 0.52916503,0.52916503 0 0 0 -0.52929,0.52929 0.52916503,0.52916503 0 0 0 0.52929,0.5293 h 5.29102 a 0.52916503,0.52916503 0 0 0 0.52929,-0.5293 0.52916503,0.52916503 0 0 0 -0.52929,-0.52929 z m 10.58203,0 a 0.52916503,0.52916503 0 0 0 -0.52929,0.52929 0.52916503,0.52916503 0 0 0 0.52929,0.5293 h 5.29297 a 0.52916503,0.52916503 0 0 0 0.5293,-0.5293 0.52916503,0.52916503 0 0 0 -0.5293,-0.52929 z m 10.58399,0 a 0.52916503,0.52916503 0 0 0 -0.5293,0.52929 0.52916503,0.52916503 0 0 0 0.5293,0.5293 h 5.29101 a 0.52916503,0.52916503 0 0 0 0.5293,-0.5293 0.52916503,0.52916503 0 0 0 -0.5293,-0.52929 z m 10.58398,0 a 0.52916503,0.52916503 0 0 0 -0.52929,0.52929 0.52916503,0.52916503 0 0 0 0.52929,0.5293 h 5.29102 a 0.52916503,0.52916503 0 0 0 0.52929,-0.5293 0.52916503,0.52916503 0 0 0 -0.52929,-0.52929 z m 10.58203,0 a 0.52916503,0.52916503 0 0 0 -0.52929,0.52929 0.52916503,0.52916503 0 0 0 0.52929,0.5293 h 5.29297 a 0.52916503,0.52916503 0 0 0 0.5293,-0.5293 0.52916503,0.52916503 0 0 0 -0.5293,-0.52929 z m 10.58399,0 a 0.52916503,0.52916503 0 0 0 -0.5293,0.52929 0.52916503,0.52916503 0 0 0 0.5293,0.5293 h 5.29101 a 0.52916503,0.52916503 0 0 0 0.5293,-0.5293 0.52916503,0.52916503 0 0 0 -0.5293,-0.52929 z"
       id="rect16-5-9" />
  </g>
</svg>
