<?xml version="1.0" encoding="UTF-8" standalone="no"?>
<!-- Created with Inkscape (http://www.inkscape.org/) -->

<svg
   width="323.35663mm"
   height="97.666473mm"
   viewBox="0 0 323.35663 97.666473"
   version="1.1"
   id="svg1"
   inkscape:version="1.4.2 (f4327f4, 2025-05-13)"
   sodipodi:docname="fraværNå-2.svg"
   xmlns:inkscape="http://www.inkscape.org/namespaces/inkscape"
   xmlns:sodipodi="http://sodipodi.sourceforge.net/DTD/sodipodi-0.dtd"
   xmlns="http://www.w3.org/2000/svg"
   xmlns:svg="http://www.w3.org/2000/svg">
  <sodipodi:namedview
     id="namedview1"
     pagecolor="#ffffff"
     bordercolor="#000000"
     borderopacity="0.25"
     inkscape:showpageshadow="2"
     inkscape:pageopacity="0.0"
     inkscape:pagecheckerboard="0"
     inkscape:deskcolor="#d1d1d1"
     inkscape:document-units="mm"
     inkscape:zoom="0.55307694"
     inkscape:cx="487.27398"
     inkscape:cy="347.14881"
     inkscape:window-width="1920"
     inkscape:window-height="1057"
     inkscape:window-x="-8"
     inkscape:window-y="131"
     inkscape:window-maximized="1"
     inkscape:current-layer="layer1" />
  <defs
     id="defs1" />
  <g
     inkscape:label="Layer 1"
     inkscape:groupmode="layer"
     id="layer1"
     transform="translate(14.287478,-100.29055)">
    <g
       id="text10-7"
       style="font-size:10.5833px;line-height:1;font-family:Ruda;-inkscape-font-specification:Ruda;text-align:center;letter-spacing:0px;text-anchor:middle;fill:#d0e46c;stroke-width:0.352777;stroke-linecap:round;stroke-dasharray:1, 2;paint-order:fill markers stroke"
       aria-label="Teller ikke &#10;mot 10%">
      <path
         style="text-align:start;text-anchor:start"
         d="m -6.7728416,113.96533 0.021167,-6.60398 -2.0637434,0.0318 v -0.78316 h 4.9741508 v 0.78316 l -2.0637434,-0.0318 0.021167,6.60398 z m 5.7467317,0.14817 q -0.7302477,0 -1.2911626,-0.30692 -0.5503315,-0.3175 -0.8572472,-1.02658 -0.3069157,-0.71966 -0.3069157,-1.90499 0,-1.23825 0.317499,-1.93675 0.3280823,-0.69849 0.8784138,-0.98424 0.5503316,-0.29633 1.2382461,-0.29633 0.68791447,0 1.16416295,0.27516 0.48683179,0.27517 0.74083098,0.92075 0.25399917,0.635 0.25399917,1.71449 v 0.66675 h -4.063987 l 0.4127486,-0.15875 q -0.042333,0.6985 0.03175,1.12183 0.084666,0.41275 0.2010827,0.61383 0.1269996,0.20109 0.211666,0.28575 0.1481662,0.127 0.3598322,0.1905 0.211666,0.0635 0.5185817,0.0635 0.30691569,0 0.60324808,-0.0423 0.29633239,-0.0529 0.55033158,-0.11642 0.25399919,-0.0741 0.45508188,-0.13758 0.2010827,-0.0741 0.32808229,-0.10583 l 0.22224929,0.70908 q -0.0952497,0.0423 -0.37041548,0.15875 -0.27516579,0.10583 -0.68791448,0.20108 -0.40216539,0.0953 -0.91016376,0.0953 z m -1.5134119,-3.19616 -0.4127486,-0.381 3.56657193,-0.0741 -0.40216538,0.39158 q 0.0105833,-0.75141 -0.0317499,-1.29116 -0.0317499,-0.53975 -0.21166599,-0.8255 -0.0740831,-0.11641 -0.25399919,-0.21166 -0.1799161,-0.10584 -0.69849778,-0.10584 -0.53974829,0 -0.81491409,0.11642 -0.2645825,0.11642 -0.4127487,0.30692 -0.3915821,0.51858 -0.3280823,2.07432 z m 5.4609741,3.04799 v -7.96922 h 0.8784139 v 7.96922 z m 3.1220741,0 v -7.96922 h 0.8784139 v 7.96922 z m 5.2175676,0.14817 q -0.730248,0 -1.2911627,-0.30692 -0.5503316,-0.3175 -0.8572472,-1.02658 -0.3069157,-0.71966 -0.3069157,-1.90499 0,-1.23825 0.317499,-1.93675 0.3280822,-0.69849 0.8784136,-0.98424 0.550332,-0.29633 1.238246,-0.29633 0.687915,0 1.164163,0.27516 0.486832,0.27517 0.740831,0.92075 0.253999,0.635 0.253999,1.71449 v 0.66675 H 9.3349333 l 0.4127487,-0.15875 q -0.042333,0.6985 0.03175,1.12183 0.084666,0.41275 0.2010827,0.61383 0.1269994,0.20109 0.2116664,0.28575 0.148166,0.127 0.359832,0.1905 0.211666,0.0635 0.518581,0.0635 0.306916,0 0.603249,-0.0423 0.296332,-0.0529 0.550331,-0.11642 0.253999,-0.0741 0.455082,-0.13758 0.201083,-0.0741 0.328082,-0.10583 l 0.22225,0.70908 q -0.09525,0.0423 -0.370416,0.15875 -0.275166,0.10583 -0.687914,0.20108 -0.402166,0.0953 -0.910164,0.0953 z m -1.513412,-3.19616 -0.4127487,-0.381 3.5665717,-0.0741 -0.402165,0.39158 q 0.01058,-0.75141 -0.03175,-1.29116 -0.03175,-0.53975 -0.211666,-0.8255 -0.07408,-0.11641 -0.253999,-0.21166 -0.179916,-0.10584 -0.698498,-0.10584 -0.539748,0 -0.814914,0.11642 -0.264582,0.11642 -0.412749,0.30692 -0.3915818,0.51858 -0.328082,2.07432 z m 5.408057,3.04799 v -6.15948 h 0.560915 l 0.116416,0.62442 h 0.0635 q 0,0 0.158749,-0.11642 0.169333,-0.11642 0.433915,-0.26458 0.264583,-0.14817 0.560915,-0.26458 0.306916,-0.11642 0.571498,-0.11642 0.15875,0 0.296333,0.0317 0.137583,0.0212 0.137583,0.0212 l -0.07408,0.84666 q 0,0 -0.137583,-0.0106 -0.137583,-0.0106 -0.253999,-0.0106 -0.296333,0 -0.603249,0.0847 -0.296332,0.0847 -0.550331,0.21167 -0.253999,0.12699 -0.402165,0.24341 v 4.8789 z m 6.773314,0 v -6.15948 h 0.878414 v 6.15948 z m -0.09525,-7.20723 v -0.89958 H 22.9133 v 0.89958 z m 6.572228,7.20723 -2.635241,-3.32315 2.455325,-2.83633 h 1.132413 l -2.582325,2.77283 v 0.0529 l 2.772825,3.33374 z m -3.524238,0 0.05292,-3.39724 -0.05292,-4.57198 h 0.878413 v 7.96922 z m 9.048717,0 -2.635241,-3.32315 2.455325,-2.83633 h 1.132413 l -2.582325,2.77283 v 0.0529 l 2.772825,3.33374 z m -3.524239,0 0.05292,-3.39724 -0.05292,-4.57198 h 0.878414 v 7.96922 z m 7.577628,0.14817 q -0.730248,0 -1.291163,-0.30692 -0.550331,-0.3175 -0.857247,-1.02658 -0.306916,-0.71966 -0.306916,-1.90499 0,-1.23825 0.317499,-1.93675 0.328083,-0.69849 0.878414,-0.98424 0.550332,-0.29633 1.238246,-0.29633 0.687915,0 1.164163,0.27516 0.486832,0.27517 0.740831,0.92075 0.253999,0.635 0.253999,1.71449 v 0.66675 h -4.063987 l 0.412749,-0.15875 q -0.04233,0.6985 0.03175,1.12183 0.08467,0.41275 0.201083,0.61383 0.126999,0.20109 0.211666,0.28575 0.148166,0.127 0.359832,0.1905 0.211666,0.0635 0.518582,0.0635 0.306915,0 0.603248,-0.0423 0.296332,-0.0529 0.550331,-0.11642 0.253999,-0.0741 0.455082,-0.13758 0.201083,-0.0741 0.328082,-0.10583 l 0.22225,0.70908 q -0.09525,0.0423 -0.370416,0.15875 -0.275166,0.10583 -0.687914,0.20108 -0.402166,0.0953 -0.910164,0.0953 z m -1.513412,-3.19616 -0.412749,-0.381 3.566572,-0.0741 -0.402165,0.39158 q 0.01058,-0.75141 -0.03175,-1.29116 -0.03175,-0.53975 -0.211666,-0.8255 -0.07408,-0.11641 -0.253999,-0.21166 -0.179916,-0.10584 -0.698498,-0.10584 -0.539748,0 -0.814914,0.11642 -0.264582,0.11642 -0.412749,0.30692 -0.391582,0.51858 -0.328082,2.07432 z"
         id="path5" />
      <path
         style="text-align:start;text-anchor:start"
         d="m -7.7676718,124.54863 v -6.15948 h 0.5926648 l 0.09525,0.60325 h 0.042333 q 0.09525,-0.0529 0.317499,-0.16933 0.2222493,-0.127 0.5185817,-0.254 0.2963324,-0.13759 0.6244146,-0.22225 0.3280823,-0.0952 0.6455813,-0.0952 0.4550819,0 0.7831642,0.21166 0.3386656,0.21167 0.4762485,0.58209 0.4444986,-0.27517 0.9842468,-0.52917 0.5503316,-0.26458 1.164163,-0.26458 0.57149818,0 0.88899717,0.27516 0.31749899,0.27517 0.44449859,0.78317 0.12699959,0.49741 0.12699959,1.18533 v 4.0534 h -0.87841387 v -3.75707 q 0,-0.49741 -0.0211666,-0.889 -0.0211666,-0.39158 -0.13758288,-0.5715 -0.105833,-0.16933 -0.2963324,-0.20108 -0.1799161,-0.0423 -0.2963324,-0.0423 -0.2857491,0 -0.5926648,0.0847 -0.2963324,0.0741 -0.5609149,0.19049 -0.2645824,0.10584 -0.4444985,0.20109 -0.1693328,0.0952 -0.2222493,0.127 0.021167,0.16933 0.03175,0.35983 0.010583,0.1905 0.010583,0.40216 v 4.09574 H -4.349266 v -3.78882 q 0,-0.60325 -0.03175,-0.93133 -0.021167,-0.32808 -0.1375829,-0.508 -0.105833,-0.14816 -0.2645825,-0.1905 -0.1587495,-0.0423 -0.3069157,-0.0423 -0.3598322,0 -0.7196643,0.11642 -0.3598322,0.10583 -0.6455813,0.24341 -0.2857491,0.127 -0.4339153,0.1905 v 4.91065 z m 11.6839606,0.13758 q -0.8784138,0 -1.3864122,-0.39158 -0.4974151,-0.39158 -0.7090811,-1.11124 -0.211666,-0.71967 -0.211666,-1.7145 0,-0.99483 0.211666,-1.71449 0.211666,-0.71967 0.7090811,-1.11125 0.5079984,-0.39158 1.3864122,-0.39158 0.8784139,0 1.375829,0.39158 0.5079984,0.39158 0.7196644,1.11125 0.2116659,0.71966 0.2116659,1.71449 0,0.99483 -0.2116659,1.7145 -0.211666,0.71966 -0.7196644,1.11124 -0.4974151,0.39158 -1.375829,0.39158 z m 0,-0.76199 q 0.4021654,0 0.6667479,-0.0953 0.2751658,-0.0952 0.4339153,-0.34925 0.1693328,-0.254 0.2328326,-0.74083 0.074083,-0.48683 0.074083,-1.27 0,-0.78316 -0.074083,-1.26999 -0.0635,-0.48684 -0.2328326,-0.74084 -0.1587495,-0.26458 -0.4339153,-0.34924 -0.2645825,-0.0952 -0.6667479,-0.0952 -0.4021654,0 -0.6773312,0.0952 -0.2645824,0.0847 -0.4339152,0.34924 -0.1587495,0.254 -0.2328326,0.74084 -0.074083,0.48683 -0.074083,1.26999 0,0.78317 0.074083,1.27 0.074083,0.48683 0.2328326,0.74083 0.1693328,0.254 0.4339152,0.34925 0.2751658,0.0953 0.6773312,0.0953 z m 5.725568,0.77258 q -0.4550818,0 -0.7937474,-0.14817 -0.3386656,-0.15875 -0.529165,-0.59266 -0.1799161,-0.4445 -0.1799161,-1.31233 V 119.4369 H 7.4405305 v -0.55033 l 0.7302477,-0.14817 0.2328326,-1.43933 h 0.6138314 v 1.44991 h 1.2276628 v 0.70908 H 9.0174422 v 3.24908 q 0,0.58208 0.03175,0.84666 0.03175,0.26458 0.1587495,0.33867 0.1375829,0.0635 0.4550818,0.0635 0.1693328,0 0.2963324,0 0.1269992,-0.0106 0.2010832,-0.0106 0.07408,-0.0106 0.07408,-0.0106 v 0.70908 q 0,0 -0.15875,0.0212 -0.1587494,0.0318 -0.4339152,0.0318 z m 4.5296522,-0.14817 v -0.762 l 1.767411,0.0212 0.07408,-5.81023 h -0.05292 l -1.555745,1.64041 -0.592665,-0.5715 2.074327,-1.94732 0.952497,0.0741 v 6.61456 l 1.555745,-0.0212 v 0.762 z m 7.577644,0.13758 q -0.507999,0 -0.941914,-0.16933 -0.433915,-0.16933 -0.761997,-0.58208 -0.317499,-0.42333 -0.507999,-1.16416 -0.179916,-0.75142 -0.179916,-1.91558 0,-1.15358 0.179916,-1.89441 0.1905,-0.74083 0.507999,-1.15358 0.328082,-0.42333 0.761997,-0.58208 0.433915,-0.16933 0.941914,-0.16933 0.507998,0 0.941914,0.16933 0.433915,0.15875 0.761997,0.58208 0.328082,0.41275 0.507998,1.15358 0.179917,0.74083 0.179917,1.89441 0,1.16416 -0.179917,1.91558 -0.179916,0.74083 -0.507998,1.16416 -0.328082,0.41275 -0.761997,0.58208 -0.433916,0.16933 -0.941914,0.16933 z m 0.01058,-0.80433 q 0.486832,0 0.804331,-0.24341 0.328082,-0.254 0.497415,-0.91017 0.169333,-0.65616 0.169333,-1.87324 0,-0.94191 -0.105833,-1.53458 -0.09525,-0.59266 -0.285749,-0.91016 -0.1905,-0.3175 -0.465665,-0.43392 -0.275166,-0.127 -0.624415,-0.127 -0.349249,0 -0.624415,0.11642 -0.275166,0.11642 -0.465665,0.43391 -0.190499,0.3175 -0.285749,0.91017 -0.09525,0.58208 -0.09525,1.52399 0,1.21708 0.15875,1.88383 0.169332,0.65617 0.497415,0.91016 0.338665,0.254 0.825497,0.254 z m 5.005903,0.762 1.968494,-4.13807 1.650995,-3.71474 h 0.783164 l -1.873244,4.04282 -1.735661,3.80999 z m 0.15875,-4.40265 q -0.391582,0 -0.761998,-0.15875 -0.359832,-0.15875 -0.592664,-0.508 -0.232833,-0.34925 -0.232833,-0.93133 0,-0.58208 0.232833,-0.92075 0.232832,-0.34925 0.592664,-0.49741 0.370416,-0.15875 0.761998,-0.15875 0.391582,0 0.751414,0.15875 0.370416,0.14816 0.603248,0.49741 0.232833,0.33867 0.232833,0.92075 0,0.58208 -0.232833,0.93133 -0.232832,0.34925 -0.603248,0.508 -0.359832,0.15875 -0.751414,0.15875 z m 0,-0.70908 q 0.370415,0 0.603248,-0.1905 0.243416,-0.1905 0.243416,-0.6985 0,-0.49741 -0.243416,-0.67733 -0.232833,-0.1905 -0.603248,-0.1905 -0.370416,0 -0.613832,0.1905 -0.232832,0.17992 -0.232832,0.67733 0,0.508 0.232832,0.6985 0.243416,0.1905 0.613832,0.1905 z m 4.159237,5.09056 q -0.402166,0 -0.772581,-0.15874 -0.359832,-0.15875 -0.592665,-0.508 -0.232833,-0.34925 -0.232833,-0.93133 0,-0.58208 0.232833,-0.92075 0.232833,-0.34925 0.592665,-0.49742 0.370415,-0.15875 0.772581,-0.15875 0.391582,0 0.751414,0.15875 0.370415,0.14817 0.603248,0.49742 0.232833,0.33867 0.232833,0.92075 0,0.58208 -0.232833,0.93133 -0.232833,0.34925 -0.603248,0.508 -0.359832,0.15874 -0.751414,0.15874 z m 0,-0.70908 q 0.370415,0 0.603248,-0.1905 0.232832,-0.1905 0.232832,-0.69849 0,-0.49742 -0.232832,-0.67733 -0.232833,-0.1905 -0.603248,-0.1905 -0.380999,0 -0.613832,0.1905 -0.232832,0.17991 -0.232832,0.67733 0,0.50799 0.232832,0.69849 0.232833,0.1905 0.613832,0.1905 z"
         id="path6" />
    </g>
    <g
       id="text11-1"
       style="font-size:10.5833px;line-height:1;font-family:Ruda;-inkscape-font-specification:Ruda;text-align:center;letter-spacing:0px;text-anchor:middle;fill:#fb882d;stroke-width:0.352777;stroke-linecap:round;stroke-dasharray:1, 2;paint-order:fill markers stroke"
       aria-label="Teller muligens&#10;mot 10%">
      <path
         style="text-align:start;text-anchor:start"
         d="m 103.54665,113.84528 0.0212,-6.60398 -2.06374,0.0318 v -0.78316 h 4.97415 v 0.78316 l -2.06375,-0.0318 0.0212,6.60398 z m 5.74674,0.14817 q -0.73025,0 -1.29117,-0.30692 -0.55033,-0.31749 -0.85724,-1.02658 -0.30692,-0.71966 -0.30692,-1.90499 0,-1.23825 0.3175,-1.93674 0.32808,-0.6985 0.87841,-0.98425 0.55033,-0.29633 1.23825,-0.29633 0.68791,0 1.16416,0.27516 0.48683,0.27517 0.74083,0.92075 0.254,0.635 0.254,1.71449 v 0.66675 h -4.06399 l 0.41275,-0.15875 q -0.0423,0.6985 0.0317,1.12183 0.0847,0.41275 0.20109,0.61383 0.127,0.20109 0.21166,0.28575 0.14817,0.127 0.35983,0.1905 0.21167,0.0635 0.51859,0.0635 0.30691,0 0.60324,-0.0423 0.29634,-0.0529 0.55034,-0.11642 0.25399,-0.0741 0.45508,-0.13758 0.20108,-0.0741 0.32808,-0.10583 l 0.22225,0.70908 q -0.0953,0.0423 -0.37042,0.15875 -0.27516,0.10583 -0.68791,0.20108 -0.40217,0.0952 -0.91016,0.0952 z m -1.51342,-3.19616 -0.41275,-0.381 3.56658,-0.0741 -0.40217,0.39158 q 0.0106,-0.75141 -0.0318,-1.29116 -0.0318,-0.53975 -0.21166,-0.8255 -0.0741,-0.11641 -0.254,-0.21166 -0.17992,-0.10584 -0.6985,-0.10584 -0.53975,0 -0.81492,0.11642 -0.26458,0.11642 -0.41274,0.30692 -0.39159,0.51858 -0.32809,2.07432 z m 5.46098,3.04799 v -7.96922 h 0.87841 v 7.96922 z m 3.12207,0 v -7.96922 h 0.87842 v 7.96922 z m 5.21757,0.14817 q -0.73025,0 -1.29116,-0.30692 -0.55034,-0.31749 -0.85725,-1.02658 -0.30692,-0.71966 -0.30692,-1.90499 0,-1.23825 0.3175,-1.93674 0.32808,-0.6985 0.87842,-0.98425 0.55033,-0.29633 1.23824,-0.29633 0.68792,0 1.16417,0.27516 0.48683,0.27517 0.74083,0.92075 0.254,0.635 0.254,1.71449 v 0.66675 h -4.06399 l 0.41275,-0.15875 q -0.0423,0.6985 0.0318,1.12183 0.0847,0.41275 0.20108,0.61383 0.127,0.20109 0.21167,0.28575 0.14816,0.127 0.35983,0.1905 0.21166,0.0635 0.51858,0.0635 0.30692,0 0.60325,-0.0423 0.29633,-0.0529 0.55033,-0.11642 0.254,-0.0741 0.45508,-0.13758 0.20108,-0.0741 0.32808,-0.10583 l 0.22225,0.70908 q -0.0953,0.0423 -0.37041,0.15875 -0.27517,0.10583 -0.68792,0.20108 -0.40216,0.0952 -0.91016,0.0952 z m -1.51341,-3.19616 -0.41275,-0.381 3.56657,-0.0741 -0.40216,0.39158 q 0.0106,-0.75141 -0.0317,-1.29116 -0.0318,-0.53975 -0.21167,-0.8255 -0.0741,-0.11641 -0.254,-0.21166 -0.17992,-0.10584 -0.6985,-0.10584 -0.53975,0 -0.81491,0.11642 -0.26458,0.11642 -0.41275,0.30692 -0.39158,0.51858 -0.32808,2.07432 z m 5.40805,3.04799 v -6.15948 h 0.56092 l 0.11642,0.62442 h 0.0635 q 0,0 0.15875,-0.11642 0.16934,-0.11641 0.43392,-0.26458 0.26458,-0.14817 0.56091,-0.26458 0.30692,-0.11642 0.5715,-0.11642 0.15875,0 0.29634,0.0318 0.13758,0.0212 0.13758,0.0212 l -0.0741,0.84666 q 0,0 -0.13758,-0.0106 -0.13758,-0.0106 -0.254,-0.0106 -0.29633,0 -0.60325,0.0847 -0.29633,0.0847 -0.55033,0.21167 -0.254,0.127 -0.40216,0.24341 v 4.8789 z m 6.7204,0 v -6.15948 h 0.59267 l 0.0953,0.60325 h 0.0423 q 0.0952,-0.0529 0.3175,-0.16933 0.22225,-0.127 0.51858,-0.254 0.29633,-0.13758 0.62441,-0.22225 0.32809,-0.0952 0.64559,-0.0952 0.45508,0 0.78316,0.21167 0.33867,0.21166 0.47625,0.58208 0.4445,-0.27517 0.98425,-0.52917 0.55033,-0.26458 1.16416,-0.26458 0.5715,0 0.889,0.27517 0.31749,0.27516 0.44449,0.78316 0.127,0.49742 0.127,1.18533 v 4.0534 h -0.87841 v -3.75707 q 0,-0.49741 -0.0212,-0.889 -0.0212,-0.39158 -0.13758,-0.57149 -0.10583,-0.16934 -0.29633,-0.20109 -0.17992,-0.0423 -0.29633,-0.0423 -0.28575,0 -0.59267,0.0847 -0.29633,0.0741 -0.56091,0.1905 -0.26459,0.10583 -0.4445,0.20108 -0.16934,0.0952 -0.22225,0.127 0.0212,0.16933 0.0317,0.35983 0.0106,0.1905 0.0106,0.40217 v 4.09573 h -0.87841 v -3.78882 q 0,-0.60325 -0.0317,-0.93133 -0.0212,-0.32808 -0.13759,-0.508 -0.10583,-0.14816 -0.26458,-0.1905 -0.15875,-0.0423 -0.30691,-0.0423 -0.35984,0 -0.71967,0.11642 -0.35983,0.10583 -0.64558,0.24341 -0.28575,0.127 -0.43391,0.1905 v 4.91065 z m 11.11246,0.13759 q -0.42333,0 -0.78316,-0.20109 -0.34925,-0.21166 -0.56092,-0.68791 -0.20108,-0.47625 -0.20108,-1.31233 v -4.09574 h 0.87841 v 3.76766 q 0,0.58208 0.0317,0.95249 0.0317,0.37042 0.11642,0.51859 0.0741,0.11641 0.23283,0.16933 0.16934,0.0529 0.381,0.0529 0.47625,0 0.94192,-0.17992 0.47624,-0.1905 0.88899,-0.381 v -4.90007 h 0.87842 v 6.15948 H 145.52 l -0.10583,-0.59266 h -0.0635 q -0.15875,0.0847 -0.47625,0.26458 -0.3175,0.16933 -0.71966,0.3175 -0.40217,0.14817 -0.84667,0.14817 z m 4.99533,-0.13759 v -7.96922 h 0.87841 v 7.96922 z m 3.12207,0 v -6.15948 h 0.87841 v 6.15948 z m -0.0952,-7.20722 v -0.89958 h 1.07949 v 0.89958 z m 4.77307,9.10163 q -0.42333,0 -0.79375,-0.0423 -0.37041,-0.0423 -0.64558,-0.10583 -0.27516,-0.0529 -0.43391,-0.0953 -0.15875,-0.0423 -0.15875,-0.0423 l 0.10583,-0.79375 q 0.59266,0.10583 1.21708,0.17991 0.62441,0.0847 1.2065,0.0847 0.59266,0 0.79374,-0.0952 0.20109,-0.0953 0.20109,-0.29633 0,-0.11642 -0.0529,-0.21167 -0.0529,-0.0952 -0.1905,-0.20108 -0.13758,-0.0953 -0.40217,-0.22225 -0.26458,-0.127 -0.69849,-0.30692 -0.60325,-0.25399 -0.87842,-0.35983 -0.26458,-0.11641 -0.33866,-0.14816 -0.0635,-0.0423 -0.0635,-0.0741 0,-0.0106 0.0529,-0.13758 0.0529,-0.13758 0.13759,-0.32808 0.0847,-0.1905 0.16933,-0.39158 0.0847,-0.21167 0.14817,-0.35984 -0.6985,-0.13758 -1.13242,-0.67733 -0.42333,-0.53975 -0.42333,-1.31233 0,-0.86783 0.33867,-1.35466 0.33866,-0.48683 0.88899,-0.68791 0.56092,-0.21167 1.2065,-0.21167 0.21167,0 0.49741,0.0106 0.29634,0.0106 0.59267,0.0317 0.30692,0.0212 0.56091,0.0423 0.26459,0.0212 0.42334,0.0318 0.15875,0.0106 0.15875,0.0106 v 0.56091 l -0.6985,0.10584 q 0,-0.0106 0.0847,0.22225 0.0952,0.22225 0.17992,0.56091 0.0952,0.32808 0.0952,0.64558 0,0.60325 -0.26458,1.0795 -0.26458,0.46566 -0.762,0.74083 -0.49742,0.26458 -1.19591,0.26458 -0.0318,0.16934 -0.0741,0.40217 -0.0423,0.22225 -0.0423,0.26458 0,0.0212 0.0635,0.0635 0.0741,0.0318 0.27517,0.11642 0.21166,0.0741 0.61383,0.254 0.61383,0.254 0.94191,0.49741 0.32808,0.24342 0.45508,0.47625 0.127,0.23283 0.127,0.46567 0,0.42333 -0.29633,0.71966 -0.28575,0.30692 -0.80433,0.46566 -0.508,0.15875 -1.18533,0.15875 z m -0.0212,-4.64606 q 0.47625,0 0.762,-0.11642 0.29633,-0.11642 0.42333,-0.40217 0.13759,-0.29633 0.13759,-0.82549 0,-0.60325 -0.0741,-0.96308 -0.0741,-0.37042 -0.13758,-0.40217 -0.0212,-0.0212 -0.17992,-0.0318 -0.15875,-0.0212 -0.34924,-0.0212 -0.1905,-0.0106 -0.33867,-0.0106 -0.13758,-0.0106 -0.13758,-0.0106 -0.49742,0 -0.81492,0.11641 -0.30691,0.11642 -0.45508,0.42334 -0.13758,0.30691 -0.13758,0.89958 0,0.78316 0.29633,1.06891 0.30692,0.27517 1.00541,0.27517 z m 6.07482,2.89982 q -0.73025,0 -1.29117,-0.30692 -0.55033,-0.31749 -0.85724,-1.02658 -0.30692,-0.71966 -0.30692,-1.90499 0,-1.23825 0.3175,-1.93674 0.32808,-0.6985 0.87841,-0.98425 0.55033,-0.29633 1.23825,-0.29633 0.68791,0 1.16416,0.27516 0.48683,0.27517 0.74083,0.92075 0.254,0.635 0.254,1.71449 v 0.66675 h -4.06399 l 0.41275,-0.15875 q -0.0423,0.6985 0.0317,1.12183 0.0847,0.41275 0.20109,0.61383 0.127,0.20109 0.21166,0.28575 0.14817,0.127 0.35983,0.1905 0.21167,0.0635 0.51859,0.0635 0.30691,0 0.60324,-0.0423 0.29634,-0.0529 0.55034,-0.11642 0.25399,-0.0741 0.45508,-0.13758 0.20108,-0.0741 0.32808,-0.10583 l 0.22225,0.70908 q -0.0952,0.0423 -0.37042,0.15875 -0.27516,0.10583 -0.68791,0.20108 -0.40217,0.0952 -0.91016,0.0952 z m -1.51342,-3.19616 -0.41275,-0.381 3.56658,-0.0741 -0.40217,0.39158 q 0.0106,-0.75141 -0.0317,-1.29116 -0.0317,-0.53975 -0.21166,-0.8255 -0.0741,-0.11641 -0.254,-0.21166 -0.17992,-0.10584 -0.6985,-0.10584 -0.53975,0 -0.81492,0.11642 -0.26458,0.11642 -0.41274,0.30692 -0.39159,0.51858 -0.32809,2.07432 z m 5.40806,3.04799 v -6.15948 h 0.59267 l 0.0952,0.60325 h 0.0529 q 0.0952,-0.0529 0.3175,-0.16933 0.22225,-0.127 0.52917,-0.254 0.30691,-0.13758 0.65616,-0.22225 0.34925,-0.0952 0.6985,-0.0952 0.58208,0 0.889,0.29633 0.30691,0.28575 0.41275,0.78317 0.11641,0.49741 0.11641,1.12183 v 4.09573 h -0.87841 v -3.78882 q 0,-0.62441 -0.0212,-0.95249 -0.0212,-0.32809 -0.13758,-0.49742 -0.0847,-0.13758 -0.24342,-0.17992 -0.15875,-0.0423 -0.33866,-0.0423 -0.381,0 -0.78317,0.127 -0.39158,0.11642 -0.68791,0.254 -0.29633,0.127 -0.39158,0.17992 v 4.90006 z m 7.88455,0.13759 q -0.39158,0 -0.75141,-0.0847 -0.35983,-0.0741 -0.64558,-0.16933 -0.28575,-0.10584 -0.45508,-0.17992 -0.15875,-0.0741 -0.15875,-0.0741 l 0.22225,-0.75142 q 0,0 0.15875,0.0741 0.16933,0.0741 0.4445,0.17991 0.27516,0.0952 0.62441,0.16934 0.34925,0.0741 0.71966,0.0741 0.21167,0 0.39159,-0.0318 0.17991,-0.0423 0.28575,-0.13758 0.11641,-0.10584 0.21166,-0.3175 0.0952,-0.21167 0.0952,-0.508 0,-0.4445 -0.21166,-0.67733 -0.21167,-0.23284 -0.55034,-0.35983 -0.33866,-0.127 -0.71966,-0.23284 -0.30692,-0.0847 -0.60325,-0.1905 -0.29633,-0.10583 -0.53975,-0.28575 -0.23283,-0.17991 -0.381,-0.47624 -0.13758,-0.30692 -0.13758,-0.78317 0,-0.75141 0.45508,-1.20649 0.46567,-0.46567 1.55575,-0.46567 0.37041,0 0.70908,0.0529 0.33866,0.0423 0.59266,0.10583 0.26459,0.0529 0.39159,0.0953 l -0.13759,0.74083 q 0,0 -0.14816,-0.0317 -0.13759,-0.0423 -0.381,-0.0847 -0.24342,-0.0423 -0.55033,-0.0741 -0.30692,-0.0423 -0.64558,-0.0423 -0.3175,0 -0.508,0.0423 -0.1905,0.0318 -0.28575,0.10583 -0.0952,0.0741 -0.15875,0.24342 -0.0635,0.15875 -0.0635,0.381 0,0.4445 0.24341,0.66675 0.254,0.22225 0.635,0.33866 0.39158,0.11642 0.80433,0.24342 0.28575,0.0847 0.55033,0.20108 0.26459,0.11642 0.47625,0.30692 0.22225,0.1905 0.33867,0.48683 0.127,0.29633 0.127,0.73025 0,0.85724 -0.51858,1.39699 -0.508,0.52917 -1.48167,0.52917 z"
         id="path3" />
      <path
         style="text-align:start;text-anchor:start"
         d="m 102.55182,124.42858 v -6.15948 h 0.59267 l 0.0952,0.60325 h 0.0423 q 0.0952,-0.0529 0.3175,-0.16933 0.22225,-0.127 0.51858,-0.254 0.29633,-0.13758 0.62442,-0.22225 0.32808,-0.0953 0.64558,-0.0953 0.45508,0 0.78316,0.21167 0.33867,0.21166 0.47625,0.58208 0.4445,-0.27517 0.98425,-0.52917 0.55033,-0.26458 1.16416,-0.26458 0.5715,0 0.889,0.27517 0.3175,0.27516 0.4445,0.78316 0.127,0.49741 0.127,1.18533 v 4.0534 h -0.87842 v -3.75707 q 0,-0.49741 -0.0212,-0.889 -0.0212,-0.39158 -0.13759,-0.57149 -0.10583,-0.16934 -0.29633,-0.20109 -0.17992,-0.0423 -0.29633,-0.0423 -0.28575,0 -0.59267,0.0847 -0.29633,0.0741 -0.56091,0.1905 -0.26458,0.10583 -0.4445,0.20108 -0.16933,0.0953 -0.22225,0.127 0.0212,0.16933 0.0318,0.35983 0.0106,0.1905 0.0106,0.40217 v 4.09573 h -0.87841 v -3.78882 q 0,-0.60325 -0.0318,-0.93133 -0.0212,-0.32808 -0.13758,-0.508 -0.10584,-0.14816 -0.26459,-0.1905 -0.15875,-0.0423 -0.30691,-0.0423 -0.35983,0 -0.71967,0.11642 -0.35983,0.10583 -0.64558,0.24341 -0.28575,0.127 -0.43391,0.1905 v 4.91065 z m 11.68396,0.13759 q -0.87841,0 -1.38641,-0.39159 -0.49741,-0.39158 -0.70908,-1.11124 -0.21167,-0.71967 -0.21167,-1.7145 0,-0.99483 0.21167,-1.71449 0.21167,-0.71967 0.70908,-1.11125 0.508,-0.39158 1.38641,-0.39158 0.87842,0 1.37583,0.39158 0.508,0.39158 0.71967,1.11125 0.21166,0.71966 0.21166,1.71449 0,0.99483 -0.21166,1.7145 -0.21167,0.71966 -0.71967,1.11124 -0.49741,0.39159 -1.37583,0.39159 z m 0,-0.762 q 0.40217,0 0.66675,-0.0952 0.27517,-0.0953 0.43392,-0.34925 0.16933,-0.254 0.23283,-0.74083 0.0741,-0.48683 0.0741,-1.27 0,-0.78316 -0.0741,-1.26999 -0.0635,-0.48683 -0.23283,-0.74083 -0.15875,-0.26459 -0.43392,-0.34925 -0.26458,-0.0953 -0.66675,-0.0953 -0.40216,0 -0.67733,0.0953 -0.26458,0.0847 -0.43391,0.34925 -0.15875,0.254 -0.23284,0.74083 -0.0741,0.48683 -0.0741,1.26999 0,0.78317 0.0741,1.27 0.0741,0.48683 0.23284,0.74083 0.16933,0.254 0.43391,0.34925 0.27517,0.0952 0.67733,0.0952 z m 5.72557,0.77258 q -0.45508,0 -0.79375,-0.14817 -0.33866,-0.15875 -0.52916,-0.59266 -0.17992,-0.4445 -0.17992,-1.31233 v -3.20674 h -0.69849 v -0.55033 l 0.73024,-0.14817 0.23284,-1.43933 h 0.61383 v 1.44991 h 1.22766 v 0.70909 h -1.22766 v 3.24907 q 0,0.58208 0.0318,0.84666 0.0318,0.26459 0.15875,0.33867 0.13758,0.0635 0.45508,0.0635 0.16933,0 0.29633,0 0.127,-0.0106 0.20108,-0.0106 0.0741,-0.0106 0.0741,-0.0106 v 0.70908 q 0,0 -0.15875,0.0212 -0.15875,0.0318 -0.43392,0.0318 z m 4.52965,-0.14817 v -0.76199 l 1.76742,0.0212 0.0741,-5.81023 h -0.0529 l -1.55574,1.64041 -0.59267,-0.5715 2.07433,-1.94732 0.9525,0.0741 v 6.61456 l 1.55574,-0.0212 v 0.76199 z m 7.57765,0.13759 q -0.508,0 -0.94192,-0.16934 -0.43391,-0.16933 -0.76199,-0.58208 -0.3175,-0.42333 -0.508,-1.16416 -0.17992,-0.75142 -0.17992,-1.91558 0,-1.15358 0.17992,-1.89441 0.1905,-0.74083 0.508,-1.15358 0.32808,-0.42333 0.76199,-0.58208 0.43392,-0.16933 0.94192,-0.16933 0.508,0 0.94191,0.16933 0.43392,0.15875 0.762,0.58208 0.32808,0.41275 0.508,1.15358 0.17991,0.74083 0.17991,1.89441 0,1.16416 -0.17991,1.91558 -0.17992,0.74083 -0.508,1.16416 -0.32808,0.41275 -0.762,0.58208 -0.43391,0.16934 -0.94191,0.16934 z m 0.0106,-0.80433 q 0.48683,0 0.80433,-0.24342 0.32808,-0.254 0.49742,-0.91016 0.16933,-0.65617 0.16933,-1.87325 0,-0.94191 -0.10583,-1.53458 -0.0952,-0.59266 -0.28575,-0.91016 -0.1905,-0.3175 -0.46567,-0.43392 -0.27516,-0.127 -0.62441,-0.127 -0.34925,0 -0.62442,0.11642 -0.27516,0.11642 -0.46566,0.43392 -0.1905,0.3175 -0.28575,0.91016 -0.0953,0.58208 -0.0953,1.52399 0,1.21708 0.15875,1.88383 0.16933,0.65617 0.49741,0.91017 0.33867,0.254 0.8255,0.254 z m 5.0059,0.76199 1.9685,-4.13807 1.65099,-3.71474 h 0.78317 l -1.87325,4.04282 -1.73566,3.80999 z m 0.15875,-4.40265 q -0.39158,0 -0.76199,-0.15875 -0.35984,-0.15875 -0.59267,-0.508 -0.23283,-0.34925 -0.23283,-0.93133 0,-0.58208 0.23283,-0.92075 0.23283,-0.34924 0.59267,-0.49741 0.37041,-0.15875 0.76199,-0.15875 0.39159,0 0.75142,0.15875 0.37041,0.14817 0.60325,0.49741 0.23283,0.33867 0.23283,0.92075 0,0.58208 -0.23283,0.93133 -0.23284,0.34925 -0.60325,0.508 -0.35983,0.15875 -0.75142,0.15875 z m 0,-0.70908 q 0.37042,0 0.60325,-0.1905 0.24342,-0.1905 0.24342,-0.6985 0,-0.49741 -0.24342,-0.67733 -0.23283,-0.1905 -0.60325,-0.1905 -0.37041,0 -0.61383,0.1905 -0.23283,0.17992 -0.23283,0.67733 0,0.508 0.23283,0.6985 0.24342,0.1905 0.61383,0.1905 z m 4.15924,5.09057 q -0.40216,0 -0.77258,-0.15875 -0.35983,-0.15875 -0.59266,-0.508 -0.23284,-0.34925 -0.23284,-0.93133 0,-0.58208 0.23284,-0.92075 0.23283,-0.34925 0.59266,-0.49741 0.37042,-0.15875 0.77258,-0.15875 0.39158,0 0.75142,0.15875 0.37041,0.14816 0.60324,0.49741 0.23284,0.33867 0.23284,0.92075 0,0.58208 -0.23284,0.93133 -0.23283,0.34925 -0.60324,0.508 -0.35984,0.15875 -0.75142,0.15875 z m 0,-0.70908 q 0.37042,0 0.60325,-0.1905 0.23283,-0.1905 0.23283,-0.6985 0,-0.49742 -0.23283,-0.67733 -0.23283,-0.1905 -0.60325,-0.1905 -0.381,0 -0.61383,0.1905 -0.23283,0.17991 -0.23283,0.67733 0,0.508 0.23283,0.6985 0.23283,0.1905 0.61383,0.1905 z"
         id="path4" />
    </g>
    <path
       style="baseline-shift:baseline;display:inline;overflow:visible;vector-effect:none;fill:#d0e46c;stroke-linecap:round;stroke-dasharray:5.29167, 5.29167;paint-order:fill markers stroke;enable-background:accumulate;stop-color:#000000;stop-opacity:1;opacity:1"
       d="m -13.757813,100.4668 a 0.52916503,0.52916503 0 0 0 -0.529296,0.52929 v 1.77344 a 0.52916503,0.52916503 0 0 0 0.529296,0.52735 0.52916503,0.52916503 0 0 0 0.529297,-0.52735 v -1.24414 h 4.7617191 a 0.52916503,0.52916503 0 0 0 0.5292969,-0.5293 0.52916503,0.52916503 0 0 0 -0.5292969,-0.52929 z m 10.5820317,0 a 0.52916503,0.52916503 0 0 0 -0.5292968,0.52929 0.52916503,0.52916503 0 0 0 0.5292968,0.5293 h 5.2929688 a 0.52916503,0.52916503 0 0 0 0.5292969,-0.5293 0.52916503,0.52916503 0 0 0 -0.5292969,-0.52929 z m 10.5839844,0 a 0.52916503,0.52916503 0 0 0 -0.5292969,0.52929 0.52916503,0.52916503 0 0 0 0.5292969,0.5293 h 5.2910159 a 0.52916503,0.52916503 0 0 0 0.529297,-0.5293 0.52916503,0.52916503 0 0 0 -0.529297,-0.52929 z m 10.5839839,0 a 0.52916503,0.52916503 0 0 0 -0.529296,0.52929 0.52916503,0.52916503 0 0 0 0.529296,0.5293 h 5.291016 a 0.52916503,0.52916503 0 0 0 0.529297,-0.5293 0.52916503,0.52916503 0 0 0 -0.529297,-0.52929 z m 10.582032,0 a 0.52916503,0.52916503 0 0 0 -0.529297,0.52929 0.52916503,0.52916503 0 0 0 0.529297,0.5293 h 5.292968 a 0.52916503,0.52916503 0 0 0 0.529297,-0.5293 0.52916503,0.52916503 0 0 0 -0.529297,-0.52929 z m 10.583984,0 a 0.52916503,0.52916503 0 0 0 -0.529297,0.52929 0.52916503,0.52916503 0 0 0 0.529297,0.5293 h 5.291016 a 0.52916503,0.52916503 0 0 0 0.529297,-0.5293 0.52916503,0.52916503 0 0 0 -0.529297,-0.52929 z m 10.583984,0 a 0.52916503,0.52916503 0 0 0 -0.529296,0.52929 0.52916503,0.52916503 0 0 0 0.529296,0.5293 h 5.291016 a 0.52916503,0.52916503 0 0 0 0.529297,-0.5293 0.52916503,0.52916503 0 0 0 -0.529297,-0.52929 z m 10.582032,0 a 0.52916503,0.52916503 0 0 0 -0.527344,0.52929 0.52916503,0.52916503 0 0 0 0.527344,0.5293 h 5.292968 a 0.52916503,0.52916503 0 0 0 0.529297,-0.5293 0.52916503,0.52916503 0 0 0 -0.529297,-0.52929 z m 10.583984,0 a 0.52916503,0.52916503 0 0 0 -0.529297,0.52929 0.52916503,0.52916503 0 0 0 0.529297,0.5293 h 5.291016 a 0.52916503,0.52916503 0 0 0 0.529297,-0.5293 0.52916503,0.52916503 0 0 0 -0.529297,-0.52929 z m 10.583984,0 a 0.52916503,0.52916503 0 0 0 -0.529296,0.52929 0.52916503,0.52916503 0 0 0 0.529296,0.5293 h 4.701172 a 0.52916503,0.52916503 0 0 0 0.294922,0.29492 0.52916503,0.52916503 0 0 0 0.529297,-0.52929 v -0.82422 z m 4.996094,5.58789 a 0.52916503,0.52916503 0 0 0 -0.529297,0.52929 v 5.29102 a 0.52916503,0.52916503 0 0 0 0.529297,0.5293 0.52916503,0.52916503 0 0 0 0.529297,-0.5293 v -5.29102 a 0.52916503,0.52916503 0 0 0 -0.529297,-0.52929 z m -100.246094,1.47656 a 0.52916503,0.52916503 0 0 0 -0.529296,0.5293 v 5.29101 a 0.52916503,0.52916503 0 0 0 0.529296,0.5293 0.52916503,0.52916503 0 0 0 0.529297,-0.5293 v -5.29101 a 0.52916503,0.52916503 0 0 0 -0.529297,-0.5293 z m 100.246094,9.10547 a 0.52916503,0.52916503 0 0 0 -0.529297,0.5293 v 5.29296 a 0.52916503,0.52916503 0 0 0 0.529297,0.5293 0.52916503,0.52916503 0 0 0 0.529297,-0.5293 v -5.29296 a 0.52916503,0.52916503 0 0 0 -0.529297,-0.5293 z m -100.246094,1.47851 a 0.52916503,0.52916503 0 0 0 -0.529296,0.5293 v 5.29102 a 0.52916503,0.52916503 0 0 0 0.529296,0.52929 0.52916503,0.52916503 0 0 0 0.529297,-0.52929 v -5.29102 a 0.52916503,0.52916503 0 0 0 -0.529297,-0.5293 z m 100.246094,9.10547 a 0.52916503,0.52916503 0 0 0 -0.529297,0.5293 v 5.29102 a 0.52916503,0.52916503 0 0 0 0.529297,0.52929 0.52916503,0.52916503 0 0 0 0.529297,-0.52929 V 127.75 a 0.52916503,0.52916503 0 0 0 -0.529297,-0.5293 z m -100.246094,1.47657 a 0.52916503,0.52916503 0 0 0 -0.529296,0.52929 v 5.29297 a 0.52916503,0.52916503 0 0 0 0.529296,0.5293 0.52916503,0.52916503 0 0 0 0.529297,-0.5293 v -5.29297 a 0.52916503,0.52916503 0 0 0 -0.529297,-0.52929 z m 100.246094,9.10742 a 0.52916503,0.52916503 0 0 0 -0.529297,0.52929 v 5.29102 a 0.52916503,0.52916503 0 0 0 0.529297,0.5293 0.52916503,0.52916503 0 0 0 0.529297,-0.5293 v -5.29102 a 0.52916503,0.52916503 0 0 0 -0.529297,-0.52929 z m -100.246094,1.47656 a 0.52916503,0.52916503 0 0 0 -0.529296,0.5293 v 5.29101 a 0.52916503,0.52916503 0 0 0 0.529296,0.5293 0.52916503,0.52916503 0 0 0 0.529297,-0.5293 v -5.29101 a 0.52916503,0.52916503 0 0 0 -0.529297,-0.5293 z m 100.246094,9.10547 a 0.52916503,0.52916503 0 0 0 -0.529297,0.5293 v 5.29296 a 0.52916503,0.52916503 0 0 0 0.529297,0.5293 0.52916503,0.52916503 0 0 0 0.529297,-0.5293 v -5.29296 a 0.52916503,0.52916503 0 0 0 -0.529297,-0.5293 z m -100.246094,1.47851 a 0.52916503,0.52916503 0 0 0 -0.529296,0.5293 v 5.29102 a 0.52916503,0.52916503 0 0 0 0.529296,0.52929 0.52916503,0.52916503 0 0 0 0.529297,-0.52929 v -5.29102 a 0.52916503,0.52916503 0 0 0 -0.529297,-0.5293 z M 86.488281,158.9707 A 0.52916503,0.52916503 0 0 0 85.958984,159.5 v 5.29102 a 0.52916503,0.52916503 0 0 0 0.529297,0.52929 0.52916503,0.52916503 0 0 0 0.529297,-0.52929 V 159.5 a 0.52916503,0.52916503 0 0 0 -0.529297,-0.5293 z m -100.246094,1.47657 a 0.52916503,0.52916503 0 0 0 -0.529296,0.52929 v 5.29297 a 0.52916503,0.52916503 0 0 0 0.529296,0.5293 0.52916503,0.52916503 0 0 0 0.529297,-0.5293 v -5.29297 a 0.52916503,0.52916503 0 0 0 -0.529297,-0.52929 z m 100.246094,9.10742 a 0.52916503,0.52916503 0 0 0 -0.529297,0.52929 v 5.29102 a 0.52916503,0.52916503 0 0 0 0.529297,0.5293 0.52916503,0.52916503 0 0 0 0.529297,-0.5293 v -5.29102 a 0.52916503,0.52916503 0 0 0 -0.529297,-0.52929 z m -100.246094,1.47656 a 0.52916503,0.52916503 0 0 0 -0.529296,0.5293 v 5.29101 a 0.52916503,0.52916503 0 0 0 0.529296,0.5293 0.52916503,0.52916503 0 0 0 0.529297,-0.5293 v -5.29101 a 0.52916503,0.52916503 0 0 0 -0.529297,-0.5293 z m 100.246094,9.10547 a 0.52916503,0.52916503 0 0 0 -0.529297,0.5293 v 5.29296 a 0.52916503,0.52916503 0 0 0 0.529297,0.5293 0.52916503,0.52916503 0 0 0 0.529297,-0.5293 v -5.29296 a 0.52916503,0.52916503 0 0 0 -0.529297,-0.5293 z m -100.246094,1.47851 a 0.52916503,0.52916503 0 0 0 -0.529296,0.5293 v 5.29102 a 0.52916503,0.52916503 0 0 0 0.529296,0.52929 0.52916503,0.52916503 0 0 0 0.529297,-0.52929 v -5.29102 a 0.52916503,0.52916503 0 0 0 -0.529297,-0.5293 z m 100.246094,9.10547 a 0.52916503,0.52916503 0 0 0 -0.529297,0.5293 v 5.29102 a 0.52916503,0.52916503 0 0 0 0.529297,0.52929 0.52916503,0.52916503 0 0 0 0.529297,-0.52929 V 191.25 a 0.52916503,0.52916503 0 0 0 -0.529297,-0.5293 z m -100.246094,1.47657 a 0.52916503,0.52916503 0 0 0 -0.529296,0.52929 v 5.23047 h 1.11914 a 0.52916503,0.52916503 0 0 0 0.529297,-0.5293 0.52916503,0.52916503 0 0 0 -0.529297,-0.52929 h -0.06055 v -4.17188 a 0.52916503,0.52916503 0 0 0 -0.529297,-0.52929 z m 5.882813,4.70117 a 0.52916503,0.52916503 0 0 0 -0.5292969,0.52929 0.52916503,0.52916503 0 0 0 0.5292969,0.5293 h 5.2910156 a 0.52916503,0.52916503 0 0 0 0.5292969,-0.5293 0.52916503,0.52916503 0 0 0 -0.5292969,-0.52929 z m 10.5820313,0 a 0.52916503,0.52916503 0 0 0 -0.5292969,0.52929 0.52916503,0.52916503 0 0 0 0.5292969,0.5293 H 8 A 0.52916503,0.52916503 0 0 0 8.5292969,197.42773 0.52916503,0.52916503 0 0 0 8,196.89844 Z m 10.5839847,0 a 0.52916503,0.52916503 0 0 0 -0.529297,0.52929 0.52916503,0.52916503 0 0 0 0.529297,0.5293 h 5.291015 a 0.52916503,0.52916503 0 0 0 0.529297,-0.5293 0.52916503,0.52916503 0 0 0 -0.529297,-0.52929 z m 10.583984,0 a 0.52916503,0.52916503 0 0 0 -0.529297,0.52929 0.52916503,0.52916503 0 0 0 0.529297,0.5293 h 5.291016 a 0.52916503,0.52916503 0 0 0 0.529296,-0.5293 0.52916503,0.52916503 0 0 0 -0.529296,-0.52929 z m 10.582031,0 a 0.52916503,0.52916503 0 0 0 -0.529297,0.52929 0.52916503,0.52916503 0 0 0 0.529297,0.5293 H 39.75 a 0.52916503,0.52916503 0 0 0 0.529297,-0.5293 A 0.52916503,0.52916503 0 0 0 39.75,196.89844 Z m 10.583985,0 a 0.52916503,0.52916503 0 0 0 -0.529297,0.52929 0.52916503,0.52916503 0 0 0 0.529297,0.5293 h 5.291015 a 0.52916503,0.52916503 0 0 0 0.529297,-0.5293 0.52916503,0.52916503 0 0 0 -0.529297,-0.52929 z m 10.583984,0 a 0.52916503,0.52916503 0 0 0 -0.529297,0.52929 0.52916503,0.52916503 0 0 0 0.529297,0.5293 h 5.291016 a 0.52916503,0.52916503 0 0 0 0.529296,-0.5293 0.52916503,0.52916503 0 0 0 -0.529296,-0.52929 z m 10.582031,0 a 0.52916503,0.52916503 0 0 0 -0.529297,0.52929 0.52916503,0.52916503 0 0 0 0.529297,0.5293 H 71.5 a 0.52916503,0.52916503 0 0 0 0.529297,-0.5293 A 0.52916503,0.52916503 0 0 0 71.5,196.89844 Z m 10.583985,0 a 0.52916503,0.52916503 0 0 0 -0.529297,0.52929 0.52916503,0.52916503 0 0 0 0.529297,0.5293 h 5.291015 a 0.52916503,0.52916503 0 0 0 0.529297,-0.5293 0.52916503,0.52916503 0 0 0 -0.529297,-0.52929 z"
       id="rect15-8" />
    <path
       style="baseline-shift:baseline;display:inline;overflow:visible;vector-effect:none;fill:#fb882d;stroke-linecap:round;stroke-dasharray:5.29167, 5.29167;paint-order:fill markers stroke;enable-background:accumulate;stop-color:#000000;stop-opacity:1;opacity:1"
       d="m 96.734375,100.29102 a 0.52916503,0.52916503 0 0 0 -0.529297,0.52929 v 3.32032 a 0.52916503,0.52916503 0 0 0 0.529297,0.52929 0.52916503,0.52916503 0 0 0 0.529297,-0.52929 v -2.79102 h 4.761718 a 0.52916503,0.52916503 0 0 0 0.5293,-0.5293 0.52916503,0.52916503 0 0 0 -0.5293,-0.52929 z m 10.583985,0 a 0.52916503,0.52916503 0 0 0 -0.5293,0.52929 0.52916503,0.52916503 0 0 0 0.5293,0.5293 h 5.29102 a 0.52916503,0.52916503 0 0 0 0.52929,-0.5293 0.52916503,0.52916503 0 0 0 -0.52929,-0.52929 z m 10.58203,0 a 0.52916503,0.52916503 0 0 0 -0.5293,0.52929 0.52916503,0.52916503 0 0 0 0.5293,0.5293 h 5.29297 a 0.52916503,0.52916503 0 0 0 0.5293,-0.5293 0.52916503,0.52916503 0 0 0 -0.5293,-0.52929 z m 10.58398,0 a 0.52916503,0.52916503 0 0 0 -0.52929,0.52929 0.52916503,0.52916503 0 0 0 0.52929,0.5293 h 5.29102 a 0.52916503,0.52916503 0 0 0 0.5293,-0.5293 0.52916503,0.52916503 0 0 0 -0.5293,-0.52929 z m 10.58399,0 a 0.52916503,0.52916503 0 0 0 -0.5293,0.52929 0.52916503,0.52916503 0 0 0 0.5293,0.5293 h 5.29101 a 0.52916503,0.52916503 0 0 0 0.5293,-0.5293 0.52916503,0.52916503 0 0 0 -0.5293,-0.52929 z m 10.58203,0 a 0.52916503,0.52916503 0 0 0 -0.52734,0.52929 0.52916503,0.52916503 0 0 0 0.52734,0.5293 h 5.29297 a 0.52916503,0.52916503 0 0 0 0.5293,-0.5293 0.52916503,0.52916503 0 0 0 -0.5293,-0.52929 z m 10.58398,0 a 0.52916503,0.52916503 0 0 0 -0.52929,0.52929 0.52916503,0.52916503 0 0 0 0.52929,0.5293 h 5.29102 a 0.52916503,0.52916503 0 0 0 0.5293,-0.5293 0.52916503,0.52916503 0 0 0 -0.5293,-0.52929 z m 10.58399,0 a 0.52916503,0.52916503 0 0 0 -0.5293,0.52929 0.52916503,0.52916503 0 0 0 0.5293,0.5293 h 5.29101 a 0.52916503,0.52916503 0 0 0 0.5293,-0.5293 0.52916503,0.52916503 0 0 0 -0.5293,-0.52929 z m 10.58203,0 a 0.52916503,0.52916503 0 0 0 -0.52734,0.52929 0.52916503,0.52916503 0 0 0 0.52734,0.5293 h 5.29297 a 0.52916503,0.52916503 0 0 0 0.5293,-0.5293 0.52916503,0.52916503 0 0 0 -0.5293,-0.52929 z m 10.58398,0 a 0.52916503,0.52916503 0 0 0 -0.52929,0.52929 0.52916503,0.52916503 0 0 0 0.52929,0.5293 h 5.29102 a 0.52916503,0.52916503 0 0 0 0.5293,-0.5293 0.52916503,0.52916503 0 0 0 -0.5293,-0.52929 z m 5.59375,4.98828 a 0.52916503,0.52916503 0 0 0 -0.52734,0.52929 v 5.29102 a 0.52916503,0.52916503 0 0 0 0.52734,0.5293 0.52916503,0.52916503 0 0 0 0.5293,-0.5293 v -5.29102 a 0.52916503,0.52916503 0 0 0 -0.5293,-0.52929 z m -100.843745,3.625 a 0.52916503,0.52916503 0 0 0 -0.529297,0.52929 v 5.29102 a 0.52916503,0.52916503 0 0 0 0.529297,0.5293 0.52916503,0.52916503 0 0 0 0.529297,-0.5293 v -5.29102 a 0.52916503,0.52916503 0 0 0 -0.529297,-0.52929 z m 100.843745,6.95898 a 0.52916503,0.52916503 0 0 0 -0.52734,0.5293 v 5.29101 a 0.52916503,0.52916503 0 0 0 0.52734,0.5293 0.52916503,0.52916503 0 0 0 0.5293,-0.5293 v -5.29101 a 0.52916503,0.52916503 0 0 0 -0.5293,-0.5293 z m -100.843745,3.62305 a 0.52916503,0.52916503 0 0 0 -0.529297,0.5293 v 5.29296 a 0.52916503,0.52916503 0 0 0 0.529297,0.5293 0.52916503,0.52916503 0 0 0 0.529297,-0.5293 v -5.29296 a 0.52916503,0.52916503 0 0 0 -0.529297,-0.5293 z m 100.843745,6.95898 a 0.52916503,0.52916503 0 0 0 -0.52734,0.5293 v 5.29297 a 0.52916503,0.52916503 0 0 0 0.52734,0.52929 0.52916503,0.52916503 0 0 0 0.5293,-0.52929 v -5.29297 a 0.52916503,0.52916503 0 0 0 -0.5293,-0.5293 z m -100.843745,3.625 a 0.52916503,0.52916503 0 0 0 -0.529297,0.5293 v 5.29101 a 0.52916503,0.52916503 0 0 0 0.529297,0.5293 0.52916503,0.52916503 0 0 0 0.529297,-0.5293 v -5.29101 a 0.52916503,0.52916503 0 0 0 -0.529297,-0.5293 z m 100.843745,6.95899 a 0.52916503,0.52916503 0 0 0 -0.52734,0.52929 v 5.29102 a 0.52916503,0.52916503 0 0 0 0.52734,0.5293 0.52916503,0.52916503 0 0 0 0.5293,-0.5293 v -5.29102 a 0.52916503,0.52916503 0 0 0 -0.5293,-0.52929 z m -100.843745,3.625 a 0.52916503,0.52916503 0 0 0 -0.529297,0.52929 v 5.29102 a 0.52916503,0.52916503 0 0 0 0.529297,0.5293 0.52916503,0.52916503 0 0 0 0.529297,-0.5293 v -5.29102 a 0.52916503,0.52916503 0 0 0 -0.529297,-0.52929 z m 100.843745,6.95898 a 0.52916503,0.52916503 0 0 0 -0.52734,0.5293 v 5.29101 a 0.52916503,0.52916503 0 0 0 0.52734,0.5293 0.52916503,0.52916503 0 0 0 0.5293,-0.5293 v -5.29101 a 0.52916503,0.52916503 0 0 0 -0.5293,-0.5293 z m -100.843745,3.62305 a 0.52916503,0.52916503 0 0 0 -0.529297,0.52929 v 5.29297 a 0.52916503,0.52916503 0 0 0 0.529297,0.5293 0.52916503,0.52916503 0 0 0 0.529297,-0.5293 v -5.29297 a 0.52916503,0.52916503 0 0 0 -0.529297,-0.52929 z m 100.843745,6.95898 a 0.52916503,0.52916503 0 0 0 -0.52734,0.5293 v 5.29297 a 0.52916503,0.52916503 0 0 0 0.52734,0.52929 0.52916503,0.52916503 0 0 0 0.5293,-0.52929 v -5.29297 a 0.52916503,0.52916503 0 0 0 -0.5293,-0.5293 z m -100.843745,3.625 a 0.52916503,0.52916503 0 0 0 -0.529297,0.5293 v 5.29101 a 0.52916503,0.52916503 0 0 0 0.529297,0.5293 0.52916503,0.52916503 0 0 0 0.529297,-0.5293 v -5.29101 a 0.52916503,0.52916503 0 0 0 -0.529297,-0.5293 z m 100.843745,6.95899 a 0.52916503,0.52916503 0 0 0 -0.52734,0.52929 v 5.29102 a 0.52916503,0.52916503 0 0 0 0.52734,0.5293 0.52916503,0.52916503 0 0 0 0.5293,-0.5293 v -5.29102 a 0.52916503,0.52916503 0 0 0 -0.5293,-0.52929 z m -100.843745,3.625 a 0.52916503,0.52916503 0 0 0 -0.529297,0.52929 v 5.29102 a 0.52916503,0.52916503 0 0 0 0.529297,0.5293 0.52916503,0.52916503 0 0 0 0.529297,-0.5293 v -5.29102 a 0.52916503,0.52916503 0 0 0 -0.529297,-0.52929 z m 100.843745,6.95898 a 0.52916503,0.52916503 0 0 0 -0.52734,0.5293 v 5.29101 a 0.52916503,0.52916503 0 0 0 0.52734,0.5293 0.52916503,0.52916503 0 0 0 0.5293,-0.5293 v -5.29101 a 0.52916503,0.52916503 0 0 0 -0.5293,-0.5293 z m -100.843745,3.62305 a 0.52916503,0.52916503 0 0 0 -0.529297,0.52929 v 5.29297 a 0.52916503,0.52916503 0 0 0 0.529297,0.5293 0.52916503,0.52916503 0 0 0 0.529297,-0.5293 v -5.29297 a 0.52916503,0.52916503 0 0 0 -0.529297,-0.52929 z m 100.843745,6.95898 a 0.52916503,0.52916503 0 0 0 -0.52734,0.5293 v 5.29297 a 0.52916503,0.52916503 0 0 0 0.52734,0.52929 0.52916503,0.52916503 0 0 0 0.5293,-0.52929 v -5.29297 a 0.52916503,0.52916503 0 0 0 -0.5293,-0.5293 z m -100.843745,3.625 a 0.52916503,0.52916503 0 0 0 -0.529297,0.5293 v 3.85742 h 2.492188 a 0.52916503,0.52916503 0 0 0 0.529296,-0.5293 0.52916503,0.52916503 0 0 0 -0.529296,-0.52929 h -1.433594 v -2.79883 a 0.52916503,0.52916503 0 0 0 -0.529297,-0.5293 z m 7.255855,3.32813 a 0.52916503,0.52916503 0 0 0 -0.52929,0.52929 0.52916503,0.52916503 0 0 0 0.52929,0.5293 h 5.29102 a 0.52916503,0.52916503 0 0 0 0.5293,-0.5293 0.52916503,0.52916503 0 0 0 -0.5293,-0.52929 z m 10.58204,0 a 0.52916503,0.52916503 0 0 0 -0.5293,0.52929 0.52916503,0.52916503 0 0 0 0.5293,0.5293 h 5.29296 a 0.52916503,0.52916503 0 0 0 0.5293,-0.5293 0.52916503,0.52916503 0 0 0 -0.5293,-0.52929 z m 10.58398,0 a 0.52916503,0.52916503 0 0 0 -0.5293,0.52929 0.52916503,0.52916503 0 0 0 0.5293,0.5293 h 5.29102 a 0.52916503,0.52916503 0 0 0 0.52929,-0.5293 0.52916503,0.52916503 0 0 0 -0.52929,-0.52929 z m 10.58398,0 a 0.52916503,0.52916503 0 0 0 -0.52929,0.52929 0.52916503,0.52916503 0 0 0 0.52929,0.5293 h 5.29102 a 0.52916503,0.52916503 0 0 0 0.5293,-0.5293 0.52916503,0.52916503 0 0 0 -0.5293,-0.52929 z m 10.58204,0 a 0.52916503,0.52916503 0 0 0 -0.5293,0.52929 0.52916503,0.52916503 0 0 0 0.5293,0.5293 h 5.29296 a 0.52916503,0.52916503 0 0 0 0.5293,-0.5293 0.52916503,0.52916503 0 0 0 -0.5293,-0.52929 z m 10.58398,0 a 0.52916503,0.52916503 0 0 0 -0.5293,0.52929 0.52916503,0.52916503 0 0 0 0.5293,0.5293 h 5.29102 a 0.52916503,0.52916503 0 0 0 0.52929,-0.5293 0.52916503,0.52916503 0 0 0 -0.52929,-0.52929 z m 10.58398,0 a 0.52916503,0.52916503 0 0 0 -0.52929,0.52929 0.52916503,0.52916503 0 0 0 0.52929,0.5293 h 5.29102 a 0.52916503,0.52916503 0 0 0 0.5293,-0.5293 0.52916503,0.52916503 0 0 0 -0.5293,-0.52929 z m 10.58204,0 a 0.52916503,0.52916503 0 0 0 -0.52735,0.52929 0.52916503,0.52916503 0 0 0 0.52735,0.5293 h 5.29296 a 0.52916503,0.52916503 0 0 0 0.5293,-0.5293 0.52916503,0.52916503 0 0 0 -0.5293,-0.52929 z m 10.58398,0 a 0.52916503,0.52916503 0 0 0 -0.5293,0.52929 0.52916503,0.52916503 0 0 0 0.5293,0.5293 h 5.29102 a 0.52916503,0.52916503 0 0 0 0.52929,-0.5293 0.52916503,0.52916503 0 0 0 -0.52929,-0.52929 z"
       id="rect16-5" />
    <g
       id="text11-1-9"
       style="font-size:10.5833px;line-height:1;font-family:Ruda;-inkscape-font-specification:Ruda;text-align:center;letter-spacing:0px;text-anchor:middle;fill:#ffaaaa;stroke-width:0.352777;stroke-linecap:round;stroke-dasharray:1, 2;paint-order:fill markers stroke"
       aria-label="Teller mot&#10;10%">
      <path
         style="text-align:start;text-anchor:start"
         d="m 214.73812,113.78895 0.0212,-6.60398 -2.06375,0.0317 v -0.78317 h 4.97415 v 0.78317 l -2.06374,-0.0317 0.0212,6.60398 z m 5.74673,0.14816 q -0.73025,0 -1.29116,-0.30691 -0.55033,-0.3175 -0.85725,-1.02658 -0.30691,-0.71967 -0.30691,-1.905 0,-1.23824 0.3175,-1.93674 0.32808,-0.6985 0.87841,-0.98425 0.55033,-0.29633 1.23825,-0.29633 0.68791,0 1.16416,0.27517 0.48683,0.27516 0.74083,0.92074 0.254,0.635 0.254,1.7145 v 0.66675 h -4.06399 l 0.41275,-0.15875 q -0.0423,0.6985 0.0317,1.12183 0.0847,0.41275 0.20108,0.61383 0.127,0.20108 0.21167,0.28575 0.14817,0.127 0.35983,0.1905 0.21167,0.0635 0.51858,0.0635 0.30692,0 0.60325,-0.0423 0.29633,-0.0529 0.55033,-0.11641 0.254,-0.0741 0.45508,-0.13759 0.20109,-0.0741 0.32809,-0.10583 l 0.22225,0.70908 q -0.0952,0.0423 -0.37042,0.15875 -0.27516,0.10583 -0.68791,0.20108 -0.40217,0.0953 -0.91017,0.0953 z m -1.51341,-3.19615 -0.41275,-0.381 3.56657,-0.0741 -0.40216,0.39158 q 0.0106,-0.75142 -0.0317,-1.29116 -0.0317,-0.53975 -0.21167,-0.8255 -0.0741,-0.11642 -0.254,-0.21167 -0.17991,-0.10583 -0.69849,-0.10583 -0.53975,0 -0.81492,0.11642 -0.26458,0.11641 -0.41275,0.30691 -0.39158,0.51858 -0.32808,2.07433 z m 5.46097,3.04799 v -7.96923 h 0.87842 v 7.96923 z m 3.12208,0 v -7.96923 h 0.87841 v 7.96923 z m 5.21757,0.14816 q -0.73025,0 -1.29117,-0.30691 -0.55033,-0.3175 -0.85724,-1.02658 -0.30692,-0.71967 -0.30692,-1.905 0,-1.23824 0.3175,-1.93674 0.32808,-0.6985 0.87841,-0.98425 0.55034,-0.29633 1.23825,-0.29633 0.68791,0 1.16416,0.27517 0.48683,0.27516 0.74083,0.92074 0.254,0.635 0.254,1.7145 v 0.66675 h -4.06398 l 0.41274,-0.15875 q -0.0423,0.6985 0.0317,1.12183 0.0847,0.41275 0.20109,0.61383 0.127,0.20108 0.21166,0.28575 0.14817,0.127 0.35984,0.1905 0.21166,0.0635 0.51858,0.0635 0.30691,0 0.60325,-0.0423 0.29633,-0.0529 0.55033,-0.11641 0.254,-0.0741 0.45508,-0.13759 0.20108,-0.0741 0.32808,-0.10583 l 0.22225,0.70908 q -0.0953,0.0423 -0.37042,0.15875 -0.27516,0.10583 -0.68791,0.20108 -0.40217,0.0953 -0.91016,0.0953 z m -1.51342,-3.19615 -0.41274,-0.381 3.56657,-0.0741 -0.40217,0.39158 q 0.0106,-0.75142 -0.0317,-1.29116 -0.0318,-0.53975 -0.21166,-0.8255 -0.0741,-0.11642 -0.254,-0.21167 -0.17992,-0.10583 -0.6985,-0.10583 -0.53975,0 -0.81491,0.11642 -0.26459,0.11641 -0.41275,0.30691 -0.39159,0.51858 -0.32809,2.07433 z m 5.40806,3.04799 v -6.15948 h 0.56092 l 0.11641,0.62441 h 0.0635 q 0,0 0.15875,-0.11641 0.16933,-0.11642 0.43392,-0.26459 0.26458,-0.14816 0.56091,-0.26458 0.30692,-0.11642 0.5715,-0.11642 0.15875,0 0.29633,0.0318 0.13759,0.0212 0.13759,0.0212 l -0.0741,0.84667 q 0,0 -0.13758,-0.0106 -0.13758,-0.0106 -0.254,-0.0106 -0.29633,0 -0.60325,0.0847 -0.29633,0.0847 -0.55033,0.21166 -0.254,0.127 -0.40217,0.24342 v 4.8789 z m 6.7204,0 v -6.15948 h 0.59266 l 0.0952,0.60325 h 0.0423 q 0.0953,-0.0529 0.3175,-0.16934 0.22225,-0.127 0.51858,-0.254 0.29633,-0.13758 0.62441,-0.22225 0.32808,-0.0953 0.64558,-0.0953 0.45509,0 0.78317,0.21167 0.33866,0.21167 0.47625,0.58208 0.44449,-0.27516 0.98424,-0.52916 0.55033,-0.26459 1.16417,-0.26459 0.57149,0 0.88899,0.27517 0.3175,0.27517 0.4445,0.78316 0.127,0.49742 0.127,1.18533 v 4.05341 h -0.87841 v -3.75707 q 0,-0.49742 -0.0212,-0.889 -0.0212,-0.39158 -0.13758,-0.5715 -0.10584,-0.16933 -0.29633,-0.20108 -0.17992,-0.0423 -0.29634,-0.0423 -0.28575,0 -0.59266,0.0847 -0.29633,0.0741 -0.56092,0.1905 -0.26458,0.10583 -0.4445,0.20108 -0.16933,0.0953 -0.22224,0.127 0.0212,0.16934 0.0317,0.35984 0.0106,0.1905 0.0106,0.40216 v 4.09574 h -0.87842 v -3.78882 q 0,-0.60325 -0.0317,-0.93133 -0.0212,-0.32809 -0.13758,-0.508 -0.10583,-0.14817 -0.26458,-0.1905 -0.15875,-0.0423 -0.30692,-0.0423 -0.35983,0 -0.71966,0.11641 -0.35983,0.10583 -0.64558,0.24342 -0.28575,0.127 -0.43392,0.1905 v 4.91065 z m 11.68396,0.13758 q -0.87842,0 -1.38641,-0.39158 -0.49742,-0.39158 -0.70909,-1.11125 -0.21166,-0.71966 -0.21166,-1.71449 0,-0.99483 0.21166,-1.7145 0.21167,-0.71966 0.70909,-1.11124 0.50799,-0.39159 1.38641,-0.39159 0.87841,0 1.37583,0.39159 0.508,0.39158 0.71966,1.11124 0.21167,0.71967 0.21167,1.7145 0,0.99483 -0.21167,1.71449 -0.21166,0.71967 -0.71966,1.11125 -0.49742,0.39158 -1.37583,0.39158 z m 0,-0.762 q 0.40216,0 0.66675,-0.0952 0.27516,-0.0953 0.43391,-0.34925 0.16933,-0.25399 0.23283,-0.74083 0.0741,-0.48683 0.0741,-1.26999 0,-0.78317 -0.0741,-1.27 -0.0635,-0.48683 -0.23283,-0.74083 -0.15875,-0.26458 -0.43391,-0.34925 -0.26459,-0.0953 -0.66675,-0.0953 -0.40217,0 -0.67733,0.0953 -0.26459,0.0847 -0.43392,0.34925 -0.15875,0.254 -0.23283,0.74083 -0.0741,0.48683 -0.0741,1.27 0,0.78316 0.0741,1.26999 0.0741,0.48684 0.23283,0.74083 0.16933,0.254 0.43392,0.34925 0.27516,0.0952 0.67733,0.0952 z m 5.72557,0.77258 q -0.45508,0 -0.79375,-0.14816 -0.33867,-0.15875 -0.52916,-0.59267 -0.17992,-0.4445 -0.17992,-1.31233 v -3.20674 h -0.6985 v -0.55033 l 0.73025,-0.14816 0.23283,-1.43933 h 0.61383 v 1.44991 h 1.22767 v 0.70908 h -1.22767 v 3.24907 q 0,0.58209 0.0317,0.84667 0.0317,0.26458 0.15875,0.33866 0.13759,0.0635 0.45508,0.0635 0.16934,0 0.29634,0 0.127,-0.0106 0.20108,-0.0106 0.0741,-0.0106 0.0741,-0.0106 v 0.70908 q 0,0 -0.15875,0.0212 -0.15875,0.0318 -0.43391,0.0318 z"
         id="path1" />
      <path
         style="text-align:start;text-anchor:start"
         d="m 213.48929,124.37225 v -0.762 l 1.76741,0.0212 0.0741,-5.81023 h -0.0529 l -1.55575,1.64041 -0.59266,-0.5715 2.07433,-1.94733 0.95249,0.0741 v 6.61457 l 1.55575,-0.0212 v 0.762 z m 7.57764,0.13758 q -0.50799,0 -0.94191,-0.16933 -0.43392,-0.16933 -0.762,-0.58208 -0.3175,-0.42334 -0.508,-1.16417 -0.17991,-0.75141 -0.17991,-1.91557 0,-1.15358 0.17991,-1.89441 0.1905,-0.74084 0.508,-1.15358 0.32808,-0.42334 0.762,-0.58209 0.43392,-0.16933 0.94191,-0.16933 0.508,0 0.94192,0.16933 0.43391,0.15875 0.762,0.58209 0.32808,0.41274 0.50799,1.15358 0.17992,0.74083 0.17992,1.89441 0,1.16416 -0.17992,1.91557 -0.17991,0.74083 -0.50799,1.16417 -0.32809,0.41275 -0.762,0.58208 -0.43392,0.16933 -0.94192,0.16933 z m 0.0106,-0.80433 q 0.48683,0 0.80433,-0.24342 0.32808,-0.254 0.49741,-0.91016 0.16934,-0.65616 0.16934,-1.87324 0,-0.94192 -0.10584,-1.53458 -0.0952,-0.59267 -0.28575,-0.91017 -0.1905,-0.3175 -0.46566,-0.43391 -0.27517,-0.127 -0.62442,-0.127 -0.34925,0 -0.62441,0.11642 -0.27517,0.11641 -0.46567,0.43391 -0.1905,0.3175 -0.28575,0.91016 -0.0952,0.58209 -0.0952,1.524 0,1.21708 0.15874,1.88383 0.16934,0.65616 0.49742,0.91016 0.33867,0.254 0.8255,0.254 z m 5.0059,0.762 1.9685,-4.13807 1.65099,-3.71474 h 0.78317 l -1.87325,4.04282 -1.73566,3.80999 z m 0.15875,-4.40266 q -0.39158,0 -0.76199,-0.15874 -0.35984,-0.15875 -0.59267,-0.508 -0.23283,-0.34925 -0.23283,-0.93133 0,-0.58208 0.23283,-0.92075 0.23283,-0.34925 0.59267,-0.49742 0.37041,-0.15875 0.76199,-0.15875 0.39159,0 0.75142,0.15875 0.37041,0.14817 0.60325,0.49742 0.23283,0.33867 0.23283,0.92075 0,0.58208 -0.23283,0.93133 -0.23284,0.34925 -0.60325,0.508 -0.35983,0.15874 -0.75142,0.15874 z m 0,-0.70908 q 0.37042,0 0.60325,-0.1905 0.24342,-0.1905 0.24342,-0.69849 0,-0.49742 -0.24342,-0.67733 -0.23283,-0.1905 -0.60325,-0.1905 -0.37041,0 -0.61383,0.1905 -0.23283,0.17991 -0.23283,0.67733 0,0.50799 0.23283,0.69849 0.24342,0.1905 0.61383,0.1905 z m 4.15924,5.09057 q -0.40217,0 -0.77258,-0.15875 -0.35983,-0.15875 -0.59267,-0.508 -0.23283,-0.34925 -0.23283,-0.93133 0,-0.58208 0.23283,-0.92074 0.23284,-0.34925 0.59267,-0.49742 0.37041,-0.15875 0.77258,-0.15875 0.39158,0 0.75141,0.15875 0.37042,0.14817 0.60325,0.49742 0.23283,0.33866 0.23283,0.92074 0,0.58208 -0.23283,0.93133 -0.23283,0.34925 -0.60325,0.508 -0.35983,0.15875 -0.75141,0.15875 z m 0,-0.70908 q 0.37042,0 0.60325,-0.1905 0.23283,-0.1905 0.23283,-0.6985 0,-0.49741 -0.23283,-0.67733 -0.23283,-0.1905 -0.60325,-0.1905 -0.381,0 -0.61383,0.1905 -0.23283,0.17992 -0.23283,0.67733 0,0.508 0.23283,0.6985 0.23283,0.1905 0.61383,0.1905 z"
         id="path2" />
    </g>
    <path
       style="baseline-shift:baseline;display:inline;overflow:visible;vector-effect:none;fill:#ffaaaa;stroke-linecap:round;stroke-dasharray:5.29167, 5.29167;paint-order:fill markers stroke;enable-background:accumulate;stop-color:#000000;stop-opacity:1;opacity:1"
       d="m 207.69531,100.29102 a 0.52916503,0.52916503 0 0 0 -0.52929,0.52929 v 3.32032 a 0.52916503,0.52916503 0 0 0 0.52929,0.52929 0.52916503,0.52916503 0 0 0 0.5293,-0.52929 v -2.79102 h 4.76172 a 0.52916503,0.52916503 0 0 0 0.52929,-0.5293 0.52916503,0.52916503 0 0 0 -0.52929,-0.52929 z m 10.58399,0 a 0.52916503,0.52916503 0 0 0 -0.5293,0.52929 0.52916503,0.52916503 0 0 0 0.5293,0.5293 h 5.29101 a 0.52916503,0.52916503 0 0 0 0.5293,-0.5293 0.52916503,0.52916503 0 0 0 -0.5293,-0.52929 z m 10.58203,0 a 0.52916503,0.52916503 0 0 0 -0.52735,0.52929 0.52916503,0.52916503 0 0 0 0.52735,0.5293 h 5.29297 a 0.52916503,0.52916503 0 0 0 0.52929,-0.5293 0.52916503,0.52916503 0 0 0 -0.52929,-0.52929 z m 10.58398,0 a 0.52916503,0.52916503 0 0 0 -0.52929,0.52929 0.52916503,0.52916503 0 0 0 0.52929,0.5293 h 5.29102 a 0.52916503,0.52916503 0 0 0 0.52929,-0.5293 0.52916503,0.52916503 0 0 0 -0.52929,-0.52929 z m 10.58399,0 a 0.52916503,0.52916503 0 0 0 -0.5293,0.52929 0.52916503,0.52916503 0 0 0 0.5293,0.5293 h 5.29101 a 0.52916503,0.52916503 0 0 0 0.5293,-0.5293 0.52916503,0.52916503 0 0 0 -0.5293,-0.52929 z m 10.58203,0 a 0.52916503,0.52916503 0 0 0 -0.52735,0.52929 0.52916503,0.52916503 0 0 0 0.52735,0.5293 h 5.29297 a 0.52916503,0.52916503 0 0 0 0.52929,-0.5293 0.52916503,0.52916503 0 0 0 -0.52929,-0.52929 z m 10.58398,0 a 0.52916503,0.52916503 0 0 0 -0.52929,0.52929 0.52916503,0.52916503 0 0 0 0.52929,0.5293 h 5.29102 a 0.52916503,0.52916503 0 0 0 0.52929,-0.5293 0.52916503,0.52916503 0 0 0 -0.52929,-0.52929 z m 10.58399,0 a 0.52916503,0.52916503 0 0 0 -0.5293,0.52929 0.52916503,0.52916503 0 0 0 0.5293,0.5293 h 5.29101 a 0.52916503,0.52916503 0 0 0 0.5293,-0.5293 0.52916503,0.52916503 0 0 0 -0.5293,-0.52929 z m 10.58203,0 a 0.52916503,0.52916503 0 0 0 -0.52735,0.52929 0.52916503,0.52916503 0 0 0 0.52735,0.5293 h 5.29297 a 0.52916503,0.52916503 0 0 0 0.52929,-0.5293 0.52916503,0.52916503 0 0 0 -0.52929,-0.52929 z m 10.58398,0 a 0.52916503,0.52916503 0 0 0 -0.52929,0.52929 0.52916503,0.52916503 0 0 0 0.52929,0.5293 h 5.29102 a 0.52916503,0.52916503 0 0 0 0.52929,-0.5293 0.52916503,0.52916503 0 0 0 -0.52929,-0.52929 z m 5.59375,4.98828 a 0.52916503,0.52916503 0 0 0 -0.52734,0.52929 v 5.29102 a 0.52916503,0.52916503 0 0 0 0.52734,0.5293 0.52916503,0.52916503 0 0 0 0.5293,-0.5293 v -5.29102 a 0.52916503,0.52916503 0 0 0 -0.5293,-0.52929 z m -100.84375,3.625 a 0.52916503,0.52916503 0 0 0 -0.52929,0.52929 v 5.29102 a 0.52916503,0.52916503 0 0 0 0.52929,0.5293 0.52916503,0.52916503 0 0 0 0.5293,-0.5293 v -5.29102 a 0.52916503,0.52916503 0 0 0 -0.5293,-0.52929 z m 100.84375,6.95898 a 0.52916503,0.52916503 0 0 0 -0.52734,0.5293 v 5.29101 a 0.52916503,0.52916503 0 0 0 0.52734,0.5293 0.52916503,0.52916503 0 0 0 0.5293,-0.5293 v -5.29101 a 0.52916503,0.52916503 0 0 0 -0.5293,-0.5293 z m -100.84375,3.62305 a 0.52916503,0.52916503 0 0 0 -0.52929,0.5293 v 5.29296 a 0.52916503,0.52916503 0 0 0 0.52929,0.5293 0.52916503,0.52916503 0 0 0 0.5293,-0.5293 v -5.29296 a 0.52916503,0.52916503 0 0 0 -0.5293,-0.5293 z m 100.84375,6.95898 a 0.52916503,0.52916503 0 0 0 -0.52734,0.5293 v 5.29297 a 0.52916503,0.52916503 0 0 0 0.52734,0.52929 0.52916503,0.52916503 0 0 0 0.5293,-0.52929 v -5.29297 a 0.52916503,0.52916503 0 0 0 -0.5293,-0.5293 z m -100.84375,3.625 a 0.52916503,0.52916503 0 0 0 -0.52929,0.5293 v 5.29101 a 0.52916503,0.52916503 0 0 0 0.52929,0.5293 0.52916503,0.52916503 0 0 0 0.5293,-0.5293 v -5.29101 a 0.52916503,0.52916503 0 0 0 -0.5293,-0.5293 z m 100.84375,6.95899 a 0.52916503,0.52916503 0 0 0 -0.52734,0.52929 v 5.29102 a 0.52916503,0.52916503 0 0 0 0.52734,0.5293 0.52916503,0.52916503 0 0 0 0.5293,-0.5293 v -5.29102 a 0.52916503,0.52916503 0 0 0 -0.5293,-0.52929 z m -100.84375,3.625 a 0.52916503,0.52916503 0 0 0 -0.52929,0.52929 v 5.29102 a 0.52916503,0.52916503 0 0 0 0.52929,0.5293 0.52916503,0.52916503 0 0 0 0.5293,-0.5293 v -5.29102 a 0.52916503,0.52916503 0 0 0 -0.5293,-0.52929 z m 100.84375,6.95898 a 0.52916503,0.52916503 0 0 0 -0.52734,0.5293 v 5.29101 a 0.52916503,0.52916503 0 0 0 0.52734,0.5293 0.52916503,0.52916503 0 0 0 0.5293,-0.5293 v -5.29101 a 0.52916503,0.52916503 0 0 0 -0.5293,-0.5293 z m -100.84375,3.62305 a 0.52916503,0.52916503 0 0 0 -0.52929,0.52929 v 5.29297 a 0.52916503,0.52916503 0 0 0 0.52929,0.5293 0.52916503,0.52916503 0 0 0 0.5293,-0.5293 v -5.29297 a 0.52916503,0.52916503 0 0 0 -0.5293,-0.52929 z m 100.84375,6.95898 a 0.52916503,0.52916503 0 0 0 -0.52734,0.5293 v 5.29297 a 0.52916503,0.52916503 0 0 0 0.52734,0.52929 0.52916503,0.52916503 0 0 0 0.5293,-0.52929 v -5.29297 a 0.52916503,0.52916503 0 0 0 -0.5293,-0.5293 z m -100.84375,3.625 a 0.52916503,0.52916503 0 0 0 -0.52929,0.5293 v 5.29101 a 0.52916503,0.52916503 0 0 0 0.52929,0.5293 0.52916503,0.52916503 0 0 0 0.5293,-0.5293 v -5.29101 a 0.52916503,0.52916503 0 0 0 -0.5293,-0.5293 z m 100.84375,6.95899 a 0.52916503,0.52916503 0 0 0 -0.52734,0.52929 v 5.29102 a 0.52916503,0.52916503 0 0 0 0.52734,0.5293 0.52916503,0.52916503 0 0 0 0.5293,-0.5293 v -5.29102 a 0.52916503,0.52916503 0 0 0 -0.5293,-0.52929 z m -100.84375,3.625 a 0.52916503,0.52916503 0 0 0 -0.52929,0.52929 v 5.29102 a 0.52916503,0.52916503 0 0 0 0.52929,0.5293 0.52916503,0.52916503 0 0 0 0.5293,-0.5293 v -5.29102 a 0.52916503,0.52916503 0 0 0 -0.5293,-0.52929 z m 100.84375,6.95898 a 0.52916503,0.52916503 0 0 0 -0.52734,0.5293 v 5.29101 a 0.52916503,0.52916503 0 0 0 0.52734,0.5293 0.52916503,0.52916503 0 0 0 0.5293,-0.5293 v -5.29101 a 0.52916503,0.52916503 0 0 0 -0.5293,-0.5293 z m -100.84375,3.62305 a 0.52916503,0.52916503 0 0 0 -0.52929,0.52929 v 5.29297 a 0.52916503,0.52916503 0 0 0 0.52929,0.5293 0.52916503,0.52916503 0 0 0 0.5293,-0.5293 v -5.29297 a 0.52916503,0.52916503 0 0 0 -0.5293,-0.52929 z m 100.84375,6.95898 a 0.52916503,0.52916503 0 0 0 -0.52734,0.5293 v 5.29297 a 0.52916503,0.52916503 0 0 0 0.52734,0.52929 0.52916503,0.52916503 0 0 0 0.5293,-0.52929 v -5.29297 a 0.52916503,0.52916503 0 0 0 -0.5293,-0.5293 z m -100.84375,3.625 a 0.52916503,0.52916503 0 0 0 -0.52929,0.5293 v 3.85742 h 2.49218 a 0.52916503,0.52916503 0 0 0 0.5293,-0.5293 0.52916503,0.52916503 0 0 0 -0.5293,-0.52929 h -1.43359 v -2.79883 a 0.52916503,0.52916503 0 0 0 -0.5293,-0.5293 z m 7.25586,3.32813 a 0.52916503,0.52916503 0 0 0 -0.5293,0.52929 0.52916503,0.52916503 0 0 0 0.5293,0.5293 h 5.29102 a 0.52916503,0.52916503 0 0 0 0.52929,-0.5293 0.52916503,0.52916503 0 0 0 -0.52929,-0.52929 z m 10.58203,0 a 0.52916503,0.52916503 0 0 0 -0.52734,0.52929 0.52916503,0.52916503 0 0 0 0.52734,0.5293 h 5.29297 a 0.52916503,0.52916503 0 0 0 0.5293,-0.5293 0.52916503,0.52916503 0 0 0 -0.5293,-0.52929 z m 10.58399,0 a 0.52916503,0.52916503 0 0 0 -0.5293,0.52929 0.52916503,0.52916503 0 0 0 0.5293,0.5293 h 5.29101 a 0.52916503,0.52916503 0 0 0 0.5293,-0.5293 0.52916503,0.52916503 0 0 0 -0.5293,-0.52929 z m 10.58398,0 a 0.52916503,0.52916503 0 0 0 -0.5293,0.52929 0.52916503,0.52916503 0 0 0 0.5293,0.5293 h 5.29102 a 0.52916503,0.52916503 0 0 0 0.52929,-0.5293 0.52916503,0.52916503 0 0 0 -0.52929,-0.52929 z m 10.58203,0 a 0.52916503,0.52916503 0 0 0 -0.52734,0.52929 0.52916503,0.52916503 0 0 0 0.52734,0.5293 h 5.29297 a 0.52916503,0.52916503 0 0 0 0.5293,-0.5293 0.52916503,0.52916503 0 0 0 -0.5293,-0.52929 z m 10.58399,0 a 0.52916503,0.52916503 0 0 0 -0.5293,0.52929 0.52916503,0.52916503 0 0 0 0.5293,0.5293 h 5.29101 a 0.52916503,0.52916503 0 0 0 0.5293,-0.5293 0.52916503,0.52916503 0 0 0 -0.5293,-0.52929 z m 10.58398,0 a 0.52916503,0.52916503 0 0 0 -0.5293,0.52929 0.52916503,0.52916503 0 0 0 0.5293,0.5293 h 5.29102 a 0.52916503,0.52916503 0 0 0 0.52929,-0.5293 0.52916503,0.52916503 0 0 0 -0.52929,-0.52929 z m 10.58203,0 a 0.52916503,0.52916503 0 0 0 -0.52734,0.52929 0.52916503,0.52916503 0 0 0 0.52734,0.5293 h 5.29297 a 0.52916503,0.52916503 0 0 0 0.5293,-0.5293 0.52916503,0.52916503 0 0 0 -0.5293,-0.52929 z m 10.58399,0 a 0.52916503,0.52916503 0 0 0 -0.5293,0.52929 0.52916503,0.52916503 0 0 0 0.5293,0.5293 h 5.29101 a 0.52916503,0.52916503 0 0 0 0.5293,-0.5293 0.52916503,0.52916503 0 0 0 -0.5293,-0.52929 z"
       id="rect16-5-9" />
  </g>
</svg>
