<?xml version="1.0" encoding="UTF-8" standalone="no"?>
<!-- Created with Inkscape (http://www.inkscape.org/) -->

<svg
   width="212.39565mm"
   height="97.666481mm"
   viewBox="0 0 212.39565 97.666481"
   version="1.1"
   id="svg1"
   inkscape:version="1.4.2 (f4327f4, 2025-05-13)"
   sodipodi:docname="fraværFør.svg"
   xmlns:inkscape="http://www.inkscape.org/namespaces/inkscape"
   xmlns:sodipodi="http://sodipodi.sourceforge.net/DTD/sodipodi-0.dtd"
   xmlns="http://www.w3.org/2000/svg"
   xmlns:svg="http://www.w3.org/2000/svg">
  <sodipodi:namedview
     id="namedview1"
     pagecolor="#ffffff"
     bordercolor="#000000"
     borderopacity="0.25"
     inkscape:showpageshadow="2"
     inkscape:pageopacity="0.0"
     inkscape:pagecheckerboard="0"
     inkscape:deskcolor="#d1d1d1"
     inkscape:document-units="mm"
     inkscape:zoom="1.5643378"
     inkscape:cx="525.78158"
     inkscape:cy="238.43955"
     inkscape:window-width="1920"
     inkscape:window-height="1057"
     inkscape:window-x="-8"
     inkscape:window-y="131"
     inkscape:window-maximized="1"
     inkscape:current-layer="layer1" />
  <defs
     id="defs1" />
  <g
     inkscape:label="Layer 1"
     inkscape:groupmode="layer"
     id="layer1"
     transform="translate(7.1436532,-0.26458031)">
    <path
       d="m 0.47048724,14.08754 q -0.21166599,0 -0.52916498,-0.02117 -0.30691569,-0.01058 -0.63499798,-0.04233 -0.31749898,-0.02117 -0.57149818,-0.04233 -0.2539992,-0.02117 -0.3492489,-0.03175 V 6.5733974 q 0.042333,0 0.2751658,-0.021167 0.2328326,-0.021167 0.57149819,-0.042333 0.33866559,-0.03175 0.69849777,-0.052917 0.37041549,-0.021167 0.65616458,-0.021167 0.81491406,0 1.32291246,0.3069157 0.5185817,0.2963324 0.7937475,0.8254974 0.2751658,0.5185817 0.3809988,1.1959128 0.105833,0.6667479 0.105833,1.4075786 0,1.460496 -0.3598322,2.317743 Q 2.4813142,13.346709 1.8674828,13.717125 1.2536514,14.08754 0.47048724,14.08754 Z M 0.35407095,13.314959 q 0.57149818,0 0.84666395,-0.07408 0.2751658,-0.08467 0.4127487,-0.222249 0.1481662,-0.148166 0.2751658,-0.465665 0.1375829,-0.317499 0.2222493,-0.910164 0.084666,-0.592665 0.084666,-1.545162 0,-0.9630801 -0.1375829,-1.6933277 -0.1269996,-0.7302477 -0.423332,-0.9842469 -0.105833,-0.09525 -0.3386656,-0.1481662 -0.2222493,-0.0635 -0.68791446,-0.0635 -0.42333199,0 -0.81491407,0.042333 -0.39158209,0.03175 -0.67733118,0.052916 l 0.1587495,-0.423332 v 6.7309789 l -0.1904994,-0.433916 q 0.30691569,0.04233 0.60324808,0.09525 0.29633239,0.04233 0.66674788,0.04233 z m 6.64631775,0.761998 q -0.8784138,0 -1.3864122,-0.391582 -0.4974151,-0.391582 -0.7090811,-1.111247 -0.211666,-0.719664 -0.211666,-1.714494 0,-0.9948304 0.211666,-1.7144948 0.211666,-0.7196643 0.7090811,-1.1112464 0.5079984,-0.3915821 1.3864122,-0.3915821 0.8784139,0 1.375829,0.3915821 0.5079984,0.3915821 0.7196644,1.1112464 0.211666,0.7196644 0.211666,1.7144948 0,0.99483 -0.211666,1.714494 -0.211666,0.719665 -0.7196644,1.111247 -0.4974151,0.391582 -1.375829,0.391582 z m 0,-0.761998 q 0.4021654,0 0.6667479,-0.09525 0.2751658,-0.09525 0.4339153,-0.349249 0.1693328,-0.253999 0.2328326,-0.740831 0.074083,-0.486832 0.074083,-1.269996 0,-0.783164 -0.074083,-1.2699962 Q 8.2703847,9.102806 8.1010519,8.8488068 7.9423024,8.5842244 7.6671366,8.499558 q -0.2645825,-0.09525 -0.6667479,-0.09525 -0.4021654,0 -0.6773311,0.09525 -0.2645825,0.084666 -0.4339153,0.3492488 -0.1587495,0.2539992 -0.2328326,0.740831 -0.074083,0.4868322 -0.074083,1.2699962 0,0.783164 0.074083,1.269996 0.074083,0.486832 0.2328326,0.740831 0.1693328,0.253999 0.4339153,0.349249 0.2751657,0.09525 0.6773311,0.09525 z m 7.5247283,0.624415 -2.635241,-3.323156 2.455325,-2.8363244 h 1.132413 l -2.582325,2.7728244 v 0.05292 l 2.772825,3.333739 z m -3.524239,0 0.05292,-3.397239 -0.05292,-4.5719857 h 0.878414 v 7.9692247 z m 7.048472,0.137583 q -0.423332,0 -0.783165,-0.201083 -0.349248,-0.211666 -0.560914,-0.687914 -0.201083,-0.476249 -0.201083,-1.312329 V 7.7798936 h 0.878414 v 3.7676544 q 0,0.582082 0.03175,0.952497 0.03175,0.370416 0.116416,0.518582 0.07408,0.116416 0.232833,0.169333 0.169332,0.05292 0.380998,0.05292 0.476249,0 0.941914,-0.179916 0.476248,-0.190499 0.888997,-0.380999 V 7.7798936 h 0.878414 v 6.1594804 h -0.592665 l -0.105833,-0.592665 h -0.0635 q -0.158749,0.08467 -0.476248,0.264583 -0.317499,0.169332 -0.719664,0.317499 -0.402166,0.148166 -0.846664,0.148166 z m 4.942404,-0.137583 V 7.7798936 h 0.592665 l 0.09525,0.6032481 h 0.04233 q 0.09525,-0.052917 0.317499,-0.1693328 0.222249,-0.1269996 0.518581,-0.2539992 0.296333,-0.1375829 0.624415,-0.2222493 0.328082,-0.09525 0.645581,-0.09525 0.455082,0 0.783164,0.211666 0.338666,0.211666 0.476249,0.5820815 0.444499,-0.2751658 0.984247,-0.529165 0.550331,-0.2645825 1.164163,-0.2645825 0.571498,0 0.888997,0.2751658 0.317499,0.2751658 0.444499,0.7831641 0.126999,0.4974151 0.126999,1.1853296 v 4.0534038 h -0.878414 v -3.757071 q 0,-0.4974155 -0.02117,-0.8889976 Q 29.775649,8.9017233 29.659233,8.7218072 29.5534,8.5524745 29.3629,8.5207246 q -0.179916,-0.042333 -0.296332,-0.042333 -0.285749,0 -0.592665,0.084666 -0.296332,0.074083 -0.560915,0.1904993 -0.264582,0.105833 -0.444498,0.2010827 -0.169333,0.09525 -0.22225,0.1269996 0.02117,0.1693328 0.03175,0.3598322 0.01058,0.1904994 0.01058,0.4021654 v 4.095737 H 26.41016 v -3.788821 q 0,-0.6032484 -0.03175,-0.9313307 Q 26.357243,8.89114 26.240827,8.7112239 26.134994,8.5630578 25.976244,8.5207246 q -0.158749,-0.042333 -0.306915,-0.042333 -0.359832,0 -0.719665,0.1164163 -0.359832,0.1058329 -0.645581,0.2434158 -0.285749,0.1269996 -0.433915,0.1904994 v 4.9106511 z m 11.853293,0.148166 q -0.730247,0 -1.291162,-0.306916 -0.550332,-0.317499 -0.857247,-1.02658 -0.306916,-0.719664 -0.306916,-1.904994 0,-1.2382456 0.317499,-1.9367434 0.328082,-0.6984977 0.878414,-0.9842468 0.550331,-0.2963324 1.238246,-0.2963324 0.687914,0 1.164163,0.2751658 0.486832,0.2751658 0.740831,0.920747 0.253999,0.634998 0.253999,1.7144948 v 0.666748 h -4.063987 l 0.412749,-0.15875 q -0.04233,0.698498 0.03175,1.12183 0.08467,0.412749 0.201083,0.613831 0.127,0.201083 0.211666,0.285749 0.148166,0.127 0.359832,0.1905 0.211666,0.0635 0.518582,0.0635 0.306916,0 0.603248,-0.04233 0.296332,-0.05292 0.550332,-0.116416 0.253999,-0.07408 0.455082,-0.137583 0.201082,-0.07408 0.328082,-0.105833 l 0.222249,0.709081 q -0.09525,0.04233 -0.370415,0.15875 -0.275166,0.105833 -0.687915,0.201082 -0.402165,0.09525 -0.910164,0.09525 z m -1.513411,-3.196156 -0.412749,-0.380999 3.566572,-0.07408 -0.402166,0.391582 q 0.01058,-0.751414 -0.03175,-1.2911627 -0.03175,-0.5397483 -0.211666,-0.8254974 -0.07408,-0.1164162 -0.254,-0.2116659 -0.179916,-0.105833 -0.698497,-0.105833 -0.539749,0 -0.814914,0.1164163 -0.264583,0.1164163 -0.412749,0.3069156 -0.391582,0.5185817 -0.328082,2.0743271 z m 5.408058,3.04799 V 7.7798936 h 0.592665 l 0.09525,0.6032481 h 0.05292 q 0.09525,-0.052917 0.317499,-0.1693328 0.222249,-0.1269996 0.529165,-0.2539992 0.306916,-0.1375829 0.656165,-0.2222493 0.349248,-0.09525 0.698497,-0.09525 0.582082,0 0.888998,0.2963324 0.306915,0.2857491 0.412748,0.7831641 0.116417,0.4974151 0.116417,1.1218298 v 4.095737 H 42.2216 v -3.788821 q 0,-0.624415 -0.02117,-0.9524973 -0.02117,-0.3280823 -0.137583,-0.4974151 -0.08467,-0.1375828 -0.243416,-0.179916 -0.158749,-0.042333 -0.338665,-0.042333 -0.380999,0 -0.783165,0.1269996 -0.391582,0.1164162 -0.687914,0.2539991 -0.296332,0.1269996 -0.391582,0.1799161 v 4.9000678 z m 7.969223,0.148166 q -0.455082,0 -0.793747,-0.148166 -0.338666,-0.15875 -0.529165,-0.592665 -0.179917,-0.444498 -0.179917,-1.312329 V 8.8276402 H 44.507591 V 8.2773087 l 0.730247,-0.1481662 0.232833,-1.4393288 h 0.613831 v 1.4499121 h 1.227663 v 0.709081 H 46.084502 V 12.09788 q 0,0.582081 0.03175,0.846664 0.03175,0.264582 0.15875,0.338665 0.137583,0.0635 0.455082,0.0635 0.169332,0 0.296332,0 0.127,-0.01058 0.201083,-0.01058 0.07408,-0.01058 0.07408,-0.01058 v 0.709081 q 0,0 -0.15875,0.02117 -0.158749,0.03175 -0.433915,0.03175 z m 4.39207,0 q -0.730248,0 -1.291163,-0.306916 -0.550331,-0.317499 -0.857247,-1.02658 -0.306916,-0.719664 -0.306916,-1.904994 0,-1.2382456 0.317499,-1.9367434 0.328083,-0.6984977 0.878414,-0.9842468 0.550332,-0.2963324 1.238246,-0.2963324 0.687915,0 1.164163,0.2751658 0.486832,0.2751658 0.740831,0.920747 0.253999,0.634998 0.253999,1.7144948 v 0.666748 h -4.063987 l 0.412749,-0.15875 q -0.04233,0.698498 0.03175,1.12183 0.08467,0.412749 0.201083,0.613831 0.126999,0.201083 0.211666,0.285749 0.148166,0.127 0.359832,0.1905 0.211666,0.0635 0.518581,0.0635 0.306916,0 0.603249,-0.04233 0.296332,-0.05292 0.550331,-0.116416 0.253999,-0.07408 0.455082,-0.137583 0.201083,-0.07408 0.328082,-0.105833 l 0.22225,0.709081 q -0.09525,0.04233 -0.370416,0.15875 -0.275166,0.105833 -0.687914,0.201082 -0.402166,0.09525 -0.910164,0.09525 z m -1.513412,-3.196156 -0.412749,-0.380999 3.566572,-0.07408 -0.402165,0.391582 Q 52.349816,10.07647 52.307483,9.5367213 52.275733,8.996973 52.095817,8.7112239 52.021734,8.5948077 51.841818,8.499558 51.661902,8.393725 51.14332,8.393725 q -0.539748,0 -0.814914,0.1164163 -0.264582,0.1164163 -0.412749,0.3069156 -0.391582,0.5185817 -0.328082,2.0743271 z m 5.408059,3.04799 V 7.7798936 h 0.560914 l 0.116417,0.6244147 h 0.0635 q 0,0 0.158749,-0.1164163 0.169333,-0.1164163 0.433915,-0.2645825 0.264583,-0.1481662 0.560915,-0.2645825 0.306916,-0.1164163 0.571498,-0.1164163 0.15875,0 0.296333,0.03175 0.137583,0.021167 0.137583,0.021167 l -0.07408,0.846664 q 0,0 -0.137583,-0.010583 -0.137583,-0.010583 -0.254,-0.010583 -0.296332,0 -0.603248,0.084666 -0.296332,0.084666 -0.550331,0.2116659 -0.253999,0.1269996 -0.402166,0.2434159 v 4.8789012 z m 5.78907,0.148166 q -0.455082,0 -0.793748,-0.148166 -0.338665,-0.15875 -0.529165,-0.592665 -0.179916,-0.444498 -0.179916,-1.312329 V 8.8276402 H 58.583377 V 8.2773087 l 0.730248,-0.1481662 0.232833,-1.4393288 h 0.613831 v 1.4499121 h 1.227663 v 0.709081 H 60.160289 V 12.09788 q 0,0.582081 0.03175,0.846664 0.03175,0.264582 0.158749,0.338665 0.137583,0.0635 0.455082,0.0635 0.169333,0 0.296333,0 0.126999,-0.01058 0.201082,-0.01058 0.07408,-0.01058 0.07408,-0.01058 v 0.709081 q 0,0 -0.158749,0.02117 -0.15875,0.03175 -0.433915,0.03175 z"
       id="text10-55"
       style="font-size:10.5833px;line-height:1;font-family:Ruda;-inkscape-font-specification:Ruda;text-align:center;letter-spacing:0px;text-anchor:middle;fill:#d0e46c;stroke-width:0.352777;stroke-linecap:round;stroke-dasharray:1, 2;paint-order:fill markers stroke"
       aria-label="Dokumentert" />
    <path
       d="m 111.25976,13.911147 q -0.762,0 -1.30175,-0.285749 -0.52916,-0.296333 -0.80433,-1.02658 -0.27517,-0.730248 -0.27517,-2.031994 V 6.4075872 h 0.889 v 3.8734878 q 0,0.952497 0.0635,1.513412 0.0635,0.560915 0.22225,0.846664 0.15875,0.285749 0.4445,0.380998 0.29633,0.08467 0.762,0.08467 0.46566,0 0.76199,-0.09525 0.29634,-0.09525 0.45509,-0.370415 0.15875,-0.285749 0.22225,-0.846664 0.0635,-0.571498 0.0635,-1.513412 V 6.4075872 h 0.88899 v 4.0639868 q 0,1.354663 -0.28575,2.106077 -0.27516,0.740831 -0.80433,1.037163 -0.52916,0.296333 -1.30174,0.296333 z m 6.19122,-0.01058 q -0.5715,0 -1.016,-0.328082 -0.43391,-0.328082 -0.68791,-1.015997 -0.24342,-0.687914 -0.24342,-1.756827 0,-1.0265805 0.17992,-1.6721618 0.1905,-0.6561646 0.508,-1.0159967 0.3175,-0.3598322 0.69849,-0.4974151 0.39159,-0.1481662 0.80434,-0.1481662 0.34924,0 0.61383,0.042333 0.26458,0.042333 0.45508,0.09525 0.20108,0.052917 0.3175,0.105833 V 5.7937558 h 0.87841 V 13.76298 h -0.58208 l -0.11642,-0.634998 h -0.0529 q -0.13759,0.105833 -0.381,0.296333 -0.24342,0.179916 -0.59267,0.328082 -0.33866,0.148166 -0.78316,0.148166 z m 0.0529,-0.783164 q 0.21166,0 0.43391,-0.05292 0.22225,-0.0635 0.43392,-0.148167 0.22225,-0.08467 0.40216,-0.179916 0.1905,-0.09525 0.30692,-0.169332 V 8.5242471 q -0.127,-0.052917 -0.35983,-0.1164163 -0.22225,-0.0635 -0.508,-0.105833 -0.28575,-0.052916 -0.60325,-0.052916 -0.59267,0 -0.80433,0.2539991 -0.0847,0.1164163 -0.17992,0.3704155 -0.0847,0.2539992 -0.14816,0.7302477 -0.0529,0.4656653 -0.0529,1.2382463 0,0.86783 0.0847,1.312329 0.0953,0.444499 0.21166,0.613831 0.11642,0.169333 0.17992,0.22225 0.0847,0.07408 0.24341,0.105833 0.15875,0.02117 0.35984,0.02117 z m 6.4558,0.783164 q -0.87841,0 -1.38641,-0.391582 -0.49742,-0.391582 -0.70908,-1.111246 -0.21167,-0.719665 -0.21167,-1.714495 0,-0.9948299 0.21167,-1.7144943 0.21166,-0.7196643 0.70908,-1.1112464 0.508,-0.3915821 1.38641,-0.3915821 0.87842,0 1.37583,0.3915821 0.508,0.3915821 0.71967,1.1112464 0.21166,0.7196644 0.21166,1.7144943 0,0.99483 -0.21166,1.714495 -0.21167,0.719664 -0.71967,1.111246 -0.49741,0.391582 -1.37583,0.391582 z m 0,-0.761997 q 0.40217,0 0.66675,-0.09525 0.27517,-0.09525 0.43392,-0.349249 0.16933,-0.253999 0.23283,-0.740831 0.0741,-0.486832 0.0741,-1.269996 0,-0.7831639 -0.0741,-1.2699957 -0.0635,-0.4868318 -0.23283,-0.740831 -0.15875,-0.2645825 -0.43392,-0.3492489 -0.26458,-0.09525 -0.66675,-0.09525 -0.40216,0 -0.67733,0.09525 -0.26458,0.084666 -0.43391,0.3492489 -0.15875,0.2539992 -0.23284,0.740831 -0.0741,0.4868318 -0.0741,1.2699957 0,0.783164 0.0741,1.269996 0.0741,0.486832 0.23284,0.740831 0.16933,0.253999 0.43391,0.349249 0.27517,0.09525 0.67733,0.09525 z m 7.52473,0.624414 -2.63524,-3.323156 2.45532,-2.8363239 h 1.13242 l -2.58233,2.7728249 v 0.05292 l 2.77283,3.333739 z m -3.52424,0 0.0529,-3.397239 -0.0529,-4.5719852 h 0.87842 V 13.76298 Z m 7.04847,0.137583 q -0.42333,0 -0.78316,-0.201082 -0.34925,-0.211666 -0.56092,-0.687915 -0.20108,-0.476248 -0.20108,-1.312329 V 7.6035001 h 0.87841 v 3.7676549 q 0,0.582081 0.0317,0.952497 0.0317,0.370415 0.11642,0.518581 0.0741,0.116417 0.23283,0.169333 0.16934,0.05292 0.381,0.05292 0.47625,0 0.94192,-0.179916 0.47624,-0.1905 0.88899,-0.380999 V 7.6035001 h 0.87842 V 13.76298 h -0.59267 l -0.10583,-0.592664 h -0.0635 q -0.15875,0.08467 -0.47625,0.264582 -0.3175,0.169333 -0.71966,0.317499 -0.40217,0.148166 -0.84667,0.148166 z m 4.94241,-0.137583 V 7.6035001 h 0.59266 l 0.0952,0.6032481 h 0.0423 q 0.0952,-0.052917 0.3175,-0.1693328 0.22224,-0.1269996 0.51858,-0.2539992 0.29633,-0.1375829 0.62441,-0.2222493 0.32808,-0.09525 0.64558,-0.09525 0.45508,0 0.78317,0.211666 0.33866,0.211666 0.47625,0.5820814 0.44449,-0.2751657 0.98424,-0.5291649 0.55033,-0.2645825 1.16417,-0.2645825 0.57149,0 0.88899,0.2751658 0.3175,0.2751658 0.4445,0.7831641 0.127,0.4974151 0.127,1.1853296 V 13.76298 h -0.87841 v -3.757071 q 0,-0.497415 -0.0212,-0.8889971 -0.0212,-0.3915821 -0.13758,-0.5714982 -0.10584,-0.1693328 -0.29633,-0.2010827 -0.17992,-0.042333 -0.29634,-0.042333 -0.28575,0 -0.59266,0.084666 -0.29633,0.074083 -0.56092,0.1904994 -0.26458,0.105833 -0.4445,0.2010827 -0.16933,0.09525 -0.22224,0.1269996 0.0212,0.1693328 0.0318,0.3598322 0.0106,0.1904994 0.0106,0.4021654 V 13.76298 h -0.87842 V 9.9741592 q 0,-0.6032481 -0.0318,-0.9313304 -0.0212,-0.3280823 -0.13758,-0.5079984 -0.10583,-0.1481662 -0.26458,-0.1904994 -0.15875,-0.042333 -0.30692,-0.042333 -0.35983,0 -0.71966,0.1164163 -0.35983,0.105833 -0.64558,0.2434159 -0.28575,0.1269996 -0.43392,0.1904994 V 13.76298 Z m 11.85329,0.148167 q -0.73025,0 -1.29116,-0.306916 -0.55033,-0.317499 -0.85725,-1.02658 -0.30691,-0.719664 -0.30691,-1.904994 0,-1.2382461 0.3175,-1.9367439 0.32808,-0.6984977 0.87841,-0.9842468 0.55033,-0.2963324 1.23825,-0.2963324 0.68791,0 1.16416,0.2751658 0.48683,0.2751658 0.74083,0.920747 0.254,0.634998 0.254,1.7144943 v 0.666748 h -4.06399 l 0.41275,-0.158749 q -0.0423,0.698497 0.0317,1.121829 0.0847,0.412749 0.20108,0.613832 0.127,0.201082 0.21167,0.285749 0.14817,0.126999 0.35983,0.190499 0.21167,0.0635 0.51858,0.0635 0.30692,0 0.60325,-0.04233 0.29633,-0.05292 0.55033,-0.116416 0.254,-0.07408 0.45508,-0.137583 0.20109,-0.07408 0.32809,-0.105833 l 0.22225,0.709081 q -0.0953,0.04233 -0.37042,0.158749 -0.27517,0.105833 -0.68791,0.201083 -0.40217,0.09525 -0.91017,0.09525 z m -1.51341,-3.196157 -0.41275,-0.380999 3.56657,-0.07408 -0.40216,0.391582 q 0.0106,-0.7514139 -0.0317,-1.2911622 -0.0318,-0.5397483 -0.21167,-0.8254974 -0.0741,-0.1164163 -0.254,-0.211666 -0.17991,-0.1058329 -0.69849,-0.1058329 -0.53975,0 -0.81492,0.1164162 -0.26458,0.1164163 -0.41275,0.3069157 -0.39158,0.5185817 -0.32808,2.0743266 z m 5.40805,3.04799 V 7.6035001 h 0.59267 l 0.0952,0.6032481 h 0.0529 q 0.0952,-0.052917 0.31749,-0.1693328 0.22225,-0.1269996 0.52917,-0.2539992 0.30692,-0.1375829 0.65616,-0.2222493 0.34925,-0.09525 0.6985,-0.09525 0.58208,0 0.889,0.2963324 0.30692,0.2857491 0.41275,0.7831641 0.11641,0.4974151 0.11641,1.1218298 V 13.76298 h -0.87841 V 9.9741592 q 0,-0.6244147 -0.0212,-0.952497 -0.0212,-0.3280823 -0.13758,-0.4974151 -0.0847,-0.1375829 -0.24341,-0.1799161 -0.15875,-0.042333 -0.33867,-0.042333 -0.381,0 -0.78316,0.1269996 -0.39159,0.1164163 -0.68792,0.2539992 -0.29633,0.1269996 -0.39158,0.1799161 V 13.76298 Z m 7.96923,0.148167 q -0.45508,0 -0.79375,-0.148167 -0.33867,-0.158749 -0.52916,-0.592664 -0.17992,-0.444499 -0.17992,-1.312329 V 8.6512467 h -0.6985 V 8.1009152 l 0.73025,-0.1481662 0.23283,-1.4393288 h 0.61383 v 1.4499121 h 1.22767 v 0.709081 h -1.22767 v 3.2490727 q 0,0.582082 0.0317,0.846664 0.0318,0.264583 0.15875,0.338666 0.13759,0.0635 0.45508,0.0635 0.16934,0 0.29634,0 0.127,-0.01058 0.20108,-0.01058 0.0741,-0.01058 0.0741,-0.01058 v 0.709081 q 0,0 -0.15875,0.02117 -0.15875,0.03175 -0.43391,0.03175 z m 4.39207,0 q -0.73025,0 -1.29116,-0.306916 -0.55033,-0.317499 -0.85725,-1.02658 -0.30691,-0.719664 -0.30691,-1.904994 0,-1.2382461 0.3175,-1.9367439 0.32808,-0.6984977 0.87841,-0.9842468 0.55033,-0.2963324 1.23824,-0.2963324 0.68792,0 1.16417,0.2751658 0.48683,0.2751658 0.74083,0.920747 0.254,0.634998 0.254,1.7144943 v 0.666748 h -4.06399 l 0.41275,-0.158749 q -0.0423,0.698497 0.0318,1.121829 0.0847,0.412749 0.20108,0.613832 0.127,0.201082 0.21167,0.285749 0.14816,0.126999 0.35983,0.190499 0.21167,0.0635 0.51858,0.0635 0.30692,0 0.60325,-0.04233 0.29633,-0.05292 0.55033,-0.116416 0.254,-0.07408 0.45508,-0.137583 0.20109,-0.07408 0.32809,-0.105833 l 0.22225,0.709081 q -0.0952,0.04233 -0.37042,0.158749 -0.27517,0.105833 -0.68791,0.201083 -0.40217,0.09525 -0.91017,0.09525 z m -1.51341,-3.196157 -0.41275,-0.380999 3.56657,-0.07408 -0.40216,0.391582 q 0.0106,-0.7514139 -0.0318,-1.2911622 -0.0317,-0.5397483 -0.21167,-0.8254974 -0.0741,-0.1164163 -0.254,-0.211666 -0.17991,-0.1058329 -0.6985,-0.1058329 -0.53974,0 -0.81491,0.1164162 -0.26458,0.1164163 -0.41275,0.3069157 -0.39158,0.5185817 -0.32808,2.0743266 z m 5.40806,3.04799 V 7.6035001 h 0.56091 l 0.11642,0.6244147 h 0.0635 q 0,0 0.15875,-0.1164163 0.16933,-0.1164163 0.43391,-0.2645825 0.26459,-0.1481662 0.56092,-0.2645825 0.30691,-0.1164163 0.5715,-0.1164163 0.15875,0 0.29633,0.03175 0.13758,0.021167 0.13758,0.021167 l -0.0741,0.8466639 q 0,0 -0.13758,-0.010583 -0.13759,-0.010583 -0.254,-0.010583 -0.29634,0 -0.60325,0.084666 -0.29633,0.084666 -0.55033,0.211666 -0.254,0.1269996 -0.40217,0.2434159 V 13.76298 Z m 5.78906,0.148167 q -0.45508,0 -0.79374,-0.148167 -0.33867,-0.158749 -0.52917,-0.592664 -0.17991,-0.444499 -0.17991,-1.312329 V 8.6512467 h -0.6985 V 8.1009152 l 0.73025,-0.1481662 0.23283,-1.4393288 h 0.61383 v 1.4499121 h 1.22766 v 0.709081 h -1.22766 v 3.2490727 q 0,0.582082 0.0318,0.846664 0.0317,0.264583 0.15875,0.338666 0.13758,0.0635 0.45508,0.0635 0.16933,0 0.29633,0 0.127,-0.01058 0.20109,-0.01058 0.0741,-0.01058 0.0741,-0.01058 v 0.709081 q 0,0 -0.15875,0.02117 -0.15875,0.03175 -0.43392,0.03175 z"
       id="text11-7"
       style="font-size:10.5833px;line-height:1;font-family:Ruda;-inkscape-font-specification:Ruda;text-align:center;letter-spacing:0px;text-anchor:middle;fill:#ffaaaa;stroke-width:0.352777;stroke-linecap:round;stroke-dasharray:1, 2;paint-order:fill markers stroke"
       aria-label="Udokumentert" />
    <g
       id="text12-5"
       style="font-size:10.5833px;line-height:1;font-family:Ruda;-inkscape-font-specification:Ruda;text-align:center;letter-spacing:0px;text-anchor:middle;fill:#f1e9f1;stroke-width:0.352777;stroke-linecap:round;stroke-dasharray:0.999998, 2;paint-order:fill markers stroke"
       aria-label="Teller ikke&#10;mot 10%">
      <path
         d="m 21.082626,47.873672 0.02117,-6.603978 -2.063743,0.03175 V 40.518279 H 24.0142 v 0.783164 l -2.063744,-0.03175 0.02117,6.603978 z m 5.746732,0.148167 q -0.730248,0 -1.291163,-0.306916 -0.550332,-0.317499 -0.857247,-1.02658 -0.306916,-0.719664 -0.306916,-1.904994 0,-1.238246 0.317499,-1.936744 0.328082,-0.698498 0.878414,-0.984247 0.550331,-0.296332 1.238246,-0.296332 0.687914,0 1.164163,0.275166 0.486832,0.275165 0.740831,0.920747 0.253999,0.634998 0.253999,1.714494 v 0.666748 h -4.063987 l 0.412749,-0.158749 q -0.04233,0.698497 0.03175,1.121829 0.08467,0.412749 0.201082,0.613832 0.127,0.201083 0.211666,0.285749 0.148166,0.127 0.359832,0.190499 0.211666,0.0635 0.518582,0.0635 0.306916,0 0.603248,-0.04233 0.296333,-0.05292 0.550332,-0.116416 0.253999,-0.07408 0.455082,-0.137583 0.201082,-0.07408 0.328082,-0.105833 l 0.222249,0.709081 q -0.09525,0.04233 -0.370415,0.158749 -0.275166,0.105833 -0.687915,0.201083 -0.402165,0.09525 -0.910163,0.09525 z m -1.513412,-3.196157 -0.412749,-0.380999 3.566572,-0.07408 -0.402165,0.391582 q 0.01058,-0.751414 -0.03175,-1.291162 -0.03175,-0.539748 -0.211666,-0.825498 -0.07408,-0.116416 -0.253999,-0.211666 -0.179917,-0.105833 -0.698498,-0.105833 -0.539749,0 -0.814914,0.116417 -0.264583,0.116416 -0.412749,0.306915 -0.391582,0.518582 -0.328082,2.074327 z m 5.460974,3.04799 v -7.969224 h 0.878414 v 7.969224 z m 3.122074,0 v -7.969224 h 0.878414 v 7.969224 z m 5.217567,0.148167 q -0.730247,0 -1.291162,-0.306916 -0.550332,-0.317499 -0.857248,-1.02658 -0.306915,-0.719664 -0.306915,-1.904994 0,-1.238246 0.317499,-1.936744 0.328082,-0.698498 0.878414,-0.984247 0.550331,-0.296332 1.238246,-0.296332 0.687914,0 1.164163,0.275166 0.486831,0.275165 0.740831,0.920747 0.253999,0.634998 0.253999,1.714494 v 0.666748 h -4.063987 l 0.412748,-0.158749 q -0.04233,0.698497 0.03175,1.121829 0.08467,0.412749 0.201083,0.613832 0.127,0.201083 0.211666,0.285749 0.148166,0.127 0.359832,0.190499 0.211666,0.0635 0.518582,0.0635 0.306916,0 0.603248,-0.04233 0.296332,-0.05292 0.550332,-0.116416 0.253999,-0.07408 0.455081,-0.137583 0.201083,-0.07408 0.328083,-0.105833 l 0.222249,0.709081 q -0.09525,0.04233 -0.370415,0.158749 -0.275166,0.105833 -0.687915,0.201083 -0.402165,0.09525 -0.910164,0.09525 z m -1.513412,-3.196157 -0.412748,-0.380999 3.566572,-0.07408 -0.402166,0.391582 q 0.01058,-0.751414 -0.03175,-1.291162 -0.03175,-0.539748 -0.211666,-0.825498 -0.07408,-0.116416 -0.253999,-0.211666 -0.179916,-0.105833 -0.698497,-0.105833 -0.539749,0 -0.814915,0.116417 -0.264582,0.116416 -0.412748,0.306915 -0.391582,0.518582 -0.328083,2.074327 z m 5.408057,3.04799 v -6.15948 h 0.560915 l 0.116416,0.624415 h 0.0635 q 0,0 0.15875,-0.116417 0.169332,-0.116416 0.433915,-0.264582 0.264582,-0.148166 0.560915,-0.264583 0.306915,-0.116416 0.571498,-0.116416 0.158749,0 0.296332,0.03175 0.137583,0.02117 0.137583,0.02117 l -0.07408,0.846664 q 0,0 -0.137583,-0.01058 -0.137583,-0.01058 -0.253999,-0.01058 -0.296332,0 -0.603248,0.08467 -0.296332,0.08467 -0.550332,0.211666 -0.253999,0.127 -0.402165,0.243416 v 4.878901 z m 6.773315,0 v -6.15948 h 0.878413 v 6.15948 z m -0.09525,-7.207227 v -0.89958 h 1.079496 v 0.89958 z m 6.572228,7.207227 -2.635242,-3.323156 2.455326,-2.836324 h 1.132413 l -2.582325,2.772825 v 0.05292 l 2.772824,3.333739 z m -3.524239,0 0.05292,-3.397239 -0.05292,-4.571985 h 0.878414 v 7.969224 z m 9.048718,0 -2.635242,-3.323156 2.455326,-2.836324 h 1.132413 l -2.582326,2.772825 v 0.05292 l 2.772825,3.333739 z m -3.524239,0 0.05292,-3.397239 -0.05292,-4.571985 h 0.878414 v 7.969224 z m 7.577627,0.148167 q -0.730247,0 -1.291162,-0.306916 -0.550332,-0.317499 -0.857247,-1.02658 -0.306916,-0.719664 -0.306916,-1.904994 0,-1.238246 0.317499,-1.936744 0.328082,-0.698498 0.878414,-0.984247 0.550331,-0.296332 1.238246,-0.296332 0.687914,0 1.164163,0.275166 0.486831,0.275165 0.740831,0.920747 0.253999,0.634998 0.253999,1.714494 v 0.666748 h -4.063987 l 0.412748,-0.158749 q -0.04233,0.698497 0.03175,1.121829 0.08467,0.412749 0.201083,0.613832 0.127,0.201083 0.211666,0.285749 0.148166,0.127 0.359832,0.190499 0.211666,0.0635 0.518582,0.0635 0.306916,0 0.603248,-0.04233 0.296332,-0.05292 0.550332,-0.116416 0.253999,-0.07408 0.455081,-0.137583 0.201083,-0.07408 0.328083,-0.105833 l 0.222249,0.709081 q -0.09525,0.04233 -0.370415,0.158749 -0.275166,0.105833 -0.687915,0.201083 -0.402165,0.09525 -0.910164,0.09525 z m -1.513412,-3.196157 -0.412748,-0.380999 3.566572,-0.07408 -0.402166,0.391582 q 0.01058,-0.751414 -0.03175,-1.291162 -0.03175,-0.539748 -0.211665,-0.825498 -0.07408,-0.116416 -0.254,-0.211666 -0.179916,-0.105833 -0.698497,-0.105833 -0.539749,0 -0.814915,0.116417 -0.264582,0.116416 -0.412748,0.306915 -0.391582,0.518582 -0.328083,2.074327 z"
         id="path3" />
      <path
         d="m 23.876595,58.456972 v -6.15948 h 0.592664 l 0.09525,0.603248 h 0.04233 q 0.09525,-0.05292 0.317499,-0.169333 0.22225,-0.127 0.518582,-0.253999 0.296332,-0.137583 0.624415,-0.222249 0.328082,-0.09525 0.645581,-0.09525 0.455082,0 0.783164,0.211666 0.338666,0.211666 0.476249,0.582081 0.444498,-0.275165 0.984246,-0.529165 0.550332,-0.264582 1.164163,-0.264582 0.571499,0 0.888998,0.275166 0.317499,0.275165 0.444498,0.783164 0.127,0.497415 0.127,1.185329 v 4.053404 h -0.878414 v -3.757071 q 0,-0.497415 -0.02117,-0.888997 -0.02117,-0.391583 -0.137583,-0.571499 -0.105833,-0.169332 -0.296332,-0.201082 -0.179916,-0.04233 -0.296332,-0.04233 -0.285749,0 -0.592665,0.08467 -0.296333,0.07408 -0.560915,0.190499 -0.264583,0.105833 -0.444499,0.201083 -0.169332,0.09525 -0.222249,0.127 0.02117,0.169332 0.03175,0.359832 0.01058,0.190499 0.01058,0.402165 v 4.095737 H 27.295 v -3.788821 q 0,-0.603248 -0.03175,-0.931331 -0.02117,-0.328082 -0.137583,-0.507998 -0.105833,-0.148166 -0.264583,-0.190499 -0.158749,-0.04233 -0.306916,-0.04233 -0.359832,0 -0.719664,0.116416 -0.359832,0.105833 -0.645581,0.243416 -0.285749,0.126999 -0.433915,0.190499 v 4.910651 z m 11.68396,0.137583 q -0.878414,0 -1.386412,-0.391582 -0.497415,-0.391582 -0.709081,-1.111247 -0.211666,-0.719664 -0.211666,-1.714494 0,-0.99483 0.211666,-1.714495 0.211666,-0.719664 0.709081,-1.111246 0.507998,-0.391582 1.386412,-0.391582 0.878414,0 1.375829,0.391582 0.507999,0.391582 0.719665,1.111246 0.211666,0.719665 0.211666,1.714495 0,0.99483 -0.211666,1.714494 -0.211666,0.719665 -0.719665,1.111247 -0.497415,0.391582 -1.375829,0.391582 z m 0,-0.761998 q 0.402166,0 0.666748,-0.09525 0.275166,-0.09525 0.433915,-0.349249 0.169333,-0.253999 0.232833,-0.740831 0.07408,-0.486832 0.07408,-1.269996 0,-0.783164 -0.07408,-1.269996 -0.0635,-0.486832 -0.232833,-0.740831 -0.158749,-0.264582 -0.433915,-0.349249 -0.264582,-0.09525 -0.666748,-0.09525 -0.402165,0 -0.677331,0.09525 -0.264582,0.08467 -0.433915,0.349249 -0.15875,0.253999 -0.232833,0.740831 -0.07408,0.486832 -0.07408,1.269996 0,0.783164 0.07408,1.269996 0.07408,0.486832 0.232833,0.740831 0.169333,0.253999 0.433915,0.349249 0.275166,0.09525 0.677331,0.09525 z m 5.725568,0.772581 q -0.455082,0 -0.793747,-0.148166 -0.338666,-0.158749 -0.529165,-0.592665 -0.179916,-0.444498 -0.179916,-1.312329 v -3.20674 h -0.698498 v -0.550331 l 0.730248,-0.148166 0.232832,-1.439329 h 0.613832 v 1.449912 h 1.227662 v 0.709081 h -1.227662 v 3.249073 q 0,0.582081 0.03175,0.846664 0.03175,0.264582 0.15875,0.338666 0.137583,0.0635 0.455082,0.0635 0.169333,0 0.296332,0 0.127,-0.01058 0.201083,-0.01058 0.07408,-0.01058 0.07408,-0.01058 v 0.709081 q 0,0 -0.158749,0.02117 -0.15875,0.03175 -0.433916,0.03175 z m 4.529653,-0.148166 v -0.761997 l 1.767411,0.02117 0.07408,-5.810231 h -0.05292 l -1.555745,1.640411 -0.592665,-0.571498 2.074327,-1.947327 0.952497,0.07408 v 6.614562 l 1.555745,-0.02117 v 0.761997 z m 7.577643,0.137583 q -0.507998,0 -0.941913,-0.169333 -0.433916,-0.169333 -0.761998,-0.582081 -0.317499,-0.423332 -0.507998,-1.164163 -0.179916,-0.751414 -0.179916,-1.915577 0,-1.15358 0.179916,-1.894411 0.190499,-0.740831 0.507998,-1.15358 0.328082,-0.423332 0.761998,-0.582081 0.433915,-0.169333 0.941913,-0.169333 0.507999,0 0.941914,0.169333 0.433915,0.158749 0.761997,0.582081 0.328083,0.412749 0.507999,1.15358 0.179916,0.740831 0.179916,1.894411 0,1.164163 -0.179916,1.915577 -0.179916,0.740831 -0.507999,1.164163 -0.328082,0.412748 -0.761997,0.582081 -0.433915,0.169333 -0.941914,0.169333 z m 0.01058,-0.804331 q 0.486831,0 0.80433,-0.243416 0.328083,-0.253999 0.497415,-0.910163 0.169333,-0.656165 0.169333,-1.873244 0,-0.941914 -0.105833,-1.534579 -0.09525,-0.592665 -0.285749,-0.910164 -0.190499,-0.317499 -0.465665,-0.433915 -0.275166,-0.127 -0.624415,-0.127 -0.349249,0 -0.624414,0.116417 -0.275166,0.116416 -0.465666,0.433915 -0.190499,0.317499 -0.285749,0.910164 -0.09525,0.582081 -0.09525,1.523995 0,1.217079 0.158749,1.883827 0.169333,0.656165 0.497415,0.910164 0.338666,0.253999 0.825498,0.253999 z m 5.005903,0.761998 1.968494,-4.13807 1.650994,-3.714739 h 0.783164 l -1.873244,4.042821 -1.735661,3.809988 z m 0.158749,-4.402653 q -0.391582,0 -0.761997,-0.158749 -0.359832,-0.15875 -0.592665,-0.507999 -0.232833,-0.349249 -0.232833,-0.93133 0,-0.582082 0.232833,-0.920747 0.232833,-0.349249 0.592665,-0.497415 0.370415,-0.15875 0.761997,-0.15875 0.391582,0 0.751415,0.15875 0.370415,0.148166 0.603248,0.497415 0.232832,0.338665 0.232832,0.920747 0,0.582081 -0.232832,0.93133 -0.232833,0.349249 -0.603248,0.507999 -0.359833,0.158749 -0.751415,0.158749 z m 0,-0.709081 q 0.370416,0 0.603248,-0.190499 0.243416,-0.1905 0.243416,-0.698498 0,-0.497415 -0.243416,-0.677331 -0.232832,-0.1905 -0.603248,-0.1905 -0.370415,0 -0.613831,0.1905 -0.232833,0.179916 -0.232833,0.677331 0,0.507998 0.232833,0.698498 0.243416,0.190499 0.613831,0.190499 z m 4.159237,5.090567 q -0.402165,0 -0.772581,-0.158749 -0.359832,-0.15875 -0.592665,-0.507999 -0.232832,-0.349249 -0.232832,-0.93133 0,-0.582082 0.232832,-0.920747 0.232833,-0.349249 0.592665,-0.497415 0.370416,-0.15875 0.772581,-0.15875 0.391582,0 0.751414,0.15875 0.370416,0.148166 0.603248,0.497415 0.232833,0.338665 0.232833,0.920747 0,0.582081 -0.232833,0.93133 -0.232832,0.349249 -0.603248,0.507999 -0.359832,0.158749 -0.751414,0.158749 z m 0,-0.709081 q 0.370416,0 0.603248,-0.190499 0.232833,-0.1905 0.232833,-0.698498 0,-0.497415 -0.232833,-0.677331 -0.232832,-0.1905 -0.603248,-0.1905 -0.380999,0 -0.613831,0.1905 -0.232833,0.179916 -0.232833,0.677331 0,0.507998 0.232833,0.698498 0.232832,0.190499 0.613831,0.190499 z"
         id="path4" />
    </g>
    <g
       id="text14-6"
       style="font-size:10.5833px;line-height:1;font-family:Ruda;-inkscape-font-specification:Ruda;text-align:center;letter-spacing:0px;text-anchor:middle;fill:#f1e9f1;stroke-width:0.352777;stroke-linecap:round;stroke-dasharray:1, 2;paint-order:fill markers stroke"
       aria-label="Teller mot&#10;10%">
      <path
         d="m 131.99105,47.721985 0.0212,-6.603979 -2.06375,0.03175 v -0.783164 h 4.97415 v 0.783164 l -2.06374,-0.03175 0.0212,6.603979 z m 5.74673,0.148166 q -0.73025,0 -1.29116,-0.306916 -0.55033,-0.317499 -0.85725,-1.02658 -0.30691,-0.719664 -0.30691,-1.904994 0,-1.238246 0.31749,-1.936743 0.32809,-0.698498 0.87842,-0.984247 0.55033,-0.296333 1.23824,-0.296333 0.68792,0 1.16417,0.275166 0.48683,0.275166 0.74083,0.920747 0.254,0.634998 0.254,1.714495 v 0.666748 h -4.06399 l 0.41275,-0.15875 q -0.0423,0.698498 0.0318,1.12183 0.0847,0.412749 0.20108,0.613831 0.127,0.201083 0.21167,0.285749 0.14816,0.127 0.35983,0.1905 0.21167,0.0635 0.51858,0.0635 0.30692,0 0.60325,-0.04233 0.29633,-0.05292 0.55033,-0.116416 0.254,-0.07408 0.45508,-0.137583 0.20109,-0.07408 0.32809,-0.105833 l 0.22224,0.709081 q -0.0952,0.04233 -0.37041,0.15875 -0.27517,0.105833 -0.68792,0.201082 -0.40216,0.09525 -0.91016,0.09525 z m -1.51341,-3.196156 -0.41275,-0.380999 3.56657,-0.07408 -0.40216,0.391582 q 0.0106,-0.751415 -0.0318,-1.291163 -0.0317,-0.539748 -0.21167,-0.825497 -0.0741,-0.116416 -0.254,-0.211666 -0.17991,-0.105833 -0.6985,-0.105833 -0.53974,0 -0.81491,0.116416 -0.26458,0.116416 -0.41275,0.306916 -0.39158,0.518582 -0.32808,2.074327 z m 5.46097,3.04799 V 39.75276 h 0.87842 v 7.969225 z m 3.12208,0 V 39.75276 h 0.87841 v 7.969225 z m 5.21756,0.148166 q -0.73024,0 -1.29116,-0.306916 -0.55033,-0.317499 -0.85725,-1.02658 -0.30691,-0.719664 -0.30691,-1.904994 0,-1.238246 0.3175,-1.936743 0.32808,-0.698498 0.87841,-0.984247 0.55033,-0.296333 1.23825,-0.296333 0.68791,0 1.16416,0.275166 0.48683,0.275166 0.74083,0.920747 0.254,0.634998 0.254,1.714495 v 0.666748 h -4.06399 l 0.41275,-0.15875 q -0.0423,0.698498 0.0317,1.12183 0.0847,0.412749 0.20109,0.613831 0.127,0.201083 0.21166,0.285749 0.14817,0.127 0.35983,0.1905 0.21167,0.0635 0.51859,0.0635 0.30691,0 0.60324,-0.04233 0.29634,-0.05292 0.55034,-0.116416 0.25399,-0.07408 0.45508,-0.137583 0.20108,-0.07408 0.32808,-0.105833 l 0.22225,0.709081 q -0.0952,0.04233 -0.37042,0.15875 -0.27516,0.105833 -0.68791,0.201082 -0.40217,0.09525 -0.91017,0.09525 z m -1.51341,-3.196156 -0.41275,-0.380999 3.56658,-0.07408 -0.40217,0.391582 q 0.0106,-0.751415 -0.0317,-1.291163 -0.0318,-0.539748 -0.21167,-0.825497 -0.0741,-0.116416 -0.25399,-0.211666 -0.17992,-0.105833 -0.6985,-0.105833 -0.53975,0 -0.81492,0.116416 -0.26458,0.116416 -0.41274,0.306916 -0.39159,0.518582 -0.32809,2.074327 z m 5.40806,3.04799 v -6.159481 h 0.56091 l 0.11642,0.624415 h 0.0635 q 0,0 0.15875,-0.116416 0.16933,-0.116416 0.43392,-0.264583 0.26458,-0.148166 0.56091,-0.264582 0.30692,-0.116416 0.5715,-0.116416 0.15875,0 0.29633,0.03175 0.13758,0.02117 0.13758,0.02117 l -0.0741,0.846664 q 0,0 -0.13758,-0.01058 -0.13759,-0.01058 -0.254,-0.01058 -0.29633,0 -0.60325,0.08467 -0.29633,0.08467 -0.55033,0.211666 -0.254,0.126999 -0.40217,0.243416 v 4.878901 z m 6.7204,0 v -6.159481 h 0.59266 l 0.0953,0.603249 h 0.0423 q 0.0952,-0.05292 0.31749,-0.169333 0.22225,-0.127 0.51859,-0.253999 0.29633,-0.137583 0.62441,-0.22225 0.32808,-0.09525 0.64558,-0.09525 0.45508,0 0.78317,0.211666 0.33866,0.211666 0.47624,0.582081 0.4445,-0.275166 0.98425,-0.529165 0.55033,-0.264582 1.16416,-0.264582 0.5715,0 0.889,0.275165 0.3175,0.275166 0.4445,0.783165 0.127,0.497415 0.127,1.185329 v 4.053404 h -0.87841 v -3.757072 q 0,-0.497415 -0.0212,-0.888997 -0.0212,-0.391582 -0.13758,-0.571498 -0.10584,-0.169333 -0.29634,-0.201083 -0.17991,-0.04233 -0.29633,-0.04233 -0.28575,0 -0.59266,0.08467 -0.29634,0.07408 -0.56092,0.190499 -0.26458,0.105833 -0.4445,0.201083 -0.16933,0.09525 -0.22225,0.126999 0.0212,0.169333 0.0318,0.359833 0.0106,0.190499 0.0106,0.402165 v 4.095737 h -0.87842 v -3.788821 q 0,-0.603248 -0.0317,-0.931331 -0.0212,-0.328082 -0.13758,-0.507998 -0.10583,-0.148166 -0.26458,-0.1905 -0.15875,-0.04233 -0.30692,-0.04233 -0.35983,0 -0.71966,0.116417 -0.35983,0.105833 -0.64558,0.243415 -0.28575,0.127 -0.43392,0.1905 v 4.910651 z m 11.68396,0.137583 q -0.87842,0 -1.38642,-0.391582 -0.49741,-0.391582 -0.70908,-1.111247 -0.21166,-0.719664 -0.21166,-1.714494 0,-0.99483 0.21166,-1.714495 0.21167,-0.719664 0.70908,-1.111246 0.508,-0.391582 1.38642,-0.391582 0.87841,0 1.37583,0.391582 0.50799,0.391582 0.71966,1.111246 0.21167,0.719665 0.21167,1.714495 0,0.99483 -0.21167,1.714494 -0.21167,0.719665 -0.71966,1.111247 -0.49742,0.391582 -1.37583,0.391582 z m 0,-0.761998 q 0.40216,0 0.66674,-0.09525 0.27517,-0.09525 0.43392,-0.349248 0.16933,-0.254 0.23283,-0.740831 0.0741,-0.486832 0.0741,-1.269996 0,-0.783165 -0.0741,-1.269996 -0.0635,-0.486832 -0.23283,-0.740831 -0.15875,-0.264583 -0.43392,-0.349249 -0.26458,-0.09525 -0.66674,-0.09525 -0.40217,0 -0.67733,0.09525 -0.26459,0.08467 -0.43392,0.349249 -0.15875,0.253999 -0.23283,0.740831 -0.0741,0.486831 -0.0741,1.269996 0,0.783164 0.0741,1.269996 0.0741,0.486831 0.23283,0.740831 0.16933,0.253999 0.43392,0.349248 0.27516,0.09525 0.67733,0.09525 z m 5.72557,0.772581 q -0.45509,0 -0.79375,-0.148166 -0.33867,-0.15875 -0.52917,-0.592665 -0.17991,-0.444499 -0.17991,-1.312329 v -3.20674 h -0.6985 V 42.05992 l 0.73025,-0.148167 0.23283,-1.439328 h 0.61383 v 1.449912 h 1.22766 v 0.709081 h -1.22766 v 3.249073 q 0,0.582081 0.0317,0.846664 0.0318,0.264582 0.15875,0.338665 0.13758,0.0635 0.45508,0.0635 0.16934,0 0.29634,0 0.12699,-0.01058 0.20108,-0.01058 0.0741,-0.01058 0.0741,-0.01058 v 0.709082 q 0,0 -0.15875,0.02117 -0.15875,0.03175 -0.43391,0.03175 z"
         id="path1" />
      <path
         d="m 145.453,58.305285 v -0.761998 l 1.76741,0.02117 0.0741,-5.810232 h -0.0529 l -1.55575,1.640411 -0.59266,-0.571498 2.07432,-1.947327 0.9525,0.07408 v 6.614563 l 1.55575,-0.02117 v 0.761998 z m 7.57764,0.137582 q -0.508,0 -0.94191,-0.169332 -0.43392,-0.169333 -0.762,-0.582082 -0.3175,-0.423332 -0.508,-1.164163 -0.17991,-0.751414 -0.17991,-1.915577 0,-1.15358 0.17991,-1.894411 0.1905,-0.740831 0.508,-1.153579 0.32808,-0.423332 0.762,-0.582082 0.43391,-0.169333 0.94191,-0.169333 0.508,0 0.94192,0.169333 0.43391,0.15875 0.76199,0.582082 0.32809,0.412748 0.508,1.153579 0.17992,0.740831 0.17992,1.894411 0,1.164163 -0.17992,1.915577 -0.17991,0.740831 -0.508,1.164163 -0.32808,0.412749 -0.76199,0.582082 -0.43392,0.169332 -0.94192,0.169332 z m 0.0106,-0.80433 q 0.48683,0 0.80433,-0.243416 0.32808,-0.253999 0.49741,-0.910164 0.16933,-0.656165 0.16933,-1.873244 0,-0.941914 -0.10583,-1.534579 -0.0953,-0.592664 -0.28575,-0.910163 -0.1905,-0.317499 -0.46566,-0.433916 -0.27517,-0.126999 -0.62442,-0.126999 -0.34925,0 -0.62441,0.116416 -0.27517,0.116416 -0.46567,0.433915 -0.1905,0.317499 -0.28575,0.910164 -0.0952,0.582082 -0.0952,1.523995 0,1.21708 0.15875,1.883828 0.16934,0.656164 0.49742,0.910163 0.33866,0.254 0.8255,0.254 z m 5.0059,0.761997 1.9685,-4.13807 1.65099,-3.714738 h 0.78316 l -1.87324,4.04282 -1.73566,3.809988 z m 0.15875,-4.402652 q -0.39158,0 -0.762,-0.15875 -0.35983,-0.158749 -0.59266,-0.507998 -0.23283,-0.349249 -0.23283,-0.931331 0,-0.582081 0.23283,-0.920747 0.23283,-0.349249 0.59266,-0.497415 0.37042,-0.158749 0.762,-0.158749 0.39158,0 0.75142,0.158749 0.37041,0.148166 0.60324,0.497415 0.23284,0.338666 0.23284,0.920747 0,0.582082 -0.23284,0.931331 -0.23283,0.349249 -0.60324,0.507998 -0.35984,0.15875 -0.75142,0.15875 z m 0,-0.709082 q 0.37042,0 0.60325,-0.190499 0.24342,-0.190499 0.24342,-0.698498 0,-0.497415 -0.24342,-0.677331 -0.23283,-0.190499 -0.60325,-0.190499 -0.37041,0 -0.61383,0.190499 -0.23283,0.179916 -0.23283,0.677331 0,0.507999 0.23283,0.698498 0.24342,0.190499 0.61383,0.190499 z m 4.15924,5.090568 q -0.40217,0 -0.77258,-0.15875 -0.35983,-0.158749 -0.59267,-0.507998 -0.23283,-0.349249 -0.23283,-0.931331 0,-0.582081 0.23283,-0.920747 0.23284,-0.349249 0.59267,-0.497415 0.37041,-0.158749 0.77258,-0.158749 0.39158,0 0.75141,0.158749 0.37042,0.148166 0.60325,0.497415 0.23283,0.338666 0.23283,0.920747 0,0.582082 -0.23283,0.931331 -0.23283,0.349249 -0.60325,0.507998 -0.35983,0.15875 -0.75141,0.15875 z m 0,-0.709081 q 0.37041,0 0.60325,-0.1905 0.23283,-0.190499 0.23283,-0.698498 0,-0.497415 -0.23283,-0.677331 -0.23284,-0.190499 -0.60325,-0.190499 -0.381,0 -0.61383,0.190499 -0.23284,0.179916 -0.23284,0.677331 0,0.507999 0.23284,0.698498 0.23283,0.1905 0.61383,0.1905 z"
         id="path2" />
    </g>
    <path
       style="baseline-shift:baseline;display:inline;overflow:visible;vector-effect:none;fill:#d0e46c;stroke-linecap:round;stroke-dasharray:5.29167, 5.29167;paint-order:fill markers stroke;enable-background:accumulate;stop-color:#000000;stop-opacity:1;opacity:1"
       d="M -6.6152344,0.44140625 A 0.52916503,0.52916503 0 0 0 -7.1445312,0.97070313 V 2.7421875 a 0.52916503,0.52916503 0 0 0 0.5292968,0.5292969 0.52916503,0.52916503 0 0 0 0.5292969,-0.5292969 V 1.5 h 4.7636719 A 0.52916503,0.52916503 0 0 0 -0.79296875,0.97070313 0.52916503,0.52916503 0 0 0 -1.3222656,0.44140625 Z m 10.5839844,0 A 0.52916503,0.52916503 0 0 0 3.4394531,0.97070313 0.52916503,0.52916503 0 0 0 3.96875,1.5 H 9.2597656 A 0.52916503,0.52916503 0 0 0 9.7890625,0.97070313 0.52916503,0.52916503 0 0 0 9.2597656,0.44140625 Z m 10.583984,0 A 0.52916503,0.52916503 0 0 0 14.023438,0.97070313 0.52916503,0.52916503 0 0 0 14.552734,1.5 H 19.84375 A 0.52916503,0.52916503 0 0 0 20.373047,0.97070313 0.52916503,0.52916503 0 0 0 19.84375,0.44140625 Z m 10.582032,0 A 0.52916503,0.52916503 0 0 0 24.605469,0.97070313 0.52916503,0.52916503 0 0 0 25.134766,1.5 h 5.292968 A 0.52916503,0.52916503 0 0 0 30.957031,0.97070313 0.52916503,0.52916503 0 0 0 30.427734,0.44140625 Z m 10.583984,0 A 0.52916503,0.52916503 0 0 0 35.189453,0.97070313 0.52916503,0.52916503 0 0 0 35.71875,1.5 h 5.291016 A 0.52916503,0.52916503 0 0 0 41.539062,0.97070313 0.52916503,0.52916503 0 0 0 41.009766,0.44140625 Z m 10.583984,0 A 0.52916503,0.52916503 0 0 0 45.773437,0.97070313 0.52916503,0.52916503 0 0 0 46.302734,1.5 H 51.59375 A 0.52916503,0.52916503 0 0 0 52.123047,0.97070313 0.52916503,0.52916503 0 0 0 51.59375,0.44140625 Z m 10.582032,0 A 0.52916503,0.52916503 0 0 0 56.355469,0.97070313 0.52916503,0.52916503 0 0 0 56.884766,1.5 h 5.292968 A 0.52916503,0.52916503 0 0 0 62.707031,0.97070313 0.52916503,0.52916503 0 0 0 62.177734,0.44140625 Z m 10.583984,0 A 0.52916503,0.52916503 0 0 0 66.939453,0.97070313 0.52916503,0.52916503 0 0 0 67.46875,1.5 h 5.291016 A 0.52916503,0.52916503 0 0 0 73.289062,0.97070313 0.52916503,0.52916503 0 0 0 72.759766,0.44140625 Z m 10.583984,0 A 0.52916503,0.52916503 0 0 0 77.523437,0.97070313 0.52916503,0.52916503 0 0 0 78.052734,1.5 H 83.34375 A 0.52916503,0.52916503 0 0 0 83.873047,0.97070313 0.52916503,0.52916503 0 0 0 83.34375,0.44140625 Z m 10.582032,0 A 0.52916503,0.52916503 0 0 0 88.105469,0.97070313 0.52916503,0.52916503 0 0 0 88.634766,1.5 h 4.46875 V 1.265625 A 0.52916503,0.52916503 0 0 0 93.630859,1.7949219 0.52916503,0.52916503 0 0 0 94.160156,1.265625 V 0.44140625 Z m 4.996093,5.58593745 a 0.52916503,0.52916503 0 0 0 -0.527343,0.5292969 v 5.2929684 a 0.52916503,0.52916503 0 0 0 0.527343,0.529297 0.52916503,0.52916503 0 0 0 0.529297,-0.529297 V 6.5566406 A 0.52916503,0.52916503 0 0 0 93.630859,6.0273437 Z M -6.6152344,7.5058594 a 0.52916503,0.52916503 0 0 0 -0.5292968,0.5292969 v 5.2910157 a 0.52916503,0.52916503 0 0 0 0.5292968,0.529297 0.52916503,0.52916503 0 0 0 0.5292969,-0.529297 V 8.0351563 A 0.52916503,0.52916503 0 0 0 -6.6152344,7.5058594 Z M 93.630859,16.611328 a 0.52916503,0.52916503 0 0 0 -0.527343,0.529297 v 5.291016 a 0.52916503,0.52916503 0 0 0 0.527343,0.529296 0.52916503,0.52916503 0 0 0 0.529297,-0.529296 V 17.140625 A 0.52916503,0.52916503 0 0 0 93.630859,16.611328 Z M -6.6152344,18.087891 a 0.52916503,0.52916503 0 0 0 -0.5292968,0.529296 v 5.292969 a 0.52916503,0.52916503 0 0 0 0.5292968,0.529297 0.52916503,0.52916503 0 0 0 0.5292969,-0.529297 V 18.617187 A 0.52916503,0.52916503 0 0 0 -6.6152344,18.087891 Z M 93.630859,27.195312 a 0.52916503,0.52916503 0 0 0 -0.527343,0.529297 v 5.291016 a 0.52916503,0.52916503 0 0 0 0.527343,0.529297 0.52916503,0.52916503 0 0 0 0.529297,-0.529297 V 27.724609 A 0.52916503,0.52916503 0 0 0 93.630859,27.195312 Z M -6.6152344,28.671875 a 0.52916503,0.52916503 0 0 0 -0.5292968,0.529297 v 5.291015 a 0.52916503,0.52916503 0 0 0 0.5292968,0.529297 0.52916503,0.52916503 0 0 0 0.5292969,-0.529297 V 29.201172 A 0.52916503,0.52916503 0 0 0 -6.6152344,28.671875 Z M 93.630859,37.777344 a 0.52916503,0.52916503 0 0 0 -0.527343,0.529297 v 5.292968 a 0.52916503,0.52916503 0 0 0 0.527343,0.529297 0.52916503,0.52916503 0 0 0 0.529297,-0.529297 V 38.306641 A 0.52916503,0.52916503 0 0 0 93.630859,37.777344 Z M -6.6152344,39.255859 a 0.52916503,0.52916503 0 0 0 -0.5292968,0.529297 v 5.291016 a 0.52916503,0.52916503 0 0 0 0.5292968,0.529297 0.52916503,0.52916503 0 0 0 0.5292969,-0.529297 V 39.785156 A 0.52916503,0.52916503 0 0 0 -6.6152344,39.255859 Z M 93.630859,48.361328 a 0.52916503,0.52916503 0 0 0 -0.527343,0.529297 v 5.291016 a 0.52916503,0.52916503 0 0 0 0.527343,0.529296 0.52916503,0.52916503 0 0 0 0.529297,-0.529296 V 48.890625 A 0.52916503,0.52916503 0 0 0 93.630859,48.361328 Z M -6.6152344,49.837891 a 0.52916503,0.52916503 0 0 0 -0.5292968,0.529296 v 5.292969 a 0.52916503,0.52916503 0 0 0 0.5292968,0.529297 0.52916503,0.52916503 0 0 0 0.5292969,-0.529297 V 50.367187 A 0.52916503,0.52916503 0 0 0 -6.6152344,49.837891 Z M 93.630859,58.945312 a 0.52916503,0.52916503 0 0 0 -0.527343,0.529297 v 5.291016 a 0.52916503,0.52916503 0 0 0 0.527343,0.529297 0.52916503,0.52916503 0 0 0 0.529297,-0.529297 V 59.474609 A 0.52916503,0.52916503 0 0 0 93.630859,58.945312 Z M -6.6152344,60.421875 a 0.52916503,0.52916503 0 0 0 -0.5292968,0.529297 v 5.291015 a 0.52916503,0.52916503 0 0 0 0.5292968,0.529297 0.52916503,0.52916503 0 0 0 0.5292969,-0.529297 V 60.951172 A 0.52916503,0.52916503 0 0 0 -6.6152344,60.421875 Z M 93.630859,69.527344 a 0.52916503,0.52916503 0 0 0 -0.527343,0.529297 v 5.292968 a 0.52916503,0.52916503 0 0 0 0.527343,0.529297 0.52916503,0.52916503 0 0 0 0.529297,-0.529297 V 70.056641 A 0.52916503,0.52916503 0 0 0 93.630859,69.527344 Z M -6.6152344,71.005859 a 0.52916503,0.52916503 0 0 0 -0.5292968,0.529297 v 5.291016 a 0.52916503,0.52916503 0 0 0 0.5292968,0.529297 0.52916503,0.52916503 0 0 0 0.5292969,-0.529297 V 71.535156 A 0.52916503,0.52916503 0 0 0 -6.6152344,71.005859 Z M 93.630859,80.111328 a 0.52916503,0.52916503 0 0 0 -0.527343,0.529297 v 5.291016 a 0.52916503,0.52916503 0 0 0 0.527343,0.529296 0.52916503,0.52916503 0 0 0 0.529297,-0.529296 V 80.640625 A 0.52916503,0.52916503 0 0 0 93.630859,80.111328 Z M -6.6152344,81.587891 a 0.52916503,0.52916503 0 0 0 -0.5292968,0.529296 v 5.292969 a 0.52916503,0.52916503 0 0 0 0.5292968,0.529297 0.52916503,0.52916503 0 0 0 0.5292969,-0.529297 V 82.117187 A 0.52916503,0.52916503 0 0 0 -6.6152344,81.587891 Z M 93.630859,90.695312 a 0.52916503,0.52916503 0 0 0 -0.527343,0.529297 v 5.291016 a 0.52916503,0.52916503 0 0 0 0.527343,0.529297 0.52916503,0.52916503 0 0 0 0.529297,-0.529297 V 91.224609 A 0.52916503,0.52916503 0 0 0 93.630859,90.695312 Z M -6.6152344,92.171875 a 0.52916503,0.52916503 0 0 0 -0.5292968,0.529297 v 5.230469 h 1.1210937 a 0.52916503,0.52916503 0 0 0 0.5292969,-0.529297 0.52916503,0.52916503 0 0 0 -0.5292969,-0.529297 h -0.0625 v -4.171875 a 0.52916503,0.52916503 0 0 0 -0.5292969,-0.529297 z m 5.88281253,4.701172 a 0.52916503,0.52916503 0 0 0 -0.52929683,0.529297 0.52916503,0.52916503 0 0 0 0.52929683,0.529297 H 4.5605469 A 0.52916503,0.52916503 0 0 0 5.0898437,97.402344 0.52916503,0.52916503 0 0 0 4.5605469,96.873047 Z m 10.58398437,0 a 0.52916503,0.52916503 0 0 0 -0.5292969,0.529297 0.52916503,0.52916503 0 0 0 0.5292969,0.529297 h 5.2910155 a 0.52916503,0.52916503 0 0 0 0.529297,-0.529297 0.52916503,0.52916503 0 0 0 -0.529297,-0.529297 z m 10.5839845,0 a 0.52916503,0.52916503 0 0 0 -0.529297,0.529297 0.52916503,0.52916503 0 0 0 0.529297,0.529297 h 5.291015 a 0.52916503,0.52916503 0 0 0 0.529297,-0.529297 0.52916503,0.52916503 0 0 0 -0.529297,-0.529297 z m 10.582031,0 a 0.52916503,0.52916503 0 0 0 -0.529297,0.529297 0.52916503,0.52916503 0 0 0 0.529297,0.529297 h 5.292969 a 0.52916503,0.52916503 0 0 0 0.529297,-0.529297 0.52916503,0.52916503 0 0 0 -0.529297,-0.529297 z m 10.583984,0 a 0.52916503,0.52916503 0 0 0 -0.529296,0.529297 0.52916503,0.52916503 0 0 0 0.529296,0.529297 h 5.291016 a 0.52916503,0.52916503 0 0 0 0.529297,-0.529297 0.52916503,0.52916503 0 0 0 -0.529297,-0.529297 z m 10.583985,0 a 0.52916503,0.52916503 0 0 0 -0.529297,0.529297 0.52916503,0.52916503 0 0 0 0.529297,0.529297 h 5.291015 a 0.52916503,0.52916503 0 0 0 0.529297,-0.529297 0.52916503,0.52916503 0 0 0 -0.529297,-0.529297 z m 10.582031,0 a 0.52916503,0.52916503 0 0 0 -0.529297,0.529297 0.52916503,0.52916503 0 0 0 0.529297,0.529297 h 5.292969 a 0.52916503,0.52916503 0 0 0 0.529297,-0.529297 0.52916503,0.52916503 0 0 0 -0.529297,-0.529297 z m 10.583984,0 a 0.52916503,0.52916503 0 0 0 -0.529296,0.529297 0.52916503,0.52916503 0 0 0 0.529296,0.529297 h 5.291016 a 0.52916503,0.52916503 0 0 0 0.529297,-0.529297 0.52916503,0.52916503 0 0 0 -0.529297,-0.529297 z m 10.583985,0 a 0.52916503,0.52916503 0 0 0 -0.529297,0.529297 0.52916503,0.52916503 0 0 0 0.529297,0.529297 h 5.291015 a 0.52916503,0.52916503 0 0 0 0.529297,-0.529297 0.52916503,0.52916503 0 0 0 -0.529297,-0.529297 z"
       id="rect15-2" />
    <path
       style="baseline-shift:baseline;display:inline;overflow:visible;vector-effect:none;fill:#ffaaaa;stroke-linecap:round;stroke-dasharray:5.29167, 5.29167;paint-order:fill markers stroke;enable-background:accumulate;stop-color:#000000;stop-opacity:1;opacity:1"
       d="m 103.87891,0.26367188 a 0.52916503,0.52916503 0 0 0 -0.5293,0.52929687 V 4.1152344 a 0.52916503,0.52916503 0 0 0 0.5293,0.5292968 0.52916503,0.52916503 0 0 0 0.52929,-0.5292968 V 1.3222656 h 4.76172 a 0.52916503,0.52916503 0 0 0 0.5293,-0.52929685 0.52916503,0.52916503 0 0 0 -0.5293,-0.52929687 z m 10.58203,0 a 0.52916503,0.52916503 0 0 0 -0.5293,0.52929687 0.52916503,0.52916503 0 0 0 0.5293,0.52929685 h 5.29297 a 0.52916503,0.52916503 0 0 0 0.52929,-0.52929685 0.52916503,0.52916503 0 0 0 -0.52929,-0.52929687 z m 10.58398,0 a 0.52916503,0.52916503 0 0 0 -0.52929,0.52929687 0.52916503,0.52916503 0 0 0 0.52929,0.52929685 h 5.29102 a 0.52916503,0.52916503 0 0 0 0.52929,-0.52929685 0.52916503,0.52916503 0 0 0 -0.52929,-0.52929687 z m 10.58399,0 a 0.52916503,0.52916503 0 0 0 -0.5293,0.52929687 0.52916503,0.52916503 0 0 0 0.5293,0.52929685 h 5.29101 a 0.52916503,0.52916503 0 0 0 0.5293,-0.52929685 0.52916503,0.52916503 0 0 0 -0.5293,-0.52929687 z m 10.58203,0 a 0.52916503,0.52916503 0 0 0 -0.5293,0.52929687 0.52916503,0.52916503 0 0 0 0.5293,0.52929685 h 5.29297 a 0.52916503,0.52916503 0 0 0 0.52929,-0.52929685 0.52916503,0.52916503 0 0 0 -0.52929,-0.52929687 z m 10.58398,0 a 0.52916503,0.52916503 0 0 0 -0.5293,0.52929687 0.52916503,0.52916503 0 0 0 0.5293,0.52929685 h 5.29102 a 0.52916503,0.52916503 0 0 0 0.52929,-0.52929685 0.52916503,0.52916503 0 0 0 -0.52929,-0.52929687 z m 10.58399,0 a 0.52916503,0.52916503 0 0 0 -0.5293,0.52929687 0.52916503,0.52916503 0 0 0 0.5293,0.52929685 h 5.29101 a 0.52916503,0.52916503 0 0 0 0.5293,-0.52929685 0.52916503,0.52916503 0 0 0 -0.5293,-0.52929687 z m 10.58203,0 a 0.52916503,0.52916503 0 0 0 -0.5293,0.52929687 0.52916503,0.52916503 0 0 0 0.5293,0.52929685 h 5.29297 a 0.52916503,0.52916503 0 0 0 0.52929,-0.52929685 0.52916503,0.52916503 0 0 0 -0.52929,-0.52929687 z m 10.58398,0 a 0.52916503,0.52916503 0 0 0 -0.5293,0.52929687 0.52916503,0.52916503 0 0 0 0.5293,0.52929685 h 5.29102 a 0.52916503,0.52916503 0 0 0 0.52929,-0.52929685 0.52916503,0.52916503 0 0 0 -0.52929,-0.52929687 z m 10.58399,0 a 0.52916503,0.52916503 0 0 0 -0.5293,0.52929687 0.52916503,0.52916503 0 0 0 0.5293,0.52929685 h 5.29101 a 0.52916503,0.52916503 0 0 0 0.5293,-0.52929685 0.52916503,0.52916503 0 0 0 -0.5293,-0.52929687 z m 5.59375,4.99023432 a 0.52916503,0.52916503 0 0 0 -0.5293,0.5292969 v 5.2910159 a 0.52916503,0.52916503 0 0 0 0.5293,0.529297 0.52916503,0.52916503 0 0 0 0.52929,-0.529297 V 5.7832031 A 0.52916503,0.52916503 0 0 0 204.72266,5.2539062 Z M 103.87891,8.8769531 a 0.52916503,0.52916503 0 0 0 -0.5293,0.5292969 v 5.292969 a 0.52916503,0.52916503 0 0 0 0.5293,0.529297 0.52916503,0.52916503 0 0 0 0.52929,-0.529297 V 9.40625 a 0.52916503,0.52916503 0 0 0 -0.52929,-0.5292969 z m 100.84375,6.9589849 a 0.52916503,0.52916503 0 0 0 -0.5293,0.529296 v 5.292969 a 0.52916503,0.52916503 0 0 0 0.5293,0.529297 0.52916503,0.52916503 0 0 0 0.52929,-0.529297 v -5.292969 a 0.52916503,0.52916503 0 0 0 -0.52929,-0.529296 z m -100.84375,3.624999 a 0.52916503,0.52916503 0 0 0 -0.5293,0.529297 v 5.291016 a 0.52916503,0.52916503 0 0 0 0.5293,0.529297 0.52916503,0.52916503 0 0 0 0.52929,-0.529297 v -5.291016 a 0.52916503,0.52916503 0 0 0 -0.52929,-0.529297 z m 100.84375,6.958985 a 0.52916503,0.52916503 0 0 0 -0.5293,0.529297 v 5.291015 a 0.52916503,0.52916503 0 0 0 0.5293,0.529297 0.52916503,0.52916503 0 0 0 0.52929,-0.529297 v -5.291015 a 0.52916503,0.52916503 0 0 0 -0.52929,-0.529297 z m -100.84375,3.625 a 0.52916503,0.52916503 0 0 0 -0.5293,0.529297 v 5.291015 a 0.52916503,0.52916503 0 0 0 0.5293,0.529297 0.52916503,0.52916503 0 0 0 0.52929,-0.529297 v -5.291015 a 0.52916503,0.52916503 0 0 0 -0.52929,-0.529297 z m 100.84375,6.958984 a 0.52916503,0.52916503 0 0 0 -0.5293,0.529297 v 5.291016 a 0.52916503,0.52916503 0 0 0 0.5293,0.529297 0.52916503,0.52916503 0 0 0 0.52929,-0.529297 v -5.291016 a 0.52916503,0.52916503 0 0 0 -0.52929,-0.529297 z m -100.84375,3.623047 a 0.52916503,0.52916503 0 0 0 -0.5293,0.529297 v 5.292969 a 0.52916503,0.52916503 0 0 0 0.5293,0.529297 0.52916503,0.52916503 0 0 0 0.52929,-0.529297 V 41.15625 a 0.52916503,0.52916503 0 0 0 -0.52929,-0.529297 z m 100.84375,6.958984 a 0.52916503,0.52916503 0 0 0 -0.5293,0.529297 v 5.292969 a 0.52916503,0.52916503 0 0 0 0.5293,0.529297 0.52916503,0.52916503 0 0 0 0.52929,-0.529297 v -5.292969 a 0.52916503,0.52916503 0 0 0 -0.52929,-0.529297 z m -100.84375,3.625 a 0.52916503,0.52916503 0 0 0 -0.5293,0.529297 v 5.291016 a 0.52916503,0.52916503 0 0 0 0.5293,0.529297 0.52916503,0.52916503 0 0 0 0.52929,-0.529297 v -5.291016 a 0.52916503,0.52916503 0 0 0 -0.52929,-0.529297 z m 100.84375,6.958985 a 0.52916503,0.52916503 0 0 0 -0.5293,0.529297 v 5.291015 a 0.52916503,0.52916503 0 0 0 0.5293,0.529297 0.52916503,0.52916503 0 0 0 0.52929,-0.529297 v -5.291015 a 0.52916503,0.52916503 0 0 0 -0.52929,-0.529297 z m -100.84375,3.625 a 0.52916503,0.52916503 0 0 0 -0.5293,0.529297 v 5.291015 a 0.52916503,0.52916503 0 0 0 0.5293,0.529297 0.52916503,0.52916503 0 0 0 0.52929,-0.529297 v -5.291015 a 0.52916503,0.52916503 0 0 0 -0.52929,-0.529297 z m 100.84375,6.958984 a 0.52916503,0.52916503 0 0 0 -0.5293,0.529297 v 5.291016 a 0.52916503,0.52916503 0 0 0 0.5293,0.529297 0.52916503,0.52916503 0 0 0 0.52929,-0.529297 v -5.291016 a 0.52916503,0.52916503 0 0 0 -0.52929,-0.529297 z m -100.84375,3.623047 a 0.52916503,0.52916503 0 0 0 -0.5293,0.529297 v 5.292969 a 0.52916503,0.52916503 0 0 0 0.5293,0.529297 0.52916503,0.52916503 0 0 0 0.52929,-0.529297 V 72.90625 a 0.52916503,0.52916503 0 0 0 -0.52929,-0.529297 z m 100.84375,6.958984 a 0.52916503,0.52916503 0 0 0 -0.5293,0.529297 v 5.292969 a 0.52916503,0.52916503 0 0 0 0.5293,0.529297 0.52916503,0.52916503 0 0 0 0.52929,-0.529297 v -5.292969 a 0.52916503,0.52916503 0 0 0 -0.52929,-0.529297 z m -100.84375,3.625 a 0.52916503,0.52916503 0 0 0 -0.5293,0.529297 v 5.291016 a 0.52916503,0.52916503 0 0 0 0.5293,0.529297 0.52916503,0.52916503 0 0 0 0.52929,-0.529297 v -5.291016 a 0.52916503,0.52916503 0 0 0 -0.52929,-0.529297 z m 100.84375,6.958985 a 0.52916503,0.52916503 0 0 0 -0.5293,0.529297 v 5.291015 a 0.52916503,0.52916503 0 0 0 0.5293,0.529297 0.52916503,0.52916503 0 0 0 0.52929,-0.529297 v -5.291015 a 0.52916503,0.52916503 0 0 0 -0.52929,-0.529297 z m -100.84375,3.625 a 0.52916503,0.52916503 0 0 0 -0.5293,0.529297 v 3.857422 h 2.49219 a 0.52916503,0.52916503 0 0 0 0.52929,-0.529297 0.52916503,0.52916503 0 0 0 -0.52929,-0.529297 h -1.4336 v -2.798828 a 0.52916503,0.52916503 0 0 0 -0.52929,-0.529297 z m 7.2539,3.328125 a 0.52916503,0.52916503 0 0 0 -0.52929,0.529297 0.52916503,0.52916503 0 0 0 0.52929,0.529297 h 5.29297 a 0.52916503,0.52916503 0 0 0 0.5293,-0.529297 0.52916503,0.52916503 0 0 0 -0.5293,-0.529297 z m 10.58399,0 a 0.52916503,0.52916503 0 0 0 -0.5293,0.529297 0.52916503,0.52916503 0 0 0 0.5293,0.529297 h 5.29101 a 0.52916503,0.52916503 0 0 0 0.5293,-0.529297 0.52916503,0.52916503 0 0 0 -0.5293,-0.529297 z m 10.58398,0 a 0.52916503,0.52916503 0 0 0 -0.5293,0.529297 0.52916503,0.52916503 0 0 0 0.5293,0.529297 h 5.29102 a 0.52916503,0.52916503 0 0 0 0.52929,-0.529297 0.52916503,0.52916503 0 0 0 -0.52929,-0.529297 z m 10.58203,0 a 0.52916503,0.52916503 0 0 0 -0.52929,0.529297 0.52916503,0.52916503 0 0 0 0.52929,0.529297 h 5.29297 a 0.52916503,0.52916503 0 0 0 0.5293,-0.529297 0.52916503,0.52916503 0 0 0 -0.5293,-0.529297 z m 10.58399,0 a 0.52916503,0.52916503 0 0 0 -0.5293,0.529297 0.52916503,0.52916503 0 0 0 0.5293,0.529297 h 5.29101 a 0.52916503,0.52916503 0 0 0 0.5293,-0.529297 0.52916503,0.52916503 0 0 0 -0.5293,-0.529297 z m 10.58398,0 a 0.52916503,0.52916503 0 0 0 -0.5293,0.529297 0.52916503,0.52916503 0 0 0 0.5293,0.529297 h 5.29102 a 0.52916503,0.52916503 0 0 0 0.52929,-0.529297 0.52916503,0.52916503 0 0 0 -0.52929,-0.529297 z m 10.58203,0 a 0.52916503,0.52916503 0 0 0 -0.52929,0.529297 0.52916503,0.52916503 0 0 0 0.52929,0.529297 h 5.29297 a 0.52916503,0.52916503 0 0 0 0.5293,-0.529297 0.52916503,0.52916503 0 0 0 -0.5293,-0.529297 z m 10.58399,0 a 0.52916503,0.52916503 0 0 0 -0.5293,0.529297 0.52916503,0.52916503 0 0 0 0.5293,0.529297 h 5.29101 a 0.52916503,0.52916503 0 0 0 0.5293,-0.529297 0.52916503,0.52916503 0 0 0 -0.5293,-0.529297 z m 10.58398,0 a 0.52916503,0.52916503 0 0 0 -0.5293,0.529297 0.52916503,0.52916503 0 0 0 0.5293,0.529297 h 5.29102 a 0.52916503,0.52916503 0 0 0 0.52929,-0.529297 0.52916503,0.52916503 0 0 0 -0.52929,-0.529297 z"
       id="rect16-3" />
    <g
       id="path5"
       style="opacity:1"
       transform="scale(1,-1)">
      <path
         style="baseline-shift:baseline;display:inline;overflow:visible;vector-effect:none;fill:#f1e9f1;enable-background:accumulate;stop-color:#000000;stop-opacity:1"
         d="m 144.33108,-10.722612 a 0.13319904,0.13319904 0 0 1 -0.1332,0.133199 0.13319904,0.13319904 0 0 1 -0.1332,-0.133199 0.13319904,0.13319904 0 0 1 0.1332,-0.133199 0.13319904,0.13319904 0 0 1 0.1332,0.133199 z"
         id="path6" />
      <path
         style="baseline-shift:baseline;display:inline;overflow:visible;vector-effect:none;fill:#f72c25;enable-background:accumulate;stop-color:#000000;stop-opacity:1"
         d="m 144.19727,-10.988281 c -0.14506,-10e-7 -0.26563,0.120565 -0.26563,0.265625 0,0.14506 0.12057,0.265626 0.26563,0.265625 0.14506,1e-6 0.26562,-0.120565 0.26562,-0.265625 0,-0.14506 -0.12056,-0.265626 -0.26562,-0.265625 z"
         id="path7" />
    </g>
  </g>
</svg>
