<?xml version="1.0" encoding="UTF-8" standalone="no"?>
<!-- Created with Inkscape (http://www.inkscape.org/) -->

<svg
   width="248.49286mm"
   height="54.274704mm"
   viewBox="0 0 248.49286 54.274703"
   version="1.1"
   id="svg1"
   inkscape:version="1.4.2 (f4327f4, 2025-05-13)"
   sodipodi:docname="overskrif-2t.svg"
   xmlns:inkscape="http://www.inkscape.org/namespaces/inkscape"
   xmlns:sodipodi="http://sodipodi.sourceforge.net/DTD/sodipodi-0.dtd"
   xmlns="http://www.w3.org/2000/svg"
   xmlns:svg="http://www.w3.org/2000/svg">
  <sodipodi:namedview
     id="namedview1"
     pagecolor="#ffffff"
     bordercolor="#000000"
     borderopacity="0.25"
     inkscape:showpageshadow="2"
     inkscape:pageopacity="0.0"
     inkscape:pagecheckerboard="0"
     inkscape:deskcolor="#d1d1d1"
     inkscape:document-units="mm"
     inkscape:zoom="0.7798511"
     inkscape:cx="476.37299"
     inkscape:cy="117.97124"
     inkscape:window-width="1920"
     inkscape:window-height="1057"
     inkscape:window-x="-8"
     inkscape:window-y="131"
     inkscape:window-maximized="1"
     inkscape:current-layer="layer1" />
  <defs
     id="defs1" />
  <g
     inkscape:label="Layer 1"
     inkscape:groupmode="layer"
     id="layer1"
     transform="translate(-17.34922,-97.678786)">
    <path
       style="font-style:italic;font-weight:800;font-stretch:semi-condensed;font-size:12.7px;line-height:1;font-family:ruda;-inkscape-font-specification:'ruda Ultra-Bold Italic Semi-Condensed';letter-spacing:0px;fill:#99e3d4;stroke-linecap:round;paint-order:markers stroke fill"
       d="m 262.92108,128.76584 q -0.9906,0 -1.7399,-0.381 -0.7493,-0.381 -1.1684,-1.2319 -0.4064,-0.8636 -0.4064,-2.2987 0,-1.4986 0.4318,-2.3368 0.4445,-0.8509 1.1811,-1.1938 0.7493,-0.3556 1.6764,-0.3556 0.9398,0 1.6002,0.3429 0.6604,0.3302 1.0033,1.1049 0.3429,0.7747 0.3429,2.0828 v 0.9779 h -5.2578 l 0.7747,-0.254 q -0.0127,0.5588 0.0381,0.9398 0.0635,0.381 0.1651,0.6096 0.1016,0.2286 0.2286,0.3556 0.1397,0.1143 0.3556,0.1905 0.2159,0.0635 0.5461,0.0635 0.3556,0 0.7493,-0.0635 0.4064,-0.0635 0.7747,-0.1651 0.381,-0.1016 0.6604,-0.1778 0.2794,-0.0889 0.3937,-0.127 l 0.4191,1.27 q -0.1143,0.0508 -0.5207,0.2159 -0.4064,0.1524 -0.9906,0.2921 -0.5842,0.1397 -1.2573,0.1397 z m -1.5621,-4.2164 -0.762,-0.3302 4.2799,-0.0762 -0.7874,0.3302 q 0.0127,-0.6858 -0.0381,-1.143 -0.0508,-0.4699 -0.2032,-0.6858 -0.0889,-0.1143 -0.2794,-0.2032 -0.1905,-0.1016 -0.6477,-0.1016 -0.5334,0 -0.8001,0.1143 -0.254,0.1016 -0.4064,0.2667 -0.3683,0.4318 -0.3556,1.8288 z"
       id="path37" />
    <path
       style="font-style:italic;font-weight:800;font-stretch:semi-condensed;font-size:12.7px;line-height:1;font-family:ruda;-inkscape-font-specification:'ruda Ultra-Bold Italic Semi-Condensed';letter-spacing:0px;fill:#99e3d4;stroke-linecap:round;paint-order:markers stroke fill"
       d="m 255.68209,128.75314 q -0.5588,0 -1.0795,-0.1143 -0.508,-0.1016 -0.9144,-0.2286 -0.4064,-0.1397 -0.6477,-0.2413 -0.2286,-0.1143 -0.2286,-0.1143 l 0.4191,-1.3716 q 0,0 0.2413,0.1016 0.2413,0.0889 0.635,0.2286 0.3937,0.127 0.8382,0.2286 0.4572,0.1016 0.8636,0.1016 0.2286,0 0.381,-0.0381 0.1651,-0.0381 0.254,-0.1143 0.1143,-0.0889 0.1778,-0.254 0.0762,-0.1778 0.0762,-0.3937 0,-0.381 -0.2159,-0.5715 -0.2159,-0.2032 -0.5715,-0.3302 -0.3556,-0.127 -0.7874,-0.2413 -0.3937,-0.127 -0.8001,-0.2667 -0.3937,-0.1397 -0.7239,-0.381 -0.3302,-0.2413 -0.5461,-0.6223 -0.2032,-0.381 -0.2032,-0.9906 0,-0.9779 0.635,-1.5621 0.6477,-0.5969 2.0828,-0.5969 0.5334,0 1.016,0.0762 0.4953,0.0635 0.8763,0.1524 0.381,0.0889 0.5842,0.1651 l -0.254,1.3462 q 0,0 -0.2286,-0.0508 -0.2159,-0.0508 -0.5715,-0.1143 -0.3556,-0.0762 -0.7747,-0.127 -0.4064,-0.0635 -0.8001,-0.0635 -0.3302,0 -0.4953,0.0508 -0.1524,0.0381 -0.2286,0.0889 -0.0635,0.0635 -0.127,0.1778 -0.0508,0.1016 -0.0508,0.2794 0,0.3556 0.2286,0.5588 0.2413,0.1905 0.6096,0.3175 0.3683,0.1143 0.7874,0.2413 0.3937,0.1143 0.7874,0.254 0.3937,0.127 0.7239,0.3683 0.3302,0.2286 0.5207,0.6223 0.2032,0.381 0.2032,0.9906 0,1.0922 -0.6985,1.7653 -0.6858,0.6731 -1.9939,0.6731 z"
       id="path36" />
    <path
       style="font-style:italic;font-weight:800;font-stretch:semi-condensed;font-size:12.7px;line-height:1;font-family:ruda;-inkscape-font-specification:'ruda Ultra-Bold Italic Semi-Condensed';letter-spacing:0px;fill:#99e3d4;stroke-linecap:round;paint-order:markers stroke fill"
       d="m 245.39511,128.58804 v -7.4422 h 1.1049 l 0.2032,0.7366 h 0.0635 q 0.2159,-0.127 0.508,-0.2794 0.2921,-0.1524 0.635,-0.2921 0.3556,-0.1524 0.7493,-0.2413 0.3937,-0.0889 0.8128,-0.0889 0.762,0 1.1557,0.3556 0.3937,0.3429 0.5334,0.9652 0.1524,0.6096 0.1524,1.3843 v 4.9022 h -1.7145 v -4.5339 q 0,-0.5842 -0.0254,-0.8763 -0.0254,-0.3048 -0.1524,-0.4699 -0.0889,-0.1143 -0.2286,-0.1651 -0.1397,-0.0508 -0.3302,-0.0508 -0.3048,0 -0.6477,0.1016 -0.3302,0.0889 -0.635,0.2286 -0.2921,0.127 -0.4699,0.2413 v 5.5245 z"
       id="path35" />
    <path
       style="font-style:italic;font-weight:800;font-stretch:semi-condensed;font-size:12.7px;line-height:1;font-family:ruda;-inkscape-font-specification:'ruda Ultra-Bold Italic Semi-Condensed';letter-spacing:0px;fill:#99e3d4;stroke-linecap:round;paint-order:markers stroke fill"
       d="m 240.7215,128.76584 q -0.9906,0 -1.7399,-0.381 -0.7493,-0.381 -1.1684,-1.2319 -0.4064,-0.8636 -0.4064,-2.2987 0,-1.4986 0.4318,-2.3368 0.4445,-0.8509 1.1811,-1.1938 0.7493,-0.3556 1.6764,-0.3556 0.9398,0 1.6002,0.3429 0.6604,0.3302 1.0033,1.1049 0.3429,0.7747 0.3429,2.0828 v 0.9779 h -5.2578 l 0.7747,-0.254 q -0.0127,0.5588 0.0381,0.9398 0.0635,0.381 0.1651,0.6096 0.1016,0.2286 0.2286,0.3556 0.1397,0.1143 0.3556,0.1905 0.2159,0.0635 0.5461,0.0635 0.3556,0 0.7493,-0.0635 0.4064,-0.0635 0.7747,-0.1651 0.381,-0.1016 0.6604,-0.1778 0.2794,-0.0889 0.3937,-0.127 l 0.4191,1.27 q -0.1143,0.0508 -0.5207,0.2159 -0.4064,0.1524 -0.9906,0.2921 -0.5842,0.1397 -1.2573,0.1397 z m -1.5621,-4.2164 -0.762,-0.3302 4.2799,-0.0762 -0.7874,0.3302 q 0.0127,-0.6858 -0.0381,-1.143 -0.0508,-0.4699 -0.2032,-0.6858 -0.0889,-0.1143 -0.2794,-0.2032 -0.1905,-0.1016 -0.6477,-0.1016 -0.5334,0 -0.8001,0.1143 -0.254,0.1016 -0.4064,0.2667 -0.3683,0.4318 -0.3556,1.8288 z"
       id="path34" />
    <path
       style="font-style:italic;font-weight:800;font-stretch:semi-condensed;font-size:12.7px;line-height:1;font-family:ruda;-inkscape-font-specification:'ruda Ultra-Bold Italic Semi-Condensed';letter-spacing:0px;fill:#99e3d4;stroke-linecap:round;paint-order:markers stroke fill"
       d="m 232.4935,128.58804 v -7.4422 h 1.0668 l 0.2286,0.7747 h 0.0762 q 0,0 0.1778,-0.1397 0.1905,-0.1524 0.4953,-0.3302 0.3175,-0.1905 0.6731,-0.3302 0.3556,-0.1397 0.6985,-0.1397 0.3683,0 0.5461,0.0635 0.1905,0.0508 0.1905,0.0508 l -0.1397,1.5113 q 0,0 -0.2032,-0.0127 -0.2032,-0.0254 -0.4318,-0.0254 -0.3302,0 -0.6477,0.0889 -0.3048,0.0762 -0.5715,0.1905 -0.254,0.1143 -0.4445,0.2413 v 5.4991 z"
       id="path33" />
    <path
       style="font-style:italic;font-weight:800;font-stretch:semi-condensed;font-size:12.7px;line-height:1;font-family:ruda;-inkscape-font-specification:'ruda Ultra-Bold Italic Semi-Condensed';letter-spacing:0px;fill:#99e3d4;stroke-linecap:round;paint-order:markers stroke fill"
       d="m 227.81989,130.86134 q -0.5588,0 -1.0795,-0.0635 -0.5207,-0.0508 -0.9271,-0.1397 -0.3937,-0.0889 -0.635,-0.1524 -0.2286,-0.0508 -0.2286,-0.0508 l 0.1905,-1.3462 q 0.8509,0.127 1.7145,0.2413 0.8636,0.1143 1.6383,0.1143 0.508,0 0.6858,-0.0635 0.1905,-0.0635 0.1905,-0.2159 0,-0.0762 -0.0635,-0.1397 -0.0508,-0.0635 -0.254,-0.1651 -0.1905,-0.0889 -0.5969,-0.2413 -0.4064,-0.1524 -1.1049,-0.4191 -0.5842,-0.2286 -0.8509,-0.3302 -0.2667,-0.1143 -0.3429,-0.1651 -0.0635,-0.0508 -0.0635,-0.1016 0,-0.0889 0.0762,-0.3048 0.0762,-0.2159 0.1651,-0.4572 0.1016,-0.254 0.1778,-0.4445 0.0889,-0.2032 0.1143,-0.254 -0.8636,-0.2667 -1.3589,-0.889 -0.4826,-0.6223 -0.4826,-1.5748 0,-1.0287 0.4572,-1.6256 0.4699,-0.5969 1.2319,-0.8382 0.762,-0.254 1.651,-0.254 0.254,0 0.6477,0.0127 0.3937,0.0127 0.8128,0.0381 0.4191,0.0254 0.7874,0.0508 0.3683,0.0254 0.5969,0.0381 0.2286,0.0127 0.2286,0.0127 v 1.0033 l -0.8001,0.127 q 0,0 0.0889,0.2286 0.0889,0.2159 0.1651,0.5715 0.0889,0.3429 0.0889,0.7112 0,0.7112 -0.3683,1.2954 -0.3556,0.5715 -1.0541,0.9144 -0.6858,0.3302 -1.6637,0.3429 -0.0127,0.0635 -0.0381,0.2159 -0.0254,0.1524 -0.0254,0.1905 0,0.0381 0.127,0.1016 0.1397,0.0508 0.4191,0.1524 0.2921,0.1016 0.7366,0.2794 0.7874,0.3048 1.2319,0.5969 0.4572,0.2921 0.6477,0.5969 0.1905,0.2921 0.1905,0.635 0,0.5715 -0.4064,0.9652 -0.3937,0.3937 -1.1049,0.5969 -0.6985,0.2032 -1.6129,0.2032 z m -0.0508,-5.8293 q 0.5334,0 0.8382,-0.1143 0.3048,-0.127 0.4191,-0.4445 0.127,-0.3175 0.127,-0.9017 0,-0.4953 -0.0635,-0.8255 -0.0508,-0.3302 -0.127,-0.3937 -0.0254,-0.0381 -0.1651,-0.0635 -0.127,-0.0254 -0.3048,-0.0254 -0.1651,-0.0127 -0.3175,-0.0127 -0.1524,-0.0127 -0.254,-0.0127 -0.5715,0 -0.9144,0.1016 -0.3302,0.1016 -0.4826,0.4064 -0.1524,0.2921 -0.1524,0.9017 0,0.8128 0.3048,1.1049 0.3048,0.2794 1.0922,0.2794 z"
       id="path32" />
    <path
       style="font-style:italic;font-weight:800;font-stretch:semi-condensed;font-size:12.7px;line-height:1;font-family:ruda;-inkscape-font-specification:'ruda Ultra-Bold Italic Semi-Condensed';letter-spacing:0px;fill:#99e3d4;stroke-linecap:round;paint-order:markers stroke fill"
       d="m 221.1778,128.75314 q -0.5588,0 -1.0795,-0.1143 -0.508,-0.1016 -0.9144,-0.2286 -0.4064,-0.1397 -0.6477,-0.2413 -0.2286,-0.1143 -0.2286,-0.1143 l 0.4191,-1.3716 q 0,0 0.2413,0.1016 0.2413,0.0889 0.635,0.2286 0.3937,0.127 0.8382,0.2286 0.4572,0.1016 0.8636,0.1016 0.2286,0 0.381,-0.0381 0.1651,-0.0381 0.254,-0.1143 0.1143,-0.0889 0.1778,-0.254 0.0762,-0.1778 0.0762,-0.3937 0,-0.381 -0.2159,-0.5715 -0.2159,-0.2032 -0.5715,-0.3302 -0.3556,-0.127 -0.7874,-0.2413 -0.3937,-0.127 -0.8001,-0.2667 -0.3937,-0.1397 -0.7239,-0.381 -0.3302,-0.2413 -0.5461,-0.6223 -0.2032,-0.381 -0.2032,-0.9906 0,-0.9779 0.635,-1.5621 0.6477,-0.5969 2.0828,-0.5969 0.5334,0 1.016,0.0762 0.4953,0.0635 0.8763,0.1524 0.381,0.0889 0.5842,0.1651 l -0.254,1.3462 q 0,0 -0.2286,-0.0508 -0.2159,-0.0508 -0.5715,-0.1143 -0.3556,-0.0762 -0.7747,-0.127 -0.4064,-0.0635 -0.8001,-0.0635 -0.3302,0 -0.4953,0.0508 -0.1524,0.0381 -0.2286,0.0889 -0.0635,0.0635 -0.127,0.1778 -0.0508,0.1016 -0.0508,0.2794 0,0.3556 0.2286,0.5588 0.2413,0.1905 0.6096,0.3175 0.3683,0.1143 0.7874,0.2413 0.3937,0.1143 0.7874,0.254 0.3937,0.127 0.7239,0.3683 0.3302,0.2286 0.5207,0.6223 0.2032,0.381 0.2032,0.9906 0,1.0922 -0.6985,1.7653 -0.6858,0.6731 -1.9939,0.6731 z"
       id="path31" />
    <path
       style="font-style:italic;font-weight:800;font-stretch:semi-condensed;font-size:12.7px;line-height:1;font-family:ruda;-inkscape-font-specification:'ruda Ultra-Bold Italic Semi-Condensed';letter-spacing:0px;fill:#99e3d4;stroke-linecap:round;paint-order:markers stroke fill"
       d="m 213.61337,128.58804 v -7.4422 h 1.0668 l 0.2286,0.7747 h 0.0762 q 0,0 0.1778,-0.1397 0.1905,-0.1524 0.4953,-0.3302 0.3175,-0.1905 0.6731,-0.3302 0.3556,-0.1397 0.6985,-0.1397 0.3683,0 0.5461,0.0635 0.1905,0.0508 0.1905,0.0508 l -0.1397,1.5113 q 0,0 -0.2032,-0.0127 -0.2032,-0.0254 -0.4318,-0.0254 -0.3302,0 -0.6477,0.0889 -0.3048,0.0762 -0.5715,0.1905 -0.254,0.1143 -0.4445,0.2413 v 5.4991 z"
       id="path30" />
    <path
       style="font-style:italic;font-weight:800;font-stretch:semi-condensed;font-size:12.7px;line-height:1;font-family:ruda;-inkscape-font-specification:'ruda Ultra-Bold Italic Semi-Condensed';letter-spacing:0px;fill:#99e3d4;stroke-linecap:round;paint-order:markers stroke fill"
       d="m 203.56766,128.75314 q -0.9652,0 -1.5748,-0.6223 -0.6096,-0.6223 -0.6096,-1.8161 0,-0.8763 0.4064,-1.3716 0.4191,-0.508 1.1557,-0.7239 0.7366,-0.2159 1.7145,-0.2159 h 1.0668 q 0,-0.5842 -0.0508,-0.9144 -0.0381,-0.3302 -0.1397,-0.4572 -0.0762,-0.127 -0.2413,-0.1905 -0.1651,-0.0762 -0.5207,-0.0762 -0.4826,0 -0.9779,0.0889 -0.4953,0.0762 -0.9144,0.1905 -0.4064,0.1016 -0.6604,0.1905 -0.254,0.0762 -0.254,0.0762 l -0.3937,-1.2573 q 0,0 0.254,-0.1016 0.254,-0.1016 0.6858,-0.2286 0.4445,-0.1397 1.0033,-0.2413 0.5588,-0.1016 1.1811,-0.1016 0.7366,0 1.2319,0.1905 0.508,0.1778 0.8255,0.5207 h 0.0508 q 0.4318,-0.381 0.9779,-0.5461 0.5461,-0.1651 1.1938,-0.1651 0.9398,0 1.5875,0.3302 0.6477,0.3175 0.9906,1.0795 0.3556,0.7493 0.3556,2.0447 v 0.9779 h -4.445 v 0.254 q 0.0254,0.4318 0.0889,0.7366 0.0762,0.2921 0.1651,0.4572 0.1016,0.1651 0.1778,0.2413 0.1524,0.127 0.3556,0.2032 0.2032,0.0635 0.5334,0.0635 0.3683,0 0.8001,-0.0762 0.4445,-0.0889 0.8382,-0.1905 0.3937,-0.1016 0.6477,-0.1778 0.254,-0.0889 0.254,-0.0889 l 0.4318,1.27 q 0,0 -0.2413,0.1016 -0.2286,0.0889 -0.6223,0.2286 -0.3937,0.127 -0.889,0.2159 -0.4953,0.1016 -1.0287,0.1016 -0.8255,0 -1.4859,-0.2413 -0.6477,-0.254 -1.0795,-0.8636 h -0.0635 q -0.2794,0.1905 -0.7239,0.4572 -0.4318,0.254 -0.9652,0.4572 -0.5334,0.1905 -1.0922,0.1905 z m 0.3937,-1.4224 q 0.3937,0 0.7747,-0.1143 0.381,-0.127 0.6477,-0.254 0.2794,-0.1397 0.3429,-0.1651 v -1.4605 q -0.0508,-0.0127 -0.3556,-0.0381 -0.2921,-0.0381 -0.8255,-0.0381 -0.4699,0 -0.7493,0.0508 -0.2794,0.0508 -0.3937,0.1524 -0.1143,0.0889 -0.1905,0.2921 -0.0635,0.1905 -0.0635,0.5588 0,0.5334 0.1905,0.7747 0.1905,0.2413 0.6223,0.2413 z m 3.5179,-3.1877 2.6797,-0.0508 q -0.0127,-0.5334 -0.0635,-0.889 -0.0508,-0.3683 -0.1778,-0.5588 -0.0889,-0.1143 -0.2921,-0.2032 -0.2032,-0.0889 -0.6477,-0.0889 -0.4953,0 -0.7493,0.1016 -0.254,0.1016 -0.3937,0.2667 -0.1651,0.1905 -0.254,0.5461 -0.0889,0.3556 -0.1016,0.8763 z"
       id="path29" />
    <path
       style="font-style:italic;font-weight:800;font-stretch:semi-condensed;font-size:12.7px;line-height:1;font-family:ruda;-inkscape-font-specification:'ruda Ultra-Bold Italic Semi-Condensed';letter-spacing:0px;fill:#99e3d4;stroke-linecap:round;paint-order:markers stroke fill"
       d="m 196.31597,128.58804 -2.1717,-7.4422 h 1.7907 l 1.3716,5.9817 h 0.0762 l 1.3843,-5.9817 h 1.778 l -2.159,7.4422 z"
       id="path28" />
    <path
       style="font-style:italic;font-weight:800;font-stretch:semi-condensed;font-size:12.7px;line-height:1;font-family:ruda;-inkscape-font-specification:'ruda Ultra-Bold Italic Semi-Condensed';letter-spacing:0px;fill:#99e3d4;stroke-linecap:round;paint-order:markers stroke fill"
       d="m 189.08966,128.75314 q -0.5969,0 -1.0795,-0.2794 -0.4826,-0.2794 -0.762,-0.8255 -0.2794,-0.5461 -0.2794,-1.3081 0,-0.9271 0.3937,-1.4478 0.4064,-0.5207 1.143,-0.7366 0.7366,-0.2286 1.7272,-0.2286 h 1.0668 q 0,-0.5715 -0.0508,-0.8636 -0.0381,-0.3048 -0.1397,-0.4445 -0.0635,-0.1143 -0.2413,-0.1778 -0.1651,-0.0762 -0.5461,-0.0762 -0.4699,0 -0.9652,0.0889 -0.4826,0.0762 -0.889,0.1905 -0.4064,0.1016 -0.6731,0.1905 -0.254,0.0762 -0.254,0.0762 l -0.3937,-1.2573 q 0,0 0.254,-0.1016 0.254,-0.1016 0.6985,-0.2286 0.4445,-0.1397 0.9906,-0.2413 0.5588,-0.1016 1.1811,-0.1016 1.0287,0 1.6256,0.3429 0.5969,0.3302 0.8509,0.9525 0.2667,0.6223 0.2667,1.4732 v 4.8387 h -1.0922 l -0.2286,-0.8128 h -0.0762 q -0.0254,0.0254 -0.254,0.1778 -0.2286,0.1524 -0.5842,0.3429 -0.3429,0.1778 -0.7874,0.3175 -0.4318,0.1397 -0.9017,0.1397 z m 0.4572,-1.4224 q 0.3937,0 0.7747,-0.127 0.381,-0.127 0.6477,-0.254 0.2794,-0.1397 0.3302,-0.1651 v -1.5367 q -0.0508,0 -0.3683,-0.0254 -0.3048,-0.0381 -0.8001,-0.0381 -0.9271,0 -1.1557,0.2032 -0.1143,0.0889 -0.1905,0.3175 -0.0635,0.2159 -0.0635,0.5842 0,0.5461 0.1905,0.8001 0.2032,0.2413 0.635,0.2413 z"
       id="path27" />
    <path
       style="font-style:italic;font-weight:800;font-stretch:semi-condensed;font-size:12.7px;line-height:1;font-family:ruda;-inkscape-font-specification:'ruda Ultra-Bold Italic Semi-Condensed';letter-spacing:0px;fill:#99e3d4;stroke-linecap:round;paint-order:markers stroke fill"
       d="m 182.24435,128.58804 v -7.4422 h 1.0668 l 0.2286,0.7747 h 0.0762 q 0,0 0.1778,-0.1397 0.1905,-0.1524 0.4953,-0.3302 0.3175,-0.1905 0.6731,-0.3302 0.3556,-0.1397 0.6985,-0.1397 0.3683,0 0.5461,0.0635 0.1905,0.0508 0.1905,0.0508 l -0.1397,1.5113 q 0,0 -0.2032,-0.0127 -0.2032,-0.0254 -0.4318,-0.0254 -0.3302,0 -0.6477,0.0889 -0.3048,0.0762 -0.5715,0.1905 -0.254,0.1143 -0.4445,0.2413 v 5.4991 z"
       id="path26" />
    <path
       style="font-style:italic;font-weight:800;font-stretch:semi-condensed;font-size:12.7px;line-height:1;font-family:ruda;-inkscape-font-specification:'ruda Ultra-Bold Italic Semi-Condensed';letter-spacing:0px;fill:#99e3d4;stroke-linecap:round;paint-order:markers stroke fill"
       d="m 177.74855,128.58804 v -5.7658 h -0.8509 v -1.0795 l 0.8636,-0.1651 q 0.0635,-1.0668 0.3937,-1.6764 0.3429,-0.6096 0.9017,-0.8636 0.5715,-0.254 1.2954,-0.254 0.1905,0 0.4318,0.0127 0.2413,0.0127 0.4191,0.0254 0.1778,0.0127 0.1778,0.0127 l -0.1143,1.3716 q 0,0 -0.1778,-0.0127 -0.1651,-0.0127 -0.4064,-0.0127 -0.2286,-0.0127 -0.4318,-0.0127 -0.2794,0 -0.4572,0.0889 -0.1651,0.0762 -0.2413,0.3683 -0.0762,0.2921 -0.0889,0.9017 h 1.6637 v 1.3335 h -1.6637 v 5.7277 z"
       id="path25" />
    <path
       style="font-style:italic;font-weight:800;font-stretch:semi-condensed;font-size:12.7px;line-height:1;font-family:ruda;-inkscape-font-specification:'ruda Ultra-Bold Italic Semi-Condensed';letter-spacing:0px;fill:#99e3d4;stroke-linecap:round;paint-order:markers stroke fill"
       d="m 170.72546,128.72774 q -0.5207,0 -1.0033,-0.2032 -0.4826,-0.2032 -0.7874,-0.6604 -0.3048,-0.4699 -0.3048,-1.2319 0,-0.7747 0.3048,-1.2192 0.3048,-0.4572 0.7874,-0.6604 0.4826,-0.2032 1.0033,-0.2032 0.508,0 0.9906,0.2032 0.4826,0.2032 0.7874,0.6604 0.3048,0.4445 0.3048,1.2192 0,0.762 -0.3048,1.2319 -0.3048,0.4572 -0.7874,0.6604 -0.4826,0.2032 -0.9906,0.2032 z m 0,-1.2954 q 0.3302,0 0.5334,-0.1651 0.2159,-0.1778 0.2159,-0.635 0,-0.4445 -0.2159,-0.6096 -0.2032,-0.1651 -0.5334,-0.1651 -0.3429,0 -0.5588,0.1651 -0.2032,0.1651 -0.2032,0.6096 0,0.4572 0.2032,0.635 0.2159,0.1651 0.5588,0.1651 z"
       id="path24" />
    <path
       style="font-style:italic;font-weight:800;font-stretch:semi-condensed;font-size:12.7px;line-height:1;font-family:ruda;-inkscape-font-specification:'ruda Ultra-Bold Italic Semi-Condensed';letter-spacing:0px;fill:#99e3d4;stroke-linecap:round;paint-order:markers stroke fill"
       d="m 165.46766,123.57154 q -0.508,0 -0.9906,-0.2032 -0.4826,-0.2032 -0.7874,-0.6604 -0.3048,-0.4699 -0.3048,-1.2319 0,-0.7747 0.3048,-1.2192 0.3048,-0.4572 0.7874,-0.6604 0.4826,-0.2032 1.0033,-0.2032 0.508,0 0.9906,0.2032 0.4826,0.2032 0.7874,0.6604 0.3048,0.4445 0.3048,1.2192 0,0.762 -0.3048,1.2319 -0.3048,0.4572 -0.7874,0.6604 -0.4826,0.2032 -1.0033,0.2032 z m 0.0127,-1.2954 q 0.3302,0 0.5334,-0.1651 0.2159,-0.1778 0.2159,-0.635 0,-0.4445 -0.2159,-0.6096 -0.2032,-0.1651 -0.5461,-0.1651 -0.3302,0 -0.5461,0.1651 -0.2032,0.1651 -0.2032,0.6096 0,0.4572 0.2159,0.635 0.2159,0.1651 0.5461,0.1651 z"
       id="path23" />
    <path
       style="font-style:italic;font-weight:800;font-stretch:semi-condensed;font-size:12.7px;line-height:1;font-family:ruda;-inkscape-font-specification:'ruda Ultra-Bold Italic Semi-Condensed';letter-spacing:0px;fill:#99e3d4;stroke-linecap:round;paint-order:markers stroke fill"
       d="m 164.88346,128.70234 2.7305,-5.1816 1.9939,-4.2418 h 1.524 l -2.5146,4.9276 -2.2098,4.4958 z"
       id="path22" />
    <path
       style="font-style:italic;font-weight:800;font-stretch:semi-condensed;font-size:12.7px;line-height:1;font-family:ruda;-inkscape-font-specification:'ruda Ultra-Bold Italic Semi-Condensed';letter-spacing:0px;fill:#99e3d4;stroke-linecap:round;paint-order:markers stroke fill"
       d="m 159.09226,128.75314 q -0.6858,0 -1.2827,-0.2032 -0.5842,-0.2032 -1.0414,-0.6985 -0.4445,-0.508 -0.6985,-1.4097 -0.2413,-0.9017 -0.2413,-2.3241 0,-1.397 0.2413,-2.286 0.254,-0.9017 0.6985,-1.397 0.4572,-0.508 1.0414,-0.7112 0.5969,-0.2032 1.2827,-0.2032 0.6985,0 1.2827,0.2032 0.5969,0.2032 1.0414,0.7112 0.4445,0.4953 0.6858,1.397 0.254,0.9017 0.254,2.2987 0,1.4097 -0.254,2.3114 -0.2413,0.9017 -0.6858,1.4097 -0.4445,0.4953 -1.0414,0.6985 -0.5842,0.2032 -1.2827,0.2032 z m 0.0127,-1.4732 q 0.4953,0 0.8255,-0.254 0.3302,-0.254 0.4953,-0.9398 0.1651,-0.6858 0.1651,-1.9558 0,-0.9906 -0.1016,-1.6002 -0.1016,-0.6096 -0.2921,-0.9398 -0.1905,-0.3429 -0.4699,-0.4699 -0.2794,-0.127 -0.635,-0.127 -0.3556,0 -0.635,0.127 -0.2794,0.127 -0.4699,0.4572 -0.1905,0.3302 -0.2921,0.9398 -0.0889,0.6096 -0.0889,1.5875 0,1.27 0.1651,1.9685 0.1778,0.6858 0.508,0.9525 0.3429,0.254 0.8255,0.254 z"
       id="path21" />
    <path
       style="font-style:italic;font-weight:800;font-stretch:semi-condensed;font-size:12.7px;line-height:1;font-family:ruda;-inkscape-font-specification:'ruda Ultra-Bold Italic Semi-Condensed';letter-spacing:0px;fill:#99e3d4;stroke-linecap:round;paint-order:markers stroke fill"
       d="m 149.24976,128.58804 v -1.4859 l 2.1717,0.0127 0.0762,-5.6134 h -0.0635 l -1.5875,1.6129 -1.1049,-1.1303 2.7432,-2.4003 1.6764,0.127 v 7.4168 l 1.9177,-0.0254 v 1.4859 z"
       id="path20" />
    <path
       style="font-style:italic;font-weight:800;font-stretch:semi-condensed;font-size:12.7px;line-height:1;font-family:ruda;-inkscape-font-specification:'ruda Ultra-Bold Italic Semi-Condensed';letter-spacing:0px;fill:#99e3d4;stroke-width:0.999999;stroke-linecap:round;paint-order:markers stroke fill"
       d="M 142.76005,151.95349 V 97.678786 h 1.3462 v 54.274704 z"
       id="path19" />
    <path
       style="font-style:italic;font-weight:800;font-stretch:semi-condensed;font-size:12.7px;line-height:1;font-family:ruda;-inkscape-font-specification:'ruda Ultra-Bold Italic Semi-Condensed';letter-spacing:0px;fill:#99e3d4;stroke-linecap:round;paint-order:markers stroke fill"
       d="m 134.87337,130.86134 q -0.5588,0 -1.0795,-0.0635 -0.5207,-0.0508 -0.9271,-0.1397 -0.3937,-0.0889 -0.635,-0.1524 -0.2286,-0.0508 -0.2286,-0.0508 l 0.1905,-1.3462 q 0.8509,0.127 1.7145,0.2413 0.8636,0.1143 1.6383,0.1143 0.508,0 0.6858,-0.0635 0.1905,-0.0635 0.1905,-0.2159 0,-0.0762 -0.0635,-0.1397 -0.0508,-0.0635 -0.254,-0.1651 -0.1905,-0.0889 -0.5969,-0.2413 -0.4064,-0.1524 -1.1049,-0.4191 -0.5842,-0.2286 -0.8509,-0.3302 -0.2667,-0.1143 -0.3429,-0.1651 -0.0635,-0.0508 -0.0635,-0.1016 0,-0.0889 0.0762,-0.3048 0.0762,-0.2159 0.1651,-0.4572 0.1016,-0.254 0.1778,-0.4445 0.0889,-0.2032 0.1143,-0.254 -0.8636,-0.2667 -1.3589,-0.889 -0.4826,-0.6223 -0.4826,-1.5748 0,-1.0287 0.4572,-1.6256 0.4699,-0.5969 1.2319,-0.8382 0.762,-0.254 1.651,-0.254 0.254,0 0.6477,0.0127 0.3937,0.0127 0.8128,0.0381 0.4191,0.0254 0.7874,0.0508 0.3683,0.0254 0.5969,0.0381 0.2286,0.0127 0.2286,0.0127 v 1.0033 l -0.8001,0.127 q 0,0 0.0889,0.2286 0.0889,0.2159 0.1651,0.5715 0.0889,0.3429 0.0889,0.7112 0,0.7112 -0.3683,1.2954 -0.3556,0.5715 -1.0541,0.9144 -0.6858,0.3302 -1.6637,0.3429 -0.0127,0.0635 -0.0381,0.2159 -0.0254,0.1524 -0.0254,0.1905 0,0.0381 0.127,0.1016 0.1397,0.0508 0.4191,0.1524 0.2921,0.1016 0.7366,0.2794 0.7874,0.3048 1.2319,0.5969 0.4572,0.2921 0.6477,0.5969 0.1905,0.2921 0.1905,0.635 0,0.5715 -0.4064,0.9652 -0.3937,0.3937 -1.1049,0.5969 -0.6985,0.2032 -1.6129,0.2032 z m -0.0508,-5.8293 q 0.5334,0 0.8382,-0.1143 0.3048,-0.127 0.4191,-0.4445 0.127,-0.3175 0.127,-0.9017 0,-0.4953 -0.0635,-0.8255 -0.0508,-0.3302 -0.127,-0.3937 -0.0254,-0.0381 -0.1651,-0.0635 -0.127,-0.0254 -0.3048,-0.0254 -0.1651,-0.0127 -0.3175,-0.0127 -0.1524,-0.0127 -0.254,-0.0127 -0.5715,0 -0.9144,0.1016 -0.3302,0.1016 -0.4826,0.4064 -0.1524,0.2921 -0.1524,0.9017 0,0.8128 0.3048,1.1049 0.3048,0.2794 1.0922,0.2794 z"
       id="path18" />
    <path
       style="font-style:italic;font-weight:800;font-stretch:semi-condensed;font-size:12.7px;line-height:1;font-family:ruda;-inkscape-font-specification:'ruda Ultra-Bold Italic Semi-Condensed';letter-spacing:0px;fill:#99e3d4;stroke-linecap:round;paint-order:markers stroke fill"
       d="m 126.51677,128.75314 q -0.5969,0 -1.0795,-0.2794 -0.4826,-0.2794 -0.762,-0.8255 -0.2794,-0.5461 -0.2794,-1.3081 0,-0.9271 0.3937,-1.4478 0.4064,-0.5207 1.143,-0.7366 0.7366,-0.2286 1.7272,-0.2286 h 1.0668 q 0,-0.5715 -0.0508,-0.8636 -0.0381,-0.3048 -0.1397,-0.4445 -0.0635,-0.1143 -0.2413,-0.1778 -0.1651,-0.0762 -0.5461,-0.0762 -0.4699,0 -0.9652,0.0889 -0.4826,0.0762 -0.889,0.1905 -0.4064,0.1016 -0.6731,0.1905 -0.254,0.0762 -0.254,0.0762 l -0.3937,-1.2573 q 0,0 0.254,-0.1016 0.254,-0.1016 0.6985,-0.2286 0.4445,-0.1397 0.9906,-0.2413 0.5588,-0.1016 1.1811,-0.1016 1.0287,0 1.6256,0.3429 0.5969,0.3302 0.8509,0.9525 0.2667,0.6223 0.2667,1.4732 v 4.8387 h -1.0922 l -0.2286,-0.8128 h -0.0762 q -0.0254,0.0254 -0.254,0.1778 -0.2286,0.1524 -0.5842,0.3429 -0.3429,0.1778 -0.7874,0.3175 -0.4318,0.1397 -0.9017,0.1397 z m 0.4572,-1.4224 q 0.3937,0 0.7747,-0.127 0.381,-0.127 0.6477,-0.254 0.2794,-0.1397 0.3302,-0.1651 v -1.5367 q -0.0508,0 -0.3683,-0.0254 -0.3048,-0.0381 -0.8001,-0.0381 -0.9271,0 -1.1557,0.2032 -0.1143,0.0889 -0.1905,0.3175 -0.0635,0.2159 -0.0635,0.5842 0,0.5461 0.1905,0.8001 0.2032,0.2413 0.635,0.2413 z"
       id="path17" />
    <path
       style="font-style:italic;font-weight:800;font-stretch:semi-condensed;font-size:12.7px;line-height:1;font-family:ruda;-inkscape-font-specification:'ruda Ultra-Bold Italic Semi-Condensed';letter-spacing:0px;fill:#99e3d4;stroke-linecap:round;paint-order:markers stroke fill"
       d="m 120.96686,128.58804 v -9.6393 h 1.7145 v 9.6393 z"
       id="path16" />
    <path
       style="font-style:italic;font-weight:800;font-stretch:semi-condensed;font-size:12.7px;line-height:1;font-family:ruda;-inkscape-font-specification:'ruda Ultra-Bold Italic Semi-Condensed';letter-spacing:0px;fill:#99e3d4;stroke-linecap:round;paint-order:markers stroke fill"
       d="m 113.08017,128.58804 v -7.4422 h 1.1049 l 0.2032,0.7366 h 0.0635 q 0.2159,-0.127 0.508,-0.2794 0.2921,-0.1524 0.635,-0.2921 0.3556,-0.1524 0.7493,-0.2413 0.3937,-0.0889 0.8128,-0.0889 0.762,0 1.1557,0.3556 0.3937,0.3429 0.5334,0.9652 0.1524,0.6096 0.1524,1.3843 v 4.9022 h -1.7145 v -4.5339 q 0,-0.5842 -0.0254,-0.8763 -0.0254,-0.3048 -0.1524,-0.4699 -0.0889,-0.1143 -0.2286,-0.1651 -0.1397,-0.0508 -0.3302,-0.0508 -0.3048,0 -0.6477,0.1016 -0.3302,0.0889 -0.635,0.2286 -0.2921,0.127 -0.4699,0.2413 v 5.5245 z"
       id="path15" />
    <path
       style="font-style:italic;font-weight:800;font-stretch:semi-condensed;font-size:12.7px;line-height:1;font-family:ruda;-inkscape-font-specification:'ruda Ultra-Bold Italic Semi-Condensed';letter-spacing:0px;fill:#99e3d4;stroke-linecap:round;paint-order:markers stroke fill"
       d="m 105.16808,128.58804 v -7.4422 h 1.1049 l 0.2032,0.7366 h 0.0635 q 0.2159,-0.127 0.508,-0.2794 0.2921,-0.1524 0.635,-0.2921 0.3556,-0.1524 0.7493,-0.2413 0.3937,-0.0889 0.8128,-0.0889 0.762,0 1.1557,0.3556 0.3937,0.3429 0.5334,0.9652 0.1524,0.6096 0.1524,1.3843 v 4.9022 h -1.7145 v -4.5339 q 0,-0.5842 -0.0254,-0.8763 -0.0254,-0.3048 -0.1524,-0.4699 -0.0889,-0.1143 -0.2286,-0.1651 -0.1397,-0.0508 -0.3302,-0.0508 -0.3048,0 -0.6477,0.1016 -0.3302,0.0889 -0.635,0.2286 -0.2921,0.127 -0.4699,0.2413 v 5.5245 z"
       id="path14" />
    <path
       style="font-style:italic;font-weight:800;font-stretch:semi-condensed;font-size:12.7px;line-height:1;font-family:ruda;-inkscape-font-specification:'ruda Ultra-Bold Italic Semi-Condensed';letter-spacing:0px;fill:#99e3d4;stroke-linecap:round;paint-order:markers stroke fill"
       d="m 99.110185,128.75314 q -0.7493,0 -1.1938,-0.3302 -0.4445,-0.3302 -0.635,-0.9398 -0.1905,-0.6223 -0.1905,-1.4605 v -4.8768 h 1.7145 v 4.6228 q 0,0.5969 0.0381,0.889 0.0381,0.2794 0.1397,0.3937 0.0889,0.1016 0.2286,0.1397 0.1524,0.0381 0.3556,0.0381 0.4191,0 0.888995,-0.1778 0.4826,-0.1778 0.8382,-0.3937 v -5.5118 h 1.7145 v 7.4422 h -1.1049 l -0.2159,-0.762 h -0.0762 q -0.2921,0.1778 -0.6858,0.3937 -0.3937,0.2159 -0.86359,0.3683 -0.457205,0.1651 -0.952505,0.1651 z"
       id="path13" />
    <path
       style="font-style:italic;font-weight:800;font-stretch:semi-condensed;font-size:12.7px;line-height:1;font-family:ruda;-inkscape-font-specification:'ruda Ultra-Bold Italic Semi-Condensed';letter-spacing:0px;fill:#99e3d4;stroke-linecap:round;paint-order:markers stroke fill"
       d="m 91.921985,128.58804 v -7.4422 h 1.0668 l 0.2286,0.7747 h 0.0762 q 0,0 0.1778,-0.1397 0.1905,-0.1524 0.4953,-0.3302 0.3175,-0.1905 0.6731,-0.3302 0.3556,-0.1397 0.6985,-0.1397 0.3683,0 0.5461,0.0635 0.1905,0.0508 0.1905,0.0508 l -0.1397,1.5113 q 0,0 -0.2032,-0.0127 -0.2032,-0.0254 -0.4318,-0.0254 -0.3302,0 -0.6477,0.0889 -0.3048,0.0762 -0.5715,0.1905 -0.254,0.1143 -0.4445,0.2413 v 5.4991 z"
       id="path12" />
    <path
       style="font-style:italic;font-weight:800;font-stretch:semi-condensed;font-size:12.7px;line-height:1;font-family:ruda;-inkscape-font-specification:'ruda Ultra-Bold Italic Semi-Condensed';letter-spacing:0px;fill:#99e3d4;stroke-linecap:round;paint-order:markers stroke fill"
       d="m 87.248391,130.86134 q -0.5588,0 -1.0795,-0.0635 -0.5207,-0.0508 -0.9271,-0.1397 -0.3937,-0.0889 -0.635,-0.1524 -0.2286,-0.0508 -0.2286,-0.0508 l 0.1905,-1.3462 q 0.8509,0.127 1.7145,0.2413 0.8636,0.1143 1.6383,0.1143 0.508,0 0.6858,-0.0635 0.1905,-0.0635 0.1905,-0.2159 0,-0.0762 -0.0635,-0.1397 -0.0508,-0.0635 -0.254,-0.1651 -0.1905,-0.0889 -0.5969,-0.2413 -0.4064,-0.1524 -1.1049,-0.4191 -0.5842,-0.2286 -0.8509,-0.3302 -0.2667,-0.1143 -0.3429,-0.1651 -0.0635,-0.0508 -0.0635,-0.1016 0,-0.0889 0.0762,-0.3048 0.0762,-0.2159 0.1651,-0.4572 0.1016,-0.254 0.1778,-0.4445 0.0889,-0.2032 0.1143,-0.254 -0.8636,-0.2667 -1.3589,-0.889 -0.4826,-0.6223 -0.4826,-1.5748 0,-1.0287 0.4572,-1.6256 0.4699,-0.5969 1.2319,-0.8382 0.762,-0.254 1.651,-0.254 0.254,0 0.6477,0.0127 0.3937,0.0127 0.8128,0.0381 0.4191,0.0254 0.7874,0.0508 0.3683,0.0254 0.5969,0.0381 0.2286,0.0127 0.2286,0.0127 v 1.0033 l -0.8001,0.127 q 0,0 0.0889,0.2286 0.0889,0.2159 0.1651,0.5715 0.0889,0.3429 0.0889,0.7112 0,0.7112 -0.3683,1.2954 -0.3556,0.5715 -1.0541,0.9144 -0.6858,0.3302 -1.6637,0.3429 -0.0127,0.0635 -0.0381,0.2159 -0.0254,0.1524 -0.0254,0.1905 0,0.0381 0.127,0.1016 0.1397,0.0508 0.4191,0.1524 0.2921,0.1016 0.7366,0.2794 0.7874,0.3048 1.2319,0.5969 0.4572,0.2921 0.6477,0.5969 0.1905,0.2921 0.1905,0.635 0,0.5715 -0.4064,0.9652 -0.3937,0.3937 -1.1049,0.5969 -0.6985,0.2032 -1.6129,0.2032 z m -0.0508,-5.8293 q 0.5334,0 0.8382,-0.1143 0.3048,-0.127 0.4191,-0.4445 0.127,-0.3175 0.127,-0.9017 0,-0.4953 -0.0635,-0.8255 -0.0508,-0.3302 -0.127,-0.3937 -0.0254,-0.0381 -0.1651,-0.0635 -0.127,-0.0254 -0.3048,-0.0254 -0.1651,-0.0127 -0.3175,-0.0127 -0.1524,-0.0127 -0.254,-0.0127 -0.5715,0 -0.9144,0.1016 -0.3302,0.1016 -0.4826,0.4064 -0.1524,0.2921 -0.1524,0.9017 0,0.8128 0.3048,1.1049 0.3048,0.2794 1.0922,0.2794 z"
       id="path11" />
    <path
       style="font-style:italic;font-weight:800;font-stretch:semi-condensed;font-size:12.7px;line-height:1;font-family:ruda;-inkscape-font-specification:'ruda Ultra-Bold Italic Semi-Condensed';letter-spacing:0px;fill:#99e3d4;stroke-linecap:round;paint-order:markers stroke fill"
       d="m 80.606299,128.75314 q -0.5588,0 -1.0795,-0.1143 -0.508,-0.1016 -0.9144,-0.2286 -0.4064,-0.1397 -0.6477,-0.2413 -0.2286,-0.1143 -0.2286,-0.1143 l 0.4191,-1.3716 q 0,0 0.2413,0.1016 0.2413,0.0889 0.635,0.2286 0.3937,0.127 0.8382,0.2286 0.4572,0.1016 0.8636,0.1016 0.2286,0 0.381,-0.0381 0.1651,-0.0381 0.254,-0.1143 0.1143,-0.0889 0.1778,-0.254 0.0762,-0.1778 0.0762,-0.3937 0,-0.381 -0.2159,-0.5715 -0.2159,-0.2032 -0.5715,-0.3302 -0.3556,-0.127 -0.7874,-0.2413 -0.3937,-0.127 -0.8001,-0.2667 -0.3937,-0.1397 -0.7239,-0.381 -0.3302,-0.2413 -0.5461,-0.6223 -0.2032,-0.381 -0.2032,-0.9906 0,-0.9779 0.635,-1.5621 0.6477,-0.5969 2.0828,-0.5969 0.5334,0 1.016,0.0762 0.4953,0.0635 0.8763,0.1524 0.381,0.0889 0.5842,0.1651 l -0.254,1.3462 q 0,0 -0.2286,-0.0508 -0.2159,-0.0508 -0.5715,-0.1143 -0.3556,-0.0762 -0.7747,-0.127 -0.4064,-0.0635 -0.8001,-0.0635 -0.3302,0 -0.4953,0.0508 -0.1524,0.0381 -0.2286,0.0889 -0.0635,0.0635 -0.127,0.1778 -0.0508,0.1016 -0.0508,0.2794 0,0.3556 0.2286,0.5588 0.2413,0.1905 0.6096,0.3175 0.3683,0.1143 0.7874,0.2413 0.3937,0.1143 0.7874,0.254 0.3937,0.127 0.7239,0.3683 0.3302,0.2286 0.5207,0.6223 0.2032,0.381 0.2032,0.9906 0,1.0922 -0.6985,1.7653 -0.6858,0.6731 -1.9939,0.6731 z"
       id="path10" />
    <path
       style="font-style:italic;font-weight:800;font-stretch:semi-condensed;font-size:12.7px;line-height:1;font-family:ruda;-inkscape-font-specification:'ruda Ultra-Bold Italic Semi-Condensed';letter-spacing:0px;fill:#99e3d4;stroke-linecap:round;paint-order:markers stroke fill"
       d="m 73.557805,130.86134 q -0.5588,0 -1.0795,-0.0635 -0.5207,-0.0508 -0.9271,-0.1397 -0.3937,-0.0889 -0.635,-0.1524 -0.2286,-0.0508 -0.2286,-0.0508 l 0.1905,-1.3462 q 0.8509,0.127 1.7145,0.2413 0.8636,0.1143 1.6383,0.1143 0.508,0 0.6858,-0.0635 0.1905,-0.0635 0.1905,-0.2159 0,-0.0762 -0.0635,-0.1397 -0.0508,-0.0635 -0.254,-0.1651 -0.1905,-0.0889 -0.5969,-0.2413 -0.4064,-0.1524 -1.1049,-0.4191 -0.5842,-0.2286 -0.8509,-0.3302 -0.2667,-0.1143 -0.3429,-0.1651 -0.0635,-0.0508 -0.0635,-0.1016 0,-0.0889 0.0762,-0.3048 0.0762,-0.2159 0.1651,-0.4572 0.1016,-0.254 0.1778,-0.4445 0.0889,-0.2032 0.1143,-0.254 -0.8636,-0.2667 -1.3589,-0.889 -0.4826,-0.6223 -0.4826,-1.5748 0,-1.0287 0.4572,-1.6256 0.4699,-0.5969 1.2319,-0.8382 0.762,-0.254 1.651,-0.254 0.254,0 0.6477,0.0127 0.3937,0.0127 0.8128,0.0381 0.4191,0.0254 0.7874,0.0508 0.3683,0.0254 0.5969,0.0381 0.2286,0.0127 0.2286,0.0127 v 1.0033 l -0.8001,0.127 q 0,0 0.0889,0.2286 0.0889,0.2159 0.1651,0.5715 0.0889,0.3429 0.0889,0.7112 0,0.7112 -0.3683,1.2954 -0.3556,0.5715 -1.0541,0.9144 -0.6858,0.3302 -1.6637,0.3429 -0.0127,0.0635 -0.0381,0.2159 -0.0254,0.1524 -0.0254,0.1905 0,0.0381 0.127,0.1016 0.1397,0.0508 0.4191,0.1524 0.2921,0.1016 0.7366,0.2794 0.7874,0.3048 1.2319,0.5969 0.4572,0.2921 0.6477,0.5969 0.1905,0.2921 0.1905,0.635 0,0.5715 -0.4064,0.9652 -0.3937,0.3937 -1.1049,0.5969 -0.6985,0.2032 -1.6129,0.2032 z m -0.0508,-5.8293 q 0.5334,0 0.8382,-0.1143 0.3048,-0.127 0.4191,-0.4445 0.127,-0.3175 0.127,-0.9017 0,-0.4953 -0.0635,-0.8255 -0.0508,-0.3302 -0.127,-0.3937 -0.0254,-0.0381 -0.1651,-0.0635 -0.127,-0.0254 -0.3048,-0.0254 -0.1651,-0.0127 -0.3175,-0.0127 -0.1524,-0.0127 -0.254,-0.0127 -0.5715,0 -0.9144,0.1016 -0.3302,0.1016 -0.4826,0.4064 -0.1524,0.2921 -0.1524,0.9017 0,0.8128 0.3048,1.1049 0.3048,0.2794 1.0922,0.2794 z"
       id="path9" />
    <path
       style="font-style:italic;font-weight:800;font-stretch:semi-condensed;font-size:12.7px;line-height:1;font-family:ruda;-inkscape-font-specification:'ruda Ultra-Bold Italic Semi-Condensed';letter-spacing:0px;fill:#99e3d4;stroke-linecap:round;paint-order:markers stroke fill"
       d="m 63.296215,128.58804 v -7.4422 h 1.1049 l 0.2032,0.7366 h 0.0635 q 0.2159,-0.127 0.508,-0.2794 0.2921,-0.1524 0.635,-0.2921 0.3556,-0.1524 0.7493,-0.2413 0.3937,-0.0889 0.8128,-0.0889 0.762,0 1.1557,0.3556 0.3937,0.3429 0.5334,0.9652 0.1524,0.6096 0.1524,1.3843 v 4.9022 h -1.7145 v -4.5339 q 0,-0.5842 -0.0254,-0.8763 -0.0254,-0.3048 -0.1524,-0.4699 -0.0889,-0.1143 -0.2286,-0.1651 -0.1397,-0.0508 -0.3302,-0.0508 -0.3048,0 -0.6477,0.1016 -0.3302,0.0889 -0.635,0.2286 -0.2921,0.127 -0.4699,0.2413 v 5.5245 z"
       id="path8" />
    <path
       style="font-style:italic;font-weight:800;font-stretch:semi-condensed;font-size:12.7px;line-height:1;font-family:ruda;-inkscape-font-specification:'ruda Ultra-Bold Italic Semi-Condensed';letter-spacing:0px;fill:#99e3d4;stroke-linecap:round;paint-order:markers stroke fill"
       d="m 59.333823,120.05364 v -1.2827 h 1.8669 v 1.2827 z"
       id="path7" />
    <path
       style="font-style:italic;font-weight:800;font-stretch:semi-condensed;font-size:12.7px;line-height:1;font-family:ruda;-inkscape-font-specification:'ruda Ultra-Bold Italic Semi-Condensed';letter-spacing:0px;fill:#99e3d4;stroke-linecap:round;paint-order:markers stroke fill"
       d="m 59.410023,128.58804 v -7.4422 h 1.7145 v 7.4422 z"
       id="path6" />
    <path
       style="font-style:italic;font-weight:800;font-stretch:semi-condensed;font-size:12.7px;line-height:1;font-family:ruda;-inkscape-font-specification:'ruda Ultra-Bold Italic Semi-Condensed';letter-spacing:0px;fill:#99e3d4;stroke-linecap:round;paint-order:markers stroke fill"
       d="m 54.063324,128.58804 v -7.4422 h 1.0668 l 0.2286,0.7747 h 0.0762 q 0,0 0.1778,-0.1397 0.1905,-0.1524 0.4953,-0.3302 0.3175,-0.1905 0.6731,-0.3302 0.3556,-0.1397 0.6985,-0.1397 0.3683,0 0.5461,0.0635 0.1905,0.0508 0.1905,0.0508 l -0.1397,1.5113 q 0,0 -0.2032,-0.0127 -0.2032,-0.0254 -0.4318,-0.0254 -0.3302,0 -0.6477,0.0889 -0.3048,0.0762 -0.5715,0.1905 -0.254,0.1143 -0.4445,0.2413 v 5.4991 z"
       id="path5" />
    <path
       style="font-style:italic;font-weight:800;font-stretch:semi-condensed;font-size:12.7px;line-height:1;font-family:ruda;-inkscape-font-specification:'ruda Ultra-Bold Italic Semi-Condensed';letter-spacing:0px;fill:#99e3d4;stroke-linecap:round;paint-order:markers stroke fill"
       d="m 49.389719,128.76584 q -0.9906,0 -1.7399,-0.381 -0.7493,-0.381 -1.1684,-1.2319 -0.4064,-0.8636 -0.4064,-2.2987 0,-1.4986 0.4318,-2.3368 0.4445,-0.8509 1.1811,-1.1938 0.7493,-0.3556 1.6764,-0.3556 0.9398,0 1.6002,0.3429 0.6604,0.3302 1.0033,1.1049 0.3429,0.7747 0.3429,2.0828 v 0.9779 h -5.2578 l 0.7747,-0.254 q -0.0127,0.5588 0.0381,0.9398 0.0635,0.381 0.1651,0.6096 0.1016,0.2286 0.2286,0.3556 0.1397,0.1143 0.3556,0.1905 0.2159,0.0635 0.5461,0.0635 0.3556,0 0.7493,-0.0635 0.4064,-0.0635 0.7747,-0.1651 0.381,-0.1016 0.6604,-0.1778 0.2794,-0.0889 0.3937,-0.127 l 0.4191,1.27 q -0.1143,0.0508 -0.5207,0.2159 -0.4064,0.1524 -0.9906,0.2921 -0.5842,0.1397 -1.2573,0.1397 z m -1.5621,-4.2164 -0.762,-0.3302 4.2799,-0.0762 -0.7874,0.3302 q 0.0127,-0.6858 -0.0381,-1.143 -0.0508,-0.4699 -0.2032,-0.6858 -0.0889,-0.1143 -0.2794,-0.2032 -0.1905,-0.1016 -0.6477,-0.1016 -0.5334,0 -0.8001,0.1143 -0.254,0.1016 -0.4064,0.2667 -0.3683,0.4318 -0.3556,1.8288 z"
       id="path4" />
    <path
       style="font-style:italic;font-weight:800;font-stretch:semi-condensed;font-size:12.7px;line-height:1;font-family:ruda;-inkscape-font-specification:'ruda Ultra-Bold Italic Semi-Condensed';letter-spacing:0px;fill:#99e3d4;stroke-linecap:round;paint-order:markers stroke fill"
       d="m 40.753722,128.75314 q -0.7112,0 -1.2827,-0.3937 -0.5588,-0.4064 -0.9017,-1.2446 -0.3302,-0.8509 -0.3302,-2.1717 0,-1.2192 0.254,-1.9939 0.2667,-0.7747 0.6985,-1.2065 0.4318,-0.4318 0.9398,-0.5969 0.508,-0.1651 1.016,-0.1651 0.3683,0 0.6985,0.0508 0.3302,0.0381 0.5461,0.0889 0.2159,0.0508 0.254,0.0762 v -2.2479 h 1.7272 v 9.6393 h -1.1176 l -0.1905,-0.7366 h -0.0635 q -0.2286,0.1524 -0.5715,0.3683 -0.3429,0.2159 -0.762,0.3683 -0.4191,0.1651 -0.9144,0.1651 z m 0.2667,-1.4224 q 0.2286,0 0.4953,-0.0635 0.2667,-0.0762 0.508,-0.1778 0.2413,-0.1016 0.4064,-0.1778 0.1778,-0.0889 0.2159,-0.1143 v -4.1148 q -0.0381,-0.0127 -0.2667,-0.0762 -0.2286,-0.0762 -0.5588,-0.1397 -0.3175,-0.0635 -0.6731,-0.0635 -0.5461,0 -0.762,0.2286 -0.0889,0.1016 -0.1778,0.3683 -0.0889,0.254 -0.1524,0.7366 -0.0508,0.4699 -0.0508,1.2446 0,0.8763 0.0635,1.3335 0.0762,0.4572 0.1778,0.635 0.1016,0.1651 0.1651,0.2286 0.1016,0.0889 0.2667,0.127 0.1651,0.0254 0.3429,0.0254 z"
       id="path3" />
    <path
       style="font-style:italic;font-weight:800;font-stretch:semi-condensed;font-size:12.7px;line-height:1;font-family:ruda;-inkscape-font-specification:'ruda Ultra-Bold Italic Semi-Condensed';letter-spacing:0px;fill:#99e3d4;stroke-linecap:round;paint-order:markers stroke fill"
       d="m 33.351217,128.58804 v -7.4422 h 1.0668 l 0.2286,0.7747 h 0.0762 q 0,0 0.1778,-0.1397 0.1905,-0.1524 0.4953,-0.3302 0.3175,-0.1905 0.6731,-0.3302 0.3556,-0.1397 0.6985,-0.1397 0.3683,0 0.5461,0.0635 0.1905,0.0508 0.1905,0.0508 l -0.1397,1.5113 q 0,0 -0.2032,-0.0127 -0.2032,-0.0254 -0.4318,-0.0254 -0.3302,0 -0.6477,0.0889 -0.3048,0.0762 -0.5715,0.1905 -0.254,0.1143 -0.4445,0.2413 v 5.4991 z"
       id="path2" />
    <path
       style="font-style:italic;font-weight:800;font-stretch:semi-condensed;font-size:12.7px;line-height:1;font-family:ruda;-inkscape-font-specification:'ruda Ultra-Bold Italic Semi-Condensed';letter-spacing:0px;fill:#99e3d4;stroke-linecap:round;paint-order:markers stroke fill"
       d="m 27.293327,128.75314 q -0.7493,0 -1.1938,-0.3302 -0.4445,-0.3302 -0.635,-0.9398 -0.1905,-0.6223 -0.1905,-1.4605 v -4.8768 h 1.7145 v 4.6228 q 0,0.5969 0.0381,0.889 0.0381,0.2794 0.1397,0.3937 0.0889,0.1016 0.2286,0.1397 0.1524,0.0381 0.3556,0.0381 0.4191,0 0.889,-0.1778 0.4826,-0.1778 0.8382,-0.3937 v -5.5118 h 1.7145 v 7.4422 h -1.1049 l -0.2159,-0.762 h -0.0762 q -0.2921,0.1778 -0.6858,0.3937 -0.3937,0.2159 -0.8636,0.3683 -0.4572,0.1651 -0.9525,0.1651 z"
       id="path1" />
    <path
       style="font-style:italic;font-weight:800;font-stretch:semi-condensed;font-size:12.7px;line-height:1;font-family:ruda;-inkscape-font-specification:'ruda Ultra-Bold Italic Semi-Condensed';letter-spacing:0px;fill:#99e3d4;stroke-linecap:round;paint-order:markers stroke fill"
       d="m 19.77492,128.58804 -2.4257,-8.9027 h 1.8288 l 1.6891,7.3279 h 0.0762 l 1.7018,-7.3279 h 1.8415 l -2.4257,8.9027 z"
       id="text1" />
    <text
       xml:space="preserve"
       style="font-weight:500;font-stretch:semi-condensed;font-size:12.7px;line-height:1;font-family:'Barlow Semi Condensed';-inkscape-font-specification:'Barlow Semi Condensed, Medium Semi-Condensed';text-align:start;letter-spacing:0px;writing-mode:lr-tb;direction:ltr;text-anchor:start;fill:#99e3d4;stroke-width:1;stroke-linecap:round;paint-order:markers stroke fill"
       x="129.47011"
       y="128.53725"
       id="text2"><tspan
         sodipodi:role="line"
         id="tspan2"
         style="stroke-width:1"
         x="129.47011"
         y="128.53725" /></text>
    <text
       xml:space="preserve"
       style="font-style:italic;font-weight:800;font-stretch:semi-condensed;font-size:6.91899px;line-height:1;font-family:ruda;-inkscape-font-specification:'ruda Ultra-Bold Italic Semi-Condensed';text-align:start;letter-spacing:0px;writing-mode:lr-tb;direction:ltr;text-anchor:start;fill:#ffffff;stroke:#000000;stroke-width:1;stroke-linecap:round;paint-order:markers stroke fill"
       x="208.52919"
       y="141.18475"
       id="text3"
       transform="scale(1.0130238,0.98714365)"><tspan
         sodipodi:role="line"
         id="tspan1"
         style="font-style:normal;font-variant:normal;font-weight:500;font-stretch:normal;font-family:ruda;-inkscape-font-specification:'ruda Medium';text-align:center;text-anchor:middle;stroke:none;stroke-width:1;fill:#ffffff"
         x="208.52919"
         y="141.18475">Når har vi </tspan><tspan
         sodipodi:role="line"
         style="font-style:normal;font-variant:normal;font-weight:500;font-stretch:normal;font-family:ruda;-inkscape-font-specification:'ruda Medium';text-align:center;text-anchor:middle;stroke:none;stroke-width:1;fill:#ffffff"
         x="208.52919"
         y="148.10374"
         id="tspan5">lov til å sette karakter?</tspan></text>
    <text
       xml:space="preserve"
       style="font-style:italic;font-weight:800;font-stretch:semi-condensed;font-size:6.91899px;line-height:1;font-family:ruda;-inkscape-font-specification:'ruda Ultra-Bold Italic Semi-Condensed';text-align:start;letter-spacing:0px;writing-mode:lr-tb;direction:ltr;text-anchor:start;fill:#ffffff;stroke:#000000;stroke-width:1;stroke-linecap:round;paint-order:markers stroke fill"
       x="78.960922"
       y="141.18475"
       id="text4"
       transform="scale(1.0130238,0.98714364)"><tspan
         sodipodi:role="line"
         id="tspan3"
         style="font-style:normal;font-variant:normal;font-weight:500;font-stretch:normal;font-family:ruda;-inkscape-font-specification:'ruda Medium';text-align:center;text-anchor:middle;fill:#ffffff;stroke:none;stroke-width:1"
         x="78.960922"
         y="141.18475">Når kan vi </tspan><tspan
         sodipodi:role="line"
         style="font-style:normal;font-variant:normal;font-weight:500;font-stretch:normal;font-family:ruda;-inkscape-font-specification:'ruda Medium';text-align:center;text-anchor:middle;fill:#ffffff;stroke:none;stroke-width:1"
         x="78.960922"
         y="148.10374"
         id="tspan4">sette karakter?</tspan></text>
  </g>
</svg>
